<?xml version="1.0" encoding="UTF-8"?>
<!DOCTYPE svg PUBLIC "-//W3C//DTD SVG 1.1//EN" "http://www.w3.org/Graphics/SVG/1.1/DTD/svg11.dtd">
<svg xmlns="http://www.w3.org/2000/svg" version="1.1" width="429px" height="429px"
    style="shape-rendering:geometricPrecision; text-rendering:geometricPrecision; image-rendering:optimizeQuality; fill-rule:evenodd; clip-rule:evenodd"
    xmlns:xlink="http://www.w3.org/1999/xlink">
    <g>
        <path style="opacity:0.042" fill="#070707"
            d="M 208.5,-0.5 C 212.167,-0.5 215.833,-0.5 219.5,-0.5C 223.806,0.250474 228.14,1.41714 232.5,3C 235.756,4.11596 238.422,5.94929 240.5,8.5C 227.694,1.18923 214.027,-0.810773 199.5,2.5C 202.408,1.18398 205.408,0.183984 208.5,-0.5 Z" />
    </g>
    <g>
        <path style="opacity:0.999" fill="#505050"
            d="M 240.5,8.5 C 246.5,13.8333 252.167,19.5 257.5,25.5C 262.374,33.2518 266.708,41.2518 270.5,49.5C 270.928,52.7846 271.928,55.7846 273.5,58.5C 273.367,61.5879 274.7,63.5879 277.5,64.5C 287.896,59.6456 298.563,55.479 309.5,52C 318.764,50.4154 328.098,49.582 337.5,49.5C 345.665,51.1127 353.332,54.1127 360.5,58.5C 363.167,61.8333 366.167,64.8333 369.5,67.5C 373.649,74.4505 376.649,81.7838 378.5,89.5C 378.5,89.8333 378.5,90.1667 378.5,90.5C 379.246,112.439 373.913,132.773 362.5,151.5C 363.09,152.799 364.09,153.632 365.5,154C 370.085,155.795 374.752,157.295 379.5,158.5C 384.311,161.07 389.311,163.403 394.5,165.5C 395.659,167.25 397.326,168.25 399.5,168.5C 402.871,171.871 406.537,174.871 410.5,177.5C 413.463,181.798 416.797,185.798 420.5,189.5C 422.824,194.465 424.824,199.465 426.5,204.5C 428.526,218.249 425.859,230.915 418.5,242.5C 415.757,244.239 413.757,246.573 412.5,249.5C 405.949,254.868 398.949,259.701 391.5,264C 382.394,267.981 373.061,271.481 363.5,274.5C 362.417,275.365 362.251,276.365 363,277.5C 364.524,279.898 366.024,282.231 367.5,284.5C 367.182,287.481 368.182,289.815 370.5,291.5C 372.757,298.44 374.924,305.44 377,312.5C 378.273,321.472 378.606,330.472 378,339.5C 375.745,346.328 373.245,352.995 370.5,359.5C 356.081,375.518 338.081,381.685 316.5,378C 306.652,375.74 296.985,372.907 287.5,369.5C 283.731,366.104 279.397,364.771 274.5,365.5C 269.106,382.851 260.773,398.517 249.5,412.5C 249.167,413.5 248.5,414.167 247.5,414.5C 235.968,424.01 222.635,428.343 207.5,427.5C 203.596,426.508 199.596,425.508 195.5,424.5C 194.486,423.326 193.153,422.66 191.5,422.5C 190.341,420.75 188.674,419.75 186.5,419.5C 175.246,409.394 166.413,397.394 160,383.5C 157.691,376.905 155.191,370.405 152.5,364C 150.447,363.675 148.447,364.009 146.5,365C 131.119,372.848 114.786,377.348 97.5,378.5C 66.4579,376.624 50.4579,360.124 49.5,329C 50.2498,319.758 51.7498,310.591 54,301.5C 57.5293,292.453 61.0293,283.453 64.5,274.5C 59.0088,272.376 53.3421,270.709 47.5,269.5C 46.2196,268.069 44.5529,267.402 42.5,267.5C 39.3177,264.66 35.651,262.66 31.5,261.5C 28.3733,258.102 24.7066,255.435 20.5,253.5C 12.3434,245.85 6.17676,236.85 2,226.5C -0.263565,215.569 0.569768,204.902 4.5,194.5C 4.32842,193.508 4.66175,192.842 5.5,192.5C 9.31762,186.422 13.9843,180.922 19.5,176C 25.6791,171.97 31.6791,167.804 37.5,163.5C 45.0696,160.871 52.403,157.871 59.5,154.5C 63.6046,154.504 65.1046,152.504 64,148.5C 59.2864,140.086 55.453,131.419 52.5,122.5C 49.9652,107.815 49.9652,93.1485 52.5,78.5C 60.6717,62.3269 73.6717,52.6602 91.5,49.5C 112.153,49.8868 131.486,55.0534 149.5,65C 150.5,65.6667 151.5,65.6667 152.5,65C 155.179,58.6399 157.679,52.1399 160,45.5C 168.164,26.4545 181.331,12.1211 199.5,2.5C 214.027,-0.810773 227.694,1.18923 240.5,8.5 Z M 225.5,19.5 C 234.833,25.5 242.5,33.1667 248.5,42.5C 253.254,52.934 257.087,63.6007 260,74.5C 242.59,88.5748 227.257,104.575 214,122.5C 210.291,117.06 206.125,112.06 201.5,107.5C 199.906,104.236 197.573,101.569 194.5,99.5C 191.855,94.8547 188.188,91.188 183.5,88.5C 179.767,83.4356 175.101,79.4356 169.5,76.5C 168.463,74.2625 168.297,71.9291 169,69.5C 172.231,57.7135 177.064,46.7135 183.5,36.5C 187.332,33.5011 190.665,30.0011 193.5,26C 202.984,17.8915 213.651,15.7249 225.5,19.5 Z M 116.5,68.5 C 127.01,72.1675 137.176,76.8342 147,82.5C 146.669,92.3115 146.169,102.145 145.5,112C 146.051,124.548 147.051,137.048 148.5,149.5C 144.846,149.058 141.179,148.724 137.5,148.5C 129.05,147.009 120.383,146.342 111.5,146.5C 101.823,146.902 92.1566,147.069 82.5,147C 81.8366,145.482 80.8366,144.315 79.5,143.5C 78.3411,139.849 76.6744,136.515 74.5,133.5C 74.5979,131.447 73.9313,129.78 72.5,128.5C 70.8695,121.289 68.8695,114.289 66.5,107.5C 66.334,102.156 66.5006,96.8229 67,91.5C 68.6459,86.2148 70.8126,81.2148 73.5,76.5C 75.1667,75.5 76.5,74.1667 77.5,72.5C 82.3116,69.2663 87.645,67.4329 93.5,67C 101.22,66.5896 108.886,67.0896 116.5,68.5 Z M 351.5,138.5 C 349.358,140.765 347.691,143.432 346.5,146.5C 340.872,147.495 335.206,147.829 329.5,147.5C 316.806,146.269 304.14,146.602 291.5,148.5C 287.125,149.274 282.792,149.274 278.5,148.5C 279.917,141.59 280.75,134.59 281,127.5C 281.307,112.461 281.473,97.4608 281.5,82.5C 299.972,69.7295 320.305,64.8962 342.5,68C 355.441,74.2037 361.774,84.537 361.5,99C 361.171,106.305 360.004,113.471 358,120.5C 355.724,126.497 353.557,132.497 351.5,138.5 Z M 187.5,117.5 C 191.122,123.122 195.122,128.455 199.5,133.5C 201.082,136.335 202.415,139.335 203.5,142.5C 200.368,151.062 197.535,159.729 195,168.5C 192.341,166.754 189.508,165.42 186.5,164.5C 183.01,161.585 179.01,159.418 174.5,158C 172.304,156.301 170.304,154.467 168.5,152.5C 164.571,134.015 163.571,115.348 165.5,96.5C 172.827,103.494 180.161,110.494 187.5,117.5 Z M 256.5,157.5 C 248.1,159.95 240.267,163.617 233,168.5C 232.095,163.513 230.595,158.846 228.5,154.5C 228.598,152.447 227.931,150.78 226.5,149.5C 226.244,147.063 225.577,144.729 224.5,142.5C 226.412,138.34 228.579,134.34 231,130.5C 238.679,120.33 246.845,110.663 255.5,101.5C 257.799,100.222 260.132,98.8889 262.5,97.5C 264.091,114.947 263.258,132.28 260,149.5C 259.094,152.31 257.927,154.976 256.5,157.5 Z M 167.5,192.5 C 167.414,193.496 167.748,194.329 168.5,195C 159.605,197.632 150.772,200.465 142,203.5C 134.749,200.128 127.916,196.128 121.5,191.5C 120.415,189.413 118.749,188.08 116.5,187.5C 109.486,180.486 102.819,173.153 96.5,165.5C 115.695,163.65 134.695,164.817 153.5,169C 157.32,174.807 160.487,180.973 163,187.5C 164.049,189.618 165.549,191.284 167.5,192.5 Z M 317.5,182.5 C 308.108,189.894 298.441,196.894 288.5,203.5C 283.161,202.162 277.828,200.829 272.5,199.5C 268.324,197.863 263.991,196.363 259.5,195C 264.301,187.903 268.467,180.403 272,172.5C 273.214,170.951 274.714,169.785 276.5,169C 295.021,164.53 313.688,163.53 332.5,166C 327.584,171.741 322.584,177.241 317.5,182.5 Z M 213.5,165.5 C 215.61,166.453 216.777,168.119 217,170.5C 218.71,177.529 218.71,184.529 217,191.5C 215,198.167 213,198.167 211,191.5C 208.882,182.462 209.715,173.796 213.5,165.5 Z M 365.5,170.5 C 375.567,174.7 385.234,179.7 394.5,185.5C 396.833,188.5 399.5,191.167 402.5,193.5C 402.738,195.404 403.738,196.738 405.5,197.5C 411.271,209.48 410.771,221.147 404,232.5C 399.938,236.731 395.771,240.731 391.5,244.5C 388.296,245.383 385.629,247.05 383.5,249.5C 374.535,253.322 365.368,256.656 356,259.5C 355.167,259.333 354.333,259.167 353.5,259C 351.297,256.628 348.963,254.461 346.5,252.5C 341.141,244.631 334.808,237.464 327.5,231C 325.266,229.25 322.932,227.75 320.5,226.5C 317.224,222.529 313.224,219.529 308.5,217.5C 307.71,216.206 306.71,215.039 305.5,214C 307.618,212.951 309.284,211.451 310.5,209.5C 315.282,206.601 319.949,203.434 324.5,200C 327.371,197.297 330.038,194.464 332.5,191.5C 334.71,191.106 336.043,189.773 336.5,187.5C 340.234,184.769 343.234,181.436 345.5,177.5C 348.882,174.433 352.048,171.099 355,167.5C 358.404,168.801 361.904,169.801 365.5,170.5 Z M 103.5,198.5 C 104.911,200.914 106.911,202.581 109.5,203.5C 110.262,205.262 111.596,206.262 113.5,206.5C 116.48,209.144 119.48,211.811 122.5,214.5C 113.402,220.762 104.736,227.595 96.5,235C 89.1949,242.974 81.8616,250.974 74.5,259C 72.8659,259.494 71.1992,259.66 69.5,259.5C 61.83,256.717 54.1633,253.717 46.5,250.5C 36.8308,245.155 28.4975,238.155 21.5,229.5C 15.7691,218.566 16.2691,207.899 23,197.5C 25.6686,194 28.502,190.667 31.5,187.5C 43.749,178.791 57.249,172.458 72,168.5C 72.8333,168.667 73.6667,168.833 74.5,169C 83.0239,180.023 92.6906,189.857 103.5,198.5 Z M 179.5,178.5 C 183.187,179.176 186.52,180.676 189.5,183C 192.667,186.167 195.833,189.333 199,192.5C 200.626,195.058 201.626,197.725 202,200.5C 201.439,201.022 200.772,201.355 200,201.5C 190.374,197.041 183.207,190.041 178.5,180.5C 178.863,179.817 179.196,179.15 179.5,178.5 Z M 243.5,190.5 C 241.167,192.167 239.167,194.167 237.5,196.5C 234.64,199.227 231.307,200.727 227.5,201C 227.043,200.586 226.709,200.086 226.5,199.5C 231.167,190.167 238.167,183.167 247.5,178.5C 248.5,178.833 249.167,179.5 249.5,180.5C 248.005,184.16 246.005,187.493 243.5,190.5 Z M 245.5,209.5 C 249.835,209.917 254.168,210.417 258.5,211C 265.167,213 265.167,215 258.5,217C 254.981,217.377 251.481,217.877 248,218.5C 244.519,217.877 241.019,217.377 237.5,217C 235.382,216.74 233.716,215.74 232.5,214C 233.167,213.333 233.833,212.667 234.5,212C 238.28,211.082 241.946,210.249 245.5,209.5 Z M 177.5,210.5 C 181.835,210.917 186.168,211.417 190.5,212C 197.167,214 197.167,216 190.5,218C 186.981,218.377 183.481,218.877 180,219.5C 176.519,218.877 173.019,218.377 169.5,218C 167.382,217.74 165.716,216.74 164.5,215C 165.167,214.333 165.833,213.667 166.5,213C 170.28,212.082 173.946,211.249 177.5,210.5 Z M 152.5,227.5 C 154.515,228.924 156.848,229.59 159.5,229.5C 161.65,230.67 163.984,231.67 166.5,232.5C 167.386,233.325 167.719,234.325 167.5,235.5C 166.542,235.953 165.708,236.619 165,237.5C 161.628,244.412 158.128,251.245 154.5,258C 151.352,259.605 148.019,260.605 144.5,261C 133.234,262.803 121.901,263.969 110.5,264.5C 105.735,264.486 101.068,263.819 96.5,262.5C 105.247,252.751 114.58,243.751 124.5,235.5C 129.444,232.355 134.444,229.188 139.5,226C 143.904,225.742 148.238,226.242 152.5,227.5 Z M 297.5,230.5 C 299.296,232.9 301.63,234.567 304.5,235.5C 313.965,244.464 323.298,253.631 332.5,263C 329.635,263.183 326.969,263.683 324.5,264.5C 324.167,264.5 323.833,264.5 323.5,264.5C 307.323,264.117 291.323,262.284 275.5,259C 274.069,258.535 272.903,257.701 272,256.5C 269.997,251.16 267.497,246.16 264.5,241.5C 263.866,238.357 262.2,235.857 259.5,234C 268.547,231.262 277.547,228.428 286.5,225.5C 290.384,226.725 294.051,228.392 297.5,230.5 Z M 227.5,226.5 C 237.4,230.731 244.733,237.731 249.5,247.5C 249.291,248.086 248.957,248.586 248.5,249C 238.564,245.24 231.231,238.407 226.5,228.5C 226.863,227.817 227.196,227.15 227.5,226.5 Z M 198.5,227.5 C 199.995,227.415 200.995,228.081 201.5,229.5C 196.769,239.407 189.436,246.24 179.5,250C 179.043,249.586 178.709,249.086 178.5,248.5C 183.165,239.503 189.832,232.503 198.5,227.5 Z M 213.5,232.5 C 215.61,233.453 216.777,235.119 217,237.5C 217.377,241.019 217.877,244.519 218.5,248C 215.5,268.667 212.5,268.667 209.5,248C 209.744,242.452 211.077,237.286 213.5,232.5 Z M 164.5,330.5 C 163.769,311.998 165.103,293.664 168.5,275.5C 176.78,270.02 185.447,265.02 194.5,260.5C 197.498,269.161 200.498,277.828 203.5,286.5C 193.766,303.74 181.266,318.74 166,331.5C 165.617,330.944 165.117,330.611 164.5,330.5 Z M 240.5,263.5 C 243.247,266.207 246.58,267.873 250.5,268.5C 252.676,270.515 255.176,272.182 258,273.5C 263.096,292.835 264.763,312.501 263,332.5C 256.997,327.329 251.163,321.996 245.5,316.5C 244.243,313.573 242.243,311.239 239.5,309.5C 235.075,302.98 230.408,296.647 225.5,290.5C 225.337,288.143 225.503,285.81 226,283.5C 229.259,276.131 231.425,268.465 232.5,260.5C 235.14,261.448 237.807,262.448 240.5,263.5 Z M 137.5,351.5 C 132.32,353.264 127.32,355.264 122.5,357.5C 118.603,358.055 114.937,359.055 111.5,360.5C 88.5484,365.868 73.5484,357.535 66.5,335.5C 66.8715,315.885 72.2048,297.718 82.5,281C 104.571,282.187 126.571,281.353 148.5,278.5C 145.002,299.949 144.668,321.449 147.5,343C 147.415,344.107 147.081,345.107 146.5,346C 143.328,347.697 140.328,349.53 137.5,351.5 Z M 293.5,279.5 C 296.641,280.321 299.975,280.821 303.5,281C 317.549,281.34 331.549,281.506 345.5,281.5C 355.898,298.024 361.231,316.024 361.5,335.5C 359.012,348.496 351.345,356.996 338.5,361C 331.118,361.747 323.785,361.414 316.5,360C 308.307,357.991 300.307,355.491 292.5,352.5C 289.067,349.941 285.401,347.608 281.5,345.5C 281.167,344.5 280.833,343.5 280.5,342.5C 282.244,321.073 281.577,299.74 278.5,278.5C 283.463,279.254 288.463,279.587 293.5,279.5 Z M 224.5,318.5 C 231.126,328.126 239.126,336.46 248.5,343.5C 252.196,347.339 255.863,351.172 259.5,355C 257.19,364.108 254.19,372.941 250.5,381.5C 248,384.494 246,387.827 244.5,391.5C 240.03,396.802 235.03,401.636 229.5,406C 225.947,408.121 222.28,409.621 218.5,410.5C 215.167,410.5 211.833,410.5 208.5,410.5C 204.792,409.037 201.126,407.37 197.5,405.5C 196.421,403.457 194.754,402.124 192.5,401.5C 190.883,398.216 188.55,395.549 185.5,393.5C 180.64,385.78 176.307,377.78 172.5,369.5C 171.739,365.216 170.405,361.216 168.5,357.5C 168.343,356.127 168.51,354.793 169,353.5C 186.482,340.195 201.482,324.528 214,306.5C 217.365,310.693 220.865,314.693 224.5,318.5 Z" />
    </g>
    <g>
        <path style="opacity:0.047" fill="#060606"
            d="M 240.5,8.5 C 247.833,12.5 253.5,18.1667 257.5,25.5C 252.167,19.5 246.5,13.8333 240.5,8.5 Z" />
    </g>
    <g>
        <path style="opacity:0.045" fill="#080808"
            d="M 225.5,19.5 C 213.651,15.7249 202.984,17.8915 193.5,26C 190.665,30.0011 187.332,33.5011 183.5,36.5C 190.02,24.652 200.02,17.9853 213.5,16.5C 217.931,16.2741 221.931,17.2741 225.5,19.5 Z" />
    </g>
    <g>
        <path style="opacity:0.037" fill="#090909"
            d="M 225.5,19.5 C 236.132,24.1321 243.799,31.7988 248.5,42.5C 242.5,33.1667 234.833,25.5 225.5,19.5 Z" />
    </g>
    <g>
        <path style="opacity:0.169" fill="#0c0c0c"
            d="M 199.5,2.5 C 181.331,12.1211 168.164,26.4545 160,45.5C 157.679,52.1399 155.179,58.6399 152.5,65C 151.5,65.6667 150.5,65.6667 149.5,65C 131.486,55.0534 112.153,49.8868 91.5,49.5C 106.196,47.9789 120.53,50.1456 134.5,56C 140.414,58.802 146.414,61.302 152.5,63.5C 157.532,41.5815 168.532,23.4149 185.5,9C 189.808,6.01176 194.475,3.84509 199.5,2.5 Z" />
    </g>
    <g>
        <path style="opacity:0.025" fill="#0a0a0a"
            d="M 257.5,25.5 C 263.897,32.2883 268.23,40.2883 270.5,49.5C 266.708,41.2518 262.374,33.2518 257.5,25.5 Z" />
    </g>
    <g>
        <path style="opacity:0.12" fill="#070707"
            d="M 337.5,49.5 C 328.098,49.582 318.764,50.4154 309.5,52C 298.563,55.479 287.896,59.6456 277.5,64.5C 274.7,63.5879 273.367,61.5879 273.5,58.5C 274.584,60.3186 275.918,61.9853 277.5,63.5C 296.204,52.3568 316.204,47.6902 337.5,49.5 Z" />
    </g>
    <g>
        <path style="opacity:0.161" fill="#090909"
            d="M 337.5,49.5 C 346.575,49.1863 354.241,52.1863 360.5,58.5C 353.332,54.1127 345.665,51.1127 337.5,49.5 Z" />
    </g>
    <g>
        <path style="opacity:0.141" fill="#0b0b0b"
            d="M 183.5,36.5 C 177.064,46.7135 172.231,57.7135 169,69.5C 168.297,71.9291 168.463,74.2625 169.5,76.5C 167.748,76.5824 166.748,75.7491 166.5,74C 169.204,60.0131 174.871,47.5131 183.5,36.5 Z" />
    </g>
    <g>
        <path style="opacity:0.025" fill="#050505"
            d="M 270.5,49.5 C 272.472,52.0836 273.472,55.0836 273.5,58.5C 271.928,55.7846 270.928,52.7846 270.5,49.5 Z" />
    </g>
    <g>
        <path style="opacity:0.058" fill="#060505"
            d="M 360.5,58.5 C 364.5,60.5 367.5,63.5 369.5,67.5C 366.167,64.8333 363.167,61.8333 360.5,58.5 Z" />
    </g>
    <g>
        <path style="opacity:0.059" fill="#090909"
            d="M 91.5,49.5 C 73.6717,52.6602 60.6717,62.3269 52.5,78.5C 56.8237,66.0062 65.157,57.1729 77.5,52C 82.0004,50.2079 86.6671,49.3746 91.5,49.5 Z" />
    </g>
    <g>
        <path style="opacity:0.162" fill="#0a0a0a"
            d="M 116.5,68.5 C 108.886,67.0896 101.22,66.5896 93.5,67C 87.645,67.4329 82.3116,69.2663 77.5,72.5C 80.9588,68.7705 85.2921,66.6038 90.5,66C 96.5,65.3333 102.5,65.3333 108.5,66C 111.457,66.2794 114.123,67.1127 116.5,68.5 Z" />
    </g>
    <g>
        <path style="opacity:0.037" fill="#080808"
            d="M 369.5,67.5 C 375.216,73.6315 378.216,80.9649 378.5,89.5C 376.649,81.7838 373.649,74.4505 369.5,67.5 Z" />
    </g>
    <g>
        <path style="opacity:0.059" fill="#0a0a0a"
            d="M 77.5,72.5 C 76.5,74.1667 75.1667,75.5 73.5,76.5C 73.8333,74.1667 75.1667,72.8333 77.5,72.5 Z" />
    </g>
    <g>
        <path style="opacity:0.247" fill="#090909"
            d="M 351.5,138.5 C 353.557,132.497 355.724,126.497 358,120.5C 360.004,113.471 361.171,106.305 361.5,99C 361.774,84.537 355.441,74.2037 342.5,68C 320.305,64.8962 299.972,69.7295 281.5,82.5C 281.473,97.4608 281.307,112.461 281,127.5C 280.75,134.59 279.917,141.59 278.5,148.5C 282.792,149.274 287.125,149.274 291.5,148.5C 290.737,149.268 289.737,149.768 288.5,150C 284.848,150.499 281.182,150.665 277.5,150.5C 280.136,127.566 280.969,104.566 280,81.5C 299.166,68.0843 320.333,63.2509 343.5,67C 353.734,71.5736 359.9,79.4069 362,90.5C 363.516,107.753 360.016,123.753 351.5,138.5 Z" />
    </g>
    <g>
        <path style="opacity:0.049" fill="#050505"
            d="M 73.5,76.5 C 70.8126,81.2148 68.6459,86.2148 67,91.5C 66.5006,96.8229 66.334,102.156 66.5,107.5C 64.1758,97.3724 65.6758,87.7058 71,78.5C 71.7083,77.6195 72.5416,76.9528 73.5,76.5 Z" />
    </g>
    <g>
        <path style="opacity:0.184" fill="#0c0c0c"
            d="M 169.5,76.5 C 175.101,79.4356 179.767,83.4356 183.5,88.5C 178.508,84.8385 173.841,80.8385 169.5,76.5 Z" />
    </g>
    <g>
        <path style="opacity:0.306" fill="#0c0c0b"
            d="M 248.5,42.5 C 251.324,44.7996 253.157,47.7996 254,51.5C 256.055,57.9422 258.388,64.2755 261,70.5C 261.667,72.1667 261.667,73.8333 261,75.5C 243.775,89.7258 228.608,105.892 215.5,124C 213.255,123.805 211.422,122.638 210,120.5C 207.146,116.11 204.313,111.776 201.5,107.5C 206.125,112.06 210.291,117.06 214,122.5C 227.257,104.575 242.59,88.5748 260,74.5C 257.087,63.6007 253.254,52.934 248.5,42.5 Z" />
    </g>
    <g>
        <path style="opacity:0.015" fill="#0a0a0a"
            d="M 52.5,78.5 C 49.9652,93.1485 49.9652,107.815 52.5,122.5C 48.7118,110.142 47.8785,97.4758 50,84.5C 50.2401,82.1484 51.0735,80.1484 52.5,78.5 Z" />
    </g>
    <g>
        <path style="opacity:0.049" fill="#070707"
            d="M 183.5,88.5 C 188.188,91.188 191.855,94.8547 194.5,99.5C 190.425,96.0915 186.758,92.4248 183.5,88.5 Z" />
    </g>
    <g>
        <path style="opacity:0.118" fill="#060606"
            d="M 256.5,157.5 C 257.927,154.976 259.094,152.31 260,149.5C 263.258,132.28 264.091,114.947 262.5,97.5C 260.132,98.8889 257.799,100.222 255.5,101.5C 257.435,97.8973 260.435,95.8973 264.5,95.5C 265.49,115.055 263.99,134.388 260,153.5C 259.502,155.544 258.335,156.878 256.5,157.5 Z" />
    </g>
    <g>
        <path style="opacity:0.275" fill="#0a0a0a"
            d="M 194.5,99.5 C 197.573,101.569 199.906,104.236 201.5,107.5C 198.427,105.431 196.094,102.764 194.5,99.5 Z" />
    </g>
    <g>
        <path style="opacity:0.034" fill="#060606"
            d="M 66.5,107.5 C 68.8695,114.289 70.8695,121.289 72.5,128.5C 69.1237,122.01 67.1237,115.01 66.5,107.5 Z" />
    </g>
    <g>
        <path style="opacity:0.02" fill="#070707"
            d="M 255.5,101.5 C 246.845,110.663 238.679,120.33 231,130.5C 228.579,134.34 226.412,138.34 224.5,142.5C 225.577,144.729 226.244,147.063 226.5,149.5C 224.939,147.509 223.939,145.176 223.5,142.5C 228.243,131.345 234.743,121.345 243,112.5C 246.761,108.23 250.928,104.563 255.5,101.5 Z" />
    </g>
    <g>
        <path style="opacity:0.231" fill="#0a0a0a"
            d="M 378.5,90.5 C 379.894,100.43 379.394,110.43 377,120.5C 373.946,131.276 369.779,141.609 364.5,151.5C 369.848,153.273 374.848,155.607 379.5,158.5C 374.752,157.295 370.085,155.795 365.5,154C 364.09,153.632 363.09,152.799 362.5,151.5C 373.913,132.773 379.246,112.439 378.5,90.5 Z" />
    </g>
    <g>
        <path style="opacity:0.051" fill="#080808"
            d="M 187.5,117.5 C 192.584,121.931 196.584,127.264 199.5,133.5C 195.122,128.455 191.122,123.122 187.5,117.5 Z" />
    </g>
    <g>
        <path style="opacity:0.037" fill="#040404"
            d="M 72.5,128.5 C 73.9313,129.78 74.5979,131.447 74.5,133.5C 73.0687,132.22 72.4021,130.553 72.5,128.5 Z" />
    </g>
    <g>
        <path style="opacity:0.032" fill="#0b0b0b"
            d="M 187.5,117.5 C 180.161,110.494 172.827,103.494 165.5,96.5C 163.571,115.348 164.571,134.015 168.5,152.5C 167.778,152.082 167.278,151.416 167,150.5C 162.971,132.051 161.471,113.385 162.5,94.5C 163.873,94.3433 165.207,94.51 166.5,95C 168.871,97.706 171.537,100.039 174.5,102C 177,105.833 180.167,109 184,111.5C 185.421,113.405 186.588,115.405 187.5,117.5 Z" />
    </g>
    <g>
        <path style="opacity:0.03" fill="#0b0b0b"
            d="M 116.5,68.5 C 127.362,71.096 137.695,75.096 147.5,80.5C 147.563,97.4701 147.73,114.47 148,131.5C 149.442,138.096 150.276,144.763 150.5,151.5C 145.965,150.863 141.632,149.863 137.5,148.5C 141.179,148.724 144.846,149.058 148.5,149.5C 147.051,137.048 146.051,124.548 145.5,112C 146.169,102.145 146.669,92.3115 147,82.5C 137.176,76.8342 127.01,72.1675 116.5,68.5 Z" />
    </g>
    <g>
        <path style="opacity:0.149" fill="#0a0a0a"
            d="M 74.5,133.5 C 76.6744,136.515 78.3411,139.849 79.5,143.5C 76.7933,140.753 75.1266,137.42 74.5,133.5 Z" />
    </g>
    <g>
        <path style="opacity:0.039" fill="#080808"
            d="M 199.5,133.5 C 202.322,135.642 203.988,138.475 204.5,142C 201.526,151.086 198.86,160.253 196.5,169.5C 192.58,168.873 189.247,167.207 186.5,164.5C 189.508,165.42 192.341,166.754 195,168.5C 197.535,159.729 200.368,151.062 203.5,142.5C 202.415,139.335 201.082,136.335 199.5,133.5 Z" />
    </g>
    <g>
        <path style="opacity:0.118" fill="#0a0a0a"
            d="M 52.5,122.5 C 55.453,131.419 59.2864,140.086 64,148.5C 65.1046,152.504 63.6046,154.504 59.5,154.5C 60.7653,153.521 62.0986,152.521 63.5,151.5C 61.2733,146.046 58.7733,140.713 56,135.5C 54.3158,131.284 53.1491,126.951 52.5,122.5 Z" />
    </g>
    <g>
        <path style="opacity:0.227" fill="#090909"
            d="M 79.5,143.5 C 80.8366,144.315 81.8366,145.482 82.5,147C 92.1566,147.069 101.823,146.902 111.5,146.5C 120.383,146.342 129.05,147.009 137.5,148.5C 118.834,147.403 100.167,147.236 81.5,148C 80.4178,146.67 79.7512,145.17 79.5,143.5 Z" />
    </g>
    <g>
        <path style="opacity:0.304" fill="#080808"
            d="M 329.5,147.5 C 316.831,147.767 304.164,148.1 291.5,148.5C 304.14,146.602 316.806,146.269 329.5,147.5 Z" />
    </g>
    <g>
        <path style="opacity:0.065" fill="#040404"
            d="M 351.5,138.5 C 350.476,141.555 349.143,144.555 347.5,147.5C 341.346,148.817 335.346,148.817 329.5,147.5C 335.206,147.829 340.872,147.495 346.5,146.5C 347.691,143.432 349.358,140.765 351.5,138.5 Z" />
    </g>
    <g>
        <path style="opacity:0.027" fill="#050505"
            d="M 226.5,149.5 C 227.931,150.78 228.598,152.447 228.5,154.5C 227.069,153.22 226.402,151.553 226.5,149.5 Z" />
    </g>
    <g>
        <path style="opacity:0.114" fill="#0b0b0b"
            d="M 59.5,154.5 C 52.403,157.871 45.0696,160.871 37.5,163.5C 44.2861,159.344 51.6194,156.344 59.5,154.5 Z" />
    </g>
    <g>
        <path style="opacity:0.145" fill="#0a0a0a"
            d="M 168.5,152.5 C 170.304,154.467 172.304,156.301 174.5,158C 179.01,159.418 183.01,161.585 186.5,164.5C 180.583,162.694 175.083,160.028 170,156.5C 169.209,155.255 168.709,153.922 168.5,152.5 Z" />
    </g>
    <g>
        <path style="opacity:0.037" fill="#050505"
            d="M 379.5,158.5 C 385.192,159.514 390.192,161.848 394.5,165.5C 389.311,163.403 384.311,161.07 379.5,158.5 Z" />
    </g>
    <g>
        <path style="opacity:0.045" fill="#090909"
            d="M 228.5,154.5 C 230.595,158.846 232.095,163.513 233,168.5C 240.267,163.617 248.1,159.95 256.5,157.5C 250.675,160.183 245.008,163.35 239.5,167C 236.904,168.136 234.237,168.969 231.5,169.5C 230.628,164.473 229.628,159.473 228.5,154.5 Z" />
    </g>
    <g>
        <path style="opacity:0.043" fill="#080808"
            d="M 167.5,192.5 C 165.549,191.284 164.049,189.618 163,187.5C 160.487,180.973 157.32,174.807 153.5,169C 134.695,164.817 115.695,163.65 96.5,165.5C 102.819,173.153 109.486,180.486 116.5,187.5C 109.59,182.096 103.09,176.096 97,169.5C 95.4412,167.783 94.6079,165.783 94.5,163.5C 105.172,163.333 115.839,163.5 126.5,164C 135.997,164.314 145.331,165.647 154.5,168C 159.241,175.983 163.574,184.149 167.5,192.5 Z" />
    </g>
    <g>
        <path style="opacity:0.051" fill="#040404"
            d="M 394.5,165.5 C 396.674,165.75 398.341,166.75 399.5,168.5C 397.326,168.25 395.659,167.25 394.5,165.5 Z" />
    </g>
    <g>
        <path style="opacity:0.008" fill="#090909"
            d="M 317.5,182.5 C 322.584,177.241 327.584,171.741 332.5,166C 313.688,163.53 295.021,164.53 276.5,169C 274.714,169.785 273.214,170.951 272,172.5C 268.467,180.403 264.301,187.903 259.5,195C 263.991,196.363 268.324,197.863 272.5,199.5C 269.478,199.196 266.478,198.696 263.5,198C 261.349,197.735 259.682,196.735 258.5,195C 263.146,187.542 267.146,179.708 270.5,171.5C 271.981,170.52 273.315,169.353 274.5,168C 293.802,163.533 313.302,162.367 333,164.5C 333.5,164.833 334,165.167 334.5,165.5C 329.791,172.209 324.124,177.876 317.5,182.5 Z" />
    </g>
    <g>
        <path style="opacity:0.024" fill="#070707"
            d="M 365.5,170.5 C 361.904,169.801 358.404,168.801 355,167.5C 352.048,171.099 348.882,174.433 345.5,177.5C 347.441,173.799 349.774,170.299 352.5,167C 357.293,166.656 361.626,167.823 365.5,170.5 Z" />
    </g>
    <g>
        <path style="opacity:0.247" fill="#0a0a0a"
            d="M 37.5,163.5 C 31.6791,167.804 25.6791,171.97 19.5,176C 13.9843,180.922 9.31762,186.422 5.5,192.5C 8.21503,185.615 12.5484,179.782 18.5,175C 24.224,170.139 30.5573,166.306 37.5,163.5 Z" />
    </g>
    <g>
        <path style="opacity:0.196" fill="#090909"
            d="M 399.5,168.5 C 404.043,170.372 407.71,173.372 410.5,177.5C 406.537,174.871 402.871,171.871 399.5,168.5 Z" />
    </g>
    <g>
        <path style="opacity:0.051" fill="#0a0a0a"
            d="M 365.5,170.5 C 376.466,173.149 386.133,178.149 394.5,185.5C 385.234,179.7 375.567,174.7 365.5,170.5 Z" />
    </g>
    <g>
        <path style="opacity:0.196" fill="#090909"
            d="M 103.5,198.5 C 92.6906,189.857 83.0239,180.023 74.5,169C 73.6667,168.833 72.8333,168.667 72,168.5C 57.249,172.458 43.749,178.791 31.5,187.5C 34.2044,183.973 37.5377,181.14 41.5,179C 49.6847,174.242 58.3514,170.576 67.5,168C 70.1667,167.333 72.8333,167.333 75.5,168C 84.3027,178.637 93.636,188.803 103.5,198.5 Z" />
    </g>
    <g>
        <path style="opacity:0.024" fill="#060606"
            d="M 345.5,177.5 C 343.234,181.436 340.234,184.769 336.5,187.5C 338.766,183.564 341.766,180.231 345.5,177.5 Z" />
    </g>
    <g>
        <path style="opacity:0.2" fill="#0d0d0d"
            d="M 410.5,177.5 C 414.957,180.619 418.291,184.619 420.5,189.5C 416.797,185.798 413.463,181.798 410.5,177.5 Z" />
    </g>
    <g>
        <path style="opacity:0.455" fill="#0e0e0e"
            d="M 394.5,185.5 C 398.167,187.167 400.833,189.833 402.5,193.5C 399.5,191.167 396.833,188.5 394.5,185.5 Z" />
    </g>
    <g>
        <path style="opacity:0.004" fill="#050505"
            d="M 116.5,187.5 C 118.749,188.08 120.415,189.413 121.5,191.5C 119.251,190.92 117.585,189.587 116.5,187.5 Z" />
    </g>
    <g>
        <path style="opacity:0.058" fill="#090909"
            d="M 317.5,182.5 C 310.487,190.179 302.487,196.679 293.5,202C 291.975,203.009 290.308,203.509 288.5,203.5C 298.441,196.894 308.108,189.894 317.5,182.5 Z" />
    </g>
    <g>
        <path style="opacity:0.102" fill="#0e0e0e"
            d="M 336.5,187.5 C 336.043,189.773 334.71,191.106 332.5,191.5C 332.833,189.167 334.167,187.833 336.5,187.5 Z" />
    </g>
    <g>
        <path style="opacity:0.051" fill="#060606"
            d="M 420.5,189.5 C 424.404,193.655 426.404,198.655 426.5,204.5C 424.824,199.465 422.824,194.465 420.5,189.5 Z" />
    </g>
    <g>
        <path style="opacity:0.051" fill="#040404"
            d="M 402.5,193.5 C 404.262,194.262 405.262,195.596 405.5,197.5C 403.738,196.738 402.738,195.404 402.5,193.5 Z" />
    </g>
    <g>
        <path style="opacity:0.804" fill="#1e1e1e"
            d="M 243.5,190.5 C 242.5,193.5 240.5,195.5 237.5,196.5C 239.167,194.167 241.167,192.167 243.5,190.5 Z" />
    </g>
    <g>
        <path style="opacity:0.022" fill="#090909"
            d="M 272.5,199.5 C 277.828,200.829 283.161,202.162 288.5,203.5C 287.054,204.613 285.387,204.78 283.5,204C 279.532,202.962 275.865,201.462 272.5,199.5 Z" />
    </g>
    <g>
        <path style="opacity:0.251" fill="#080808"
            d="M 103.5,198.5 C 106.089,199.419 108.089,201.086 109.5,203.5C 106.911,202.581 104.911,200.914 103.5,198.5 Z" />
    </g>
    <g>
        <path style="opacity:0.025" fill="#070707"
            d="M 31.5,187.5 C 28.502,190.667 25.6686,194 23,197.5C 16.2691,207.899 15.7691,218.566 21.5,229.5C 19.8639,228.251 18.6972,226.584 18,224.5C 14.1352,208.931 18.6352,196.598 31.5,187.5 Z" />
    </g>
    <g>
        <path style="opacity:0.064" fill="#080808"
            d="M 332.5,191.5 C 330.038,194.464 327.371,197.297 324.5,200C 319.949,203.434 315.282,206.601 310.5,209.5C 317.537,203.129 324.871,197.129 332.5,191.5 Z" />
    </g>
    <g>
        <path style="opacity:0.212" fill="#0e0e0e"
            d="M 121.5,191.5 C 127.916,196.128 134.749,200.128 142,203.5C 150.772,200.465 159.605,197.632 168.5,195C 167.748,194.329 167.414,193.496 167.5,192.5C 169.104,193.287 169.771,194.62 169.5,196.5C 160.371,199.265 151.204,201.932 142,204.5C 133.995,201.991 127.162,197.658 121.5,191.5 Z" />
    </g>
    <g>
        <path style="opacity:0.318" fill="#0b0b0b"
            d="M 109.5,203.5 C 111.404,203.738 112.738,204.738 113.5,206.5C 111.596,206.262 110.262,205.262 109.5,203.5 Z" />
    </g>
    <g>
        <path style="opacity:0.204" fill="#0c0c0c"
            d="M 310.5,209.5 C 309.284,211.451 307.618,212.951 305.5,214C 306.71,215.039 307.71,216.206 308.5,217.5C 302.351,215.873 302.018,213.373 307.5,210C 308.448,209.517 309.448,209.351 310.5,209.5 Z" />
    </g>
    <g>
        <path style="opacity:0.06" fill="#070707"
            d="M 308.5,217.5 C 313.224,219.529 317.224,222.529 320.5,226.5C 316.134,223.984 312.134,220.984 308.5,217.5 Z" />
    </g>
    <g>
        <path style="opacity:0.149" fill="#0c0c0d"
            d="M 113.5,206.5 C 116.926,208.076 120.26,209.909 123.5,212C 124.517,213.049 124.684,214.216 124,215.5C 114.857,221.982 106.024,228.815 97.5,236C 90.1667,244 82.8333,252 75.5,260C 73.2884,260.789 71.2884,260.622 69.5,259.5C 71.1992,259.66 72.8659,259.494 74.5,259C 81.8616,250.974 89.1949,242.974 96.5,235C 104.736,227.595 113.402,220.762 122.5,214.5C 119.48,211.811 116.48,209.144 113.5,206.5 Z" />
    </g>
    <g>
        <path style="opacity:0.033" fill="#060606"
            d="M 426.5,204.5 C 429.153,217.075 427.319,229.075 421,240.5C 420.292,241.381 419.458,242.047 418.5,242.5C 425.859,230.915 428.526,218.249 426.5,204.5 Z" />
    </g>
    <g>
        <path style="opacity:0.055" fill="#0f0f0f"
            d="M 152.5,227.5 C 155.228,227.171 157.562,227.837 159.5,229.5C 156.848,229.59 154.515,228.924 152.5,227.5 Z" />
    </g>
    <g>
        <path style="opacity:0.031" fill="#070707"
            d="M 297.5,230.5 C 294.051,228.392 290.384,226.725 286.5,225.5C 277.547,228.428 268.547,231.262 259.5,234C 262.2,235.857 263.866,238.357 264.5,241.5C 262.35,239.177 260.35,236.677 258.5,234C 258.905,233.055 259.572,232.388 260.5,232C 269.096,229.689 277.596,227.189 286,224.5C 290.894,224.58 294.727,226.58 297.5,230.5 Z" />
    </g>
    <g>
        <path style="opacity:0.086" fill="#080808"
            d="M 152.5,227.5 C 148.238,226.242 143.904,225.742 139.5,226C 134.444,229.188 129.444,232.355 124.5,235.5C 128.562,231.291 133.228,227.791 138.5,225C 143.588,224.048 148.255,224.881 152.5,227.5 Z" />
    </g>
    <g>
        <path style="opacity:0.05" fill="#090909"
            d="M 159.5,229.5 C 163.351,229.455 166.684,230.621 169.5,233C 169.361,234.301 168.695,235.134 167.5,235.5C 167.719,234.325 167.386,233.325 166.5,232.5C 163.984,231.67 161.65,230.67 159.5,229.5 Z" />
    </g>
    <g>
        <path style="opacity:0.049" fill="#070707"
            d="M 297.5,230.5 C 300.37,231.433 302.704,233.1 304.5,235.5C 301.63,234.567 299.296,232.9 297.5,230.5 Z" />
    </g>
    <g>
        <path style="opacity:0.153" fill="#070707"
            d="M 320.5,226.5 C 322.932,227.75 325.266,229.25 327.5,231C 334.808,237.464 341.141,244.631 346.5,252.5C 338.167,243.5 329.5,234.833 320.5,226.5 Z" />
    </g>
    <g>
        <path style="opacity:0.125" fill="#090909"
            d="M 4.5,194.5 C 0.569768,204.902 -0.263565,215.569 2,226.5C 6.17676,236.85 12.3434,245.85 20.5,253.5C 10.05,245.94 3.05001,235.94 -0.5,223.5C -0.5,217.5 -0.5,211.5 -0.5,205.5C 0.58272,201.592 2.24939,197.926 4.5,194.5 Z" />
    </g>
    <g>
        <path style="opacity:0.071" fill="#0a0a0a"
            d="M 405.5,197.5 C 413.618,209.467 413.452,221.467 405,233.5C 401.806,236.694 398.64,239.86 395.5,243C 394.255,243.791 392.922,244.291 391.5,244.5C 395.771,240.731 399.938,236.731 404,232.5C 410.771,221.147 411.271,209.48 405.5,197.5 Z" />
    </g>
    <g>
        <path style="opacity:0.212" fill="#080808"
            d="M 21.5,229.5 C 28.4975,238.155 36.8308,245.155 46.5,250.5C 35.609,246.553 27.2757,239.553 21.5,229.5 Z" />
    </g>
    <g>
        <path style="opacity:0.11" fill="#070707"
            d="M 391.5,244.5 C 389.371,246.95 386.704,248.617 383.5,249.5C 385.629,247.05 388.296,245.383 391.5,244.5 Z" />
    </g>
    <g>
        <path style="opacity:0.075" fill="#080808"
            d="M 418.5,242.5 C 417.243,245.427 415.243,247.761 412.5,249.5C 413.757,246.573 415.757,244.239 418.5,242.5 Z" />
    </g>
    <g>
        <path style="opacity:0.041" fill="#090909"
            d="M 46.5,250.5 C 54.1633,253.717 61.83,256.717 69.5,259.5C 60.94,258.458 53.2734,255.458 46.5,250.5 Z" />
    </g>
    <g>
        <path style="opacity:0.067" fill="#090909"
            d="M 20.5,253.5 C 24.7066,255.435 28.3733,258.102 31.5,261.5C 26.9391,260.054 23.2724,257.387 20.5,253.5 Z" />
    </g>
    <g>
        <path style="opacity:0.133" fill="#0b0b0b"
            d="M 304.5,235.5 C 316.044,243.039 326.044,252.372 334.5,263.5C 331.232,264.487 327.898,264.82 324.5,264.5C 326.969,263.683 329.635,263.183 332.5,263C 323.298,253.631 313.965,244.464 304.5,235.5 Z" />
    </g>
    <g>
        <path style="opacity:0.055" fill="#080808"
            d="M 383.5,249.5 C 379.309,252.764 374.643,255.264 369.5,257C 365.054,258.403 360.554,259.57 356,260.5C 351.163,259.83 347.996,257.164 346.5,252.5C 348.963,254.461 351.297,256.628 353.5,259C 354.333,259.167 355.167,259.333 356,259.5C 365.368,256.656 374.535,253.322 383.5,249.5 Z" />
    </g>
    <g>
        <path style="opacity:0.184" fill="#0d0d0d"
            d="M 31.5,261.5 C 35.651,262.66 39.3177,264.66 42.5,267.5C 40.6916,267.509 39.0249,267.009 37.5,266C 35.2528,264.723 33.2528,263.223 31.5,261.5 Z" />
    </g>
    <g>
        <path style="opacity:0.217" fill="#080808"
            d="M 264.5,241.5 C 267.497,246.16 269.997,251.16 272,256.5C 272.903,257.701 274.069,258.535 275.5,259C 291.323,262.284 307.323,264.117 323.5,264.5C 307.13,265.269 290.796,263.769 274.5,260C 273.069,259.535 271.903,258.701 271,257.5C 268.538,252.248 266.371,246.915 264.5,241.5 Z" />
    </g>
    <g>
        <path style="opacity:0.175" fill="#080808"
            d="M 124.5,235.5 C 114.58,243.751 105.247,252.751 96.5,262.5C 101.068,263.819 105.735,264.486 110.5,264.5C 121.901,263.969 133.234,262.803 144.5,261C 148.019,260.605 151.352,259.605 154.5,258C 158.128,251.245 161.628,244.412 165,237.5C 165.708,236.619 166.542,235.953 167.5,235.5C 163.654,243.358 159.654,251.191 155.5,259C 152.352,260.605 149.019,261.605 145.5,262C 128.21,265.396 110.877,265.896 93.5,263.5C 102.601,252.728 112.935,243.395 124.5,235.5 Z" />
    </g>
    <g>
        <path style="opacity:0.025" fill="#080808"
            d="M 240.5,263.5 C 244.251,264.412 247.584,266.078 250.5,268.5C 246.58,267.873 243.247,266.207 240.5,263.5 Z" />
    </g>
    <g>
        <path style="opacity:0.035" fill="#040404"
            d="M 42.5,267.5 C 44.5529,267.402 46.2196,268.069 47.5,269.5C 45.4471,269.598 43.7804,268.931 42.5,267.5 Z" />
    </g>
    <g>
        <path style="opacity:0.038" fill="#080808"
            d="M 240.5,263.5 C 237.807,262.448 235.14,261.448 232.5,260.5C 231.425,268.465 229.259,276.131 226,283.5C 225.503,285.81 225.337,288.143 225.5,290.5C 224.366,288.034 224.199,285.367 225,282.5C 228.089,274.735 230.256,266.735 231.5,258.5C 235.244,258.928 238.244,260.595 240.5,263.5 Z" />
    </g>
    <g>
        <path style="opacity:0.027" fill="#0c0c0c"
            d="M 250.5,268.5 C 255.396,269.362 258.896,272.028 261,276.5C 264.756,295.343 265.923,314.343 264.5,333.5C 262.217,333.392 260.217,332.559 258.5,331C 253.566,326.574 249.233,321.74 245.5,316.5C 251.163,321.996 256.997,327.329 263,332.5C 264.763,312.501 263.096,292.835 258,273.5C 255.176,272.182 252.676,270.515 250.5,268.5 Z" />
    </g>
    <g>
        <path style="opacity:0.145" fill="#0a0a0a"
            d="M 412.5,249.5 C 407.267,255.228 401.267,260.061 394.5,264C 384.657,268.666 374.657,272.833 364.5,276.5C 366.076,278.979 367.076,281.646 367.5,284.5C 366.024,282.231 364.524,279.898 363,277.5C 362.251,276.365 362.417,275.365 363.5,274.5C 373.061,271.481 382.394,267.981 391.5,264C 398.949,259.701 405.949,254.868 412.5,249.5 Z" />
    </g>
    <g>
        <path style="opacity:0.051" fill="#0b0b0b"
            d="M 137.5,351.5 C 140.328,349.53 143.328,347.697 146.5,346C 147.081,345.107 147.415,344.107 147.5,343C 144.668,321.449 145.002,299.949 148.5,278.5C 126.571,281.353 104.571,282.187 82.5,281C 72.2048,297.718 66.8715,315.885 66.5,335.5C 65.3483,330.015 65.1816,324.349 66,318.5C 67.2532,312.738 68.9199,307.071 71,301.5C 74.0864,294.055 77.253,286.722 80.5,279.5C 89.8304,279.833 99.1637,280.166 108.5,280.5C 122.539,279.896 136.539,278.896 150.5,277.5C 149.571,282.464 148.737,287.464 148,292.5C 147.708,310.863 147.541,329.197 147.5,347.5C 144.36,349.406 141.027,350.74 137.5,351.5 Z" />
    </g>
    <g>
        <path style="opacity:0.051" fill="#0d0d0d"
            d="M 367.5,284.5 C 369.293,286.426 370.293,288.759 370.5,291.5C 368.182,289.815 367.182,287.481 367.5,284.5 Z" />
    </g>
    <g>
        <path style="opacity:0.039" fill="#080808"
            d="M 225.5,290.5 C 230.408,296.647 235.075,302.98 239.5,309.5C 233.628,304.103 228.961,297.77 225.5,290.5 Z" />
    </g>
    <g>
        <path style="opacity:0.205" fill="#0b0b0b"
            d="M 168.5,275.5 C 165.103,293.664 163.769,311.998 164.5,330.5C 163.341,319.341 163.174,308.008 164,296.5C 164.565,289.168 166.065,282.168 168.5,275.5 Z" />
    </g>
    <g>
        <path style="opacity:0.106" fill="#090909"
            d="M 293.5,279.5 C 311.172,280.624 328.839,280.791 346.5,280C 353.474,292.114 358.641,304.947 362,318.5C 362.818,324.349 362.652,330.015 361.5,335.5C 361.231,316.024 355.898,298.024 345.5,281.5C 331.549,281.506 317.549,281.34 303.5,281C 299.975,280.821 296.641,280.321 293.5,279.5 Z" />
    </g>
    <g>
        <path style="opacity:0.165" fill="#090909"
            d="M 164.5,330.5 C 165.117,330.611 165.617,330.944 166,331.5C 181.266,318.74 193.766,303.74 203.5,286.5C 200.498,277.828 197.498,269.161 194.5,260.5C 185.447,265.02 176.78,270.02 168.5,275.5C 168.859,273.629 169.859,272.129 171.5,271C 179.455,267.356 187.121,263.189 194.5,258.5C 195.086,258.709 195.586,259.043 196,259.5C 198.738,268.547 201.572,277.547 204.5,286.5C 194.878,304.805 181.878,320.472 165.5,333.5C 164.614,332.675 164.281,331.675 164.5,330.5 Z" />
    </g>
    <g>
        <path style="opacity:0.077" fill="#090909"
            d="M 370.5,291.5 C 379.046,308.523 381.546,326.523 378,345.5C 376.529,349.581 374.862,353.581 373,357.5C 372.292,358.381 371.458,359.047 370.5,359.5C 373.245,352.995 375.745,346.328 378,339.5C 378.606,330.472 378.273,321.472 377,312.5C 374.924,305.44 372.757,298.44 370.5,291.5 Z" />
    </g>
    <g>
        <path style="opacity:0.059" fill="#070707"
            d="M 224.5,318.5 C 220.865,314.693 217.365,310.693 214,306.5C 201.482,324.528 186.482,340.195 169,353.5C 168.51,354.793 168.343,356.127 168.5,357.5C 167.387,356.054 167.22,354.387 168,352.5C 185.585,338.67 200.918,322.67 214,304.5C 218.248,308.69 221.748,313.356 224.5,318.5 Z" />
    </g>
    <g>
        <path style="opacity:0.176" fill="#070707"
            d="M 293.5,279.5 C 288.463,279.587 283.463,279.254 278.5,278.5C 281.577,299.74 282.244,321.073 280.5,342.5C 280.833,343.5 281.167,344.5 281.5,345.5C 285.401,347.608 289.067,349.941 292.5,352.5C 287.894,351.447 283.727,349.447 280,346.5C 281.255,323.421 280.422,300.421 277.5,277.5C 283.021,277.782 288.354,278.449 293.5,279.5 Z" />
    </g>
    <g>
        <path style="opacity:0.056" fill="#070707"
            d="M 239.5,309.5 C 242.243,311.239 244.243,313.573 245.5,316.5C 244.504,316.586 243.671,316.252 243,315.5C 241.579,313.595 240.412,311.595 239.5,309.5 Z" />
    </g>
    <g>
        <path style="opacity:0.18" fill="#0a0a0a"
            d="M 224.5,318.5 C 232.528,326.86 240.528,335.193 248.5,343.5C 239.126,336.46 231.126,328.126 224.5,318.5 Z" />
    </g>
    <g>
        <path style="opacity:0.155" fill="#0b0b0b"
            d="M 47.5,269.5 C 53.3421,270.709 59.0088,272.376 64.5,274.5C 61.0293,283.453 57.5293,292.453 54,301.5C 51.7498,310.591 50.2498,319.758 49.5,329C 50.4579,360.124 66.4579,376.624 97.5,378.5C 114.786,377.348 131.119,372.848 146.5,365C 148.447,364.009 150.447,363.675 152.5,364C 155.191,370.405 157.691,376.905 160,383.5C 166.413,397.394 175.246,409.394 186.5,419.5C 178.899,415.067 172.733,409.067 168,401.5C 161.316,389.802 155.483,377.802 150.5,365.5C 133.855,374.078 116.189,378.744 97.5,379.5C 66.424,378.092 49.7573,361.759 47.5,330.5C 48.6474,311.727 53.6474,294.06 62.5,277.5C 62.1667,276.833 61.8333,276.167 61.5,275.5C 56.6504,273.67 51.9837,271.67 47.5,269.5 Z" />
    </g>
    <g>
        <path style="opacity:0.106" fill="#090909"
            d="M 137.5,351.5 C 133.22,355.044 128.22,357.044 122.5,357.5C 127.32,355.264 132.32,353.264 137.5,351.5 Z" />
    </g>
    <g>
        <path style="opacity:0.278" fill="#0a0a0a"
            d="M 122.5,357.5 C 119.237,359.568 115.57,360.568 111.5,360.5C 114.937,359.055 118.603,358.055 122.5,357.5 Z" />
    </g>
    <g>
        <path style="opacity:0.055" fill="#070707"
            d="M 66.5,335.5 C 73.5484,357.535 88.5484,365.868 111.5,360.5C 90.5615,367.279 75.7282,360.612 67,340.5C 66.5065,338.866 66.3398,337.199 66.5,335.5 Z" />
    </g>
    <g>
        <path style="opacity:0.184" fill="#0b0b0b"
            d="M 361.5,335.5 C 359.729,350.446 351.396,359.612 336.5,363C 327.384,363.236 318.384,362.236 309.5,360C 303.406,358.148 297.74,355.648 292.5,352.5C 300.307,355.491 308.307,357.991 316.5,360C 323.785,361.414 331.118,361.747 338.5,361C 351.345,356.996 359.012,348.496 361.5,335.5 Z" />
    </g>
    <g>
        <path style="opacity:0.073" fill="#0b0b0b"
            d="M 168.5,357.5 C 170.405,361.216 171.739,365.216 172.5,369.5C 170.065,365.942 168.732,361.942 168.5,357.5 Z" />
    </g>
    <g>
        <path style="opacity:0.043" fill="#090909"
            d="M 248.5,343.5 C 253.368,346.448 257.701,350.115 261.5,354.5C 259.332,361.172 257.166,367.839 255,374.5C 253.581,376.993 252.081,379.326 250.5,381.5C 254.19,372.941 257.19,364.108 259.5,355C 255.863,351.172 252.196,347.339 248.5,343.5 Z" />
    </g>
    <g>
        <path style="opacity:0.141" fill="#090909"
            d="M 287.5,369.5 C 283.716,368.571 280.049,367.238 276.5,365.5C 271.78,380.273 264.947,393.94 256,406.5C 253.963,408.706 251.797,410.706 249.5,412.5C 260.773,398.517 269.106,382.851 274.5,365.5C 279.397,364.771 283.731,366.104 287.5,369.5 Z" />
    </g>
    <g>
        <path style="opacity:0.145" fill="#0b0b0b"
            d="M 370.5,359.5 C 364.846,369.022 356.513,375.189 345.5,378C 325.033,382.386 305.7,379.553 287.5,369.5C 296.985,372.907 306.652,375.74 316.5,378C 338.081,381.685 356.081,375.518 370.5,359.5 Z" />
    </g>
    <g>
        <path style="opacity:0.049" fill="#080808"
            d="M 172.5,369.5 C 176.307,377.78 180.64,385.78 185.5,393.5C 179.103,386.712 174.77,378.712 172.5,369.5 Z" />
    </g>
    <g>
        <path style="opacity:0.037" fill="#060606"
            d="M 250.5,381.5 C 249.502,385.505 247.502,388.839 244.5,391.5C 246,387.827 248,384.494 250.5,381.5 Z" />
    </g>
    <g>
        <path style="opacity:0.4" fill="#0d0d0d"
            d="M 185.5,393.5 C 188.55,395.549 190.883,398.216 192.5,401.5C 191.504,401.586 190.671,401.252 190,400.5C 188.25,398.266 186.75,395.932 185.5,393.5 Z" />
    </g>
    <g>
        <path style="opacity:0.012" fill="#0c0c0c"
            d="M 192.5,401.5 C 194.754,402.124 196.421,403.457 197.5,405.5C 195.205,404.864 193.539,403.531 192.5,401.5 Z" />
    </g>
    <g>
        <path style="opacity:0.196" fill="#0b0b0b"
            d="M 244.5,391.5 C 239.959,399.871 233.292,406.038 224.5,410C 222.527,410.495 220.527,410.662 218.5,410.5C 222.28,409.621 225.947,408.121 229.5,406C 235.03,401.636 240.03,396.802 244.5,391.5 Z" />
    </g>
    <g>
        <path style="opacity:0.192" fill="#0a0a0a"
            d="M 197.5,405.5 C 201.126,407.37 204.792,409.037 208.5,410.5C 203.955,410.55 200.289,408.883 197.5,405.5 Z" />
    </g>
    <g>
        <path style="opacity:0.133" fill="#0c0c0c"
            d="M 186.5,419.5 C 188.674,419.75 190.341,420.75 191.5,422.5C 189.326,422.25 187.659,421.25 186.5,419.5 Z" />
    </g>
    <g>
        <path style="opacity:0.176" fill="#080808"
            d="M 247.5,414.5 C 243.005,419.771 237.338,423.604 230.5,426C 226.653,426.633 222.986,427.467 219.5,428.5C 215.5,428.5 211.5,428.5 207.5,428.5C 207.5,428.167 207.5,427.833 207.5,427.5C 222.635,428.343 235.968,424.01 247.5,414.5 Z" />
    </g>
    <g>
        <path style="opacity:0.031" fill="#040404"
            d="M 191.5,422.5 C 193.153,422.66 194.486,423.326 195.5,424.5C 193.62,424.771 192.287,424.104 191.5,422.5 Z" />
    </g>
    <g>
        <path style="opacity:0.129" fill="#0d0d0d"
            d="M 195.5,424.5 C 199.596,425.508 203.596,426.508 207.5,427.5C 203.018,427.966 199.018,426.966 195.5,424.5 Z" />
    </g>
</svg>