<svg xmlns="http://www.w3.org/2000/svg" width="382.067" height="514.96" viewBox="0 0 382.067 514.96">
    <g id="Group_293" data-name="Group 293" transform="translate(-1144 -344.5)">
      <g id="Path_39" data-name="Path 39" transform="translate(1144 344.5)" fill="none">
        <path d="M191.034,0c105.5,0,191.034,85.529,191.034,191.034V323.927A190.932,190.932,0,0,1,191.034,514.96C85.529,514.96,0,429.431,0,323.927V191.034C0,85.529,85.529,0,191.034,0Z" stroke="none"/>
        <path d="M 191.0335693359375 2.999969482421875 C 178.2737731933594 2.999969482421875 165.5229034423828 4.285308837890625 153.1350402832031 6.820159912109375 C 141.0636291503906 9.290374755859375 129.1897735595703 12.97622680664062 117.8432922363281 17.77536010742188 C 106.7022399902344 22.48764038085938 95.95635986328125 28.3203125 85.904296875 35.11138916015625 C 75.94696044921875 41.83843994140625 66.5833740234375 49.56411743164062 58.07376098632812 58.07376098632812 C 49.56411743164062 66.5833740234375 41.83843994140625 75.94696044921875 35.11135864257812 85.904296875 C 28.3203125 95.95635986328125 22.48764038085938 106.7022399902344 17.77536010742188 117.8433227539062 C 12.97622680664062 129.1897888183594 9.290374755859375 141.0636291503906 6.820159912109375 153.1350402832031 C 4.285308837890625 165.5229187011719 2.999969482421875 178.2737731933594 2.999969482421875 191.0335693359375 L 2.999969482421875 323.926513671875 C 2.999969482421875 336.6863098144531 4.285308837890625 349.4371948242188 6.820159912109375 361.8250427246094 C 9.290374755859375 373.8964233398438 12.97622680664062 385.7703247070312 17.77536010742188 397.11669921875 C 22.48764038085938 408.2578430175781 28.3203125 419.0037231445312 35.11135864257812 429.0557861328125 C 41.83843994140625 439.0131225585938 49.56411743164062 448.3766479492188 58.07376098632812 456.8862915039062 C 66.5833740234375 465.3959655761719 75.94696044921875 473.12158203125 85.904296875 479.8486328125 C 95.95635986328125 486.6397094726562 106.7022399902344 492.4723815917969 117.8432922363281 497.1846313476562 C 129.1897735595703 501.9837646484375 141.0636291503906 505.6696472167969 153.1350402832031 508.1398315429688 C 165.5229034423828 510.6747131347656 178.2737731933594 511.9600524902344 191.0335693359375 511.9600524902344 C 208.5103759765625 511.9600524902344 225.8175659179688 509.5649108886719 242.4744415283203 504.8410949707031 C 258.608642578125 500.2655029296875 274.0790405273438 493.5252990722656 288.4559020996094 484.8077087402344 C 316.9078369140625 467.5555114746094 340.3225708007812 443.0462341308594 356.1688232421875 413.9295654296875 C 363.5707092285156 400.3293762207031 369.2713012695312 385.8934936523438 373.1123657226562 371.0228881835938 C 377.0636291503906 355.7255859375 379.0671081542969 339.8800354003906 379.0671081542969 323.926513671875 L 379.0671081542969 191.0335693359375 C 379.0671081542969 178.2737731933594 377.7817687988281 165.5229187011719 375.2468872070312 153.1350402832031 C 372.7767028808594 141.0636291503906 369.0908203125 129.1897888183594 364.2916870117188 117.8433227539062 C 359.5794372558594 106.7022399902344 353.7467651367188 95.95635986328125 346.9556884765625 85.904296875 C 340.2286376953125 75.94696044921875 332.5030517578125 66.5833740234375 323.9933776855469 58.07376098632812 C 315.4837036132812 49.56411743164062 306.1201782226562 41.83843994140625 296.162841796875 35.11138916015625 C 286.1107788085938 28.3203125 275.3648986816406 22.48764038085938 264.2237548828125 17.77536010742188 C 252.8773651123047 12.97622680664062 241.0035095214844 9.290374755859375 228.9320983886719 6.820159912109375 C 216.5442352294922 4.285308837890625 203.7933654785156 2.999969482421875 191.0335693359375 2.999969482421875 M 191.0335693359375 0 C 296.5385131835938 0 382.0671081542969 85.52865600585938 382.0671081542969 191.0335693359375 L 382.0671081542969 323.926513671875 C 382.0671081542969 356.9495849609375 373.6879577636719 388.0155029296875 358.8038330078125 415.3637084960938 C 326.5691528320312 474.5931701660156 263.5154418945312 514.9600219726562 191.0335693359375 514.9600219726562 C 85.52862548828125 514.9600219726562 -3.0517578125e-05 429.4314575195312 -3.0517578125e-05 323.926513671875 L -3.0517578125e-05 191.0335693359375 C -3.0517578125e-05 85.52865600585938 85.52862548828125 0 191.0335693359375 0 Z" stroke="none" fill="#949494"/>
      </g>
      <circle id="Ellipse_76" data-name="Ellipse 76" cx="15.573" cy="15.573" r="15.573" transform="translate(1186.778 790.937)" fill="#505050"/>
      <rect id="two-young-women-playing-enjoying-with-holi-colors" width="326" height="455" rx="163" transform="translate(1172 374.5)" fill="#505050"/>
    </g>
  </svg>
  