<?xml version="1.0" encoding="UTF-8"?>
<!DOCTYPE svg PUBLIC "-//W3C//DTD SVG 1.1//EN" "http://www.w3.org/Graphics/SVG/1.1/DTD/svg11.dtd">
<svg xmlns="http://www.w3.org/2000/svg" version="1.1" width="642px" height="696px"
    style="shape-rendering:geometricPrecision; text-rendering:geometricPrecision; image-rendering:optimizeQuality; fill-rule:evenodd; clip-rule:evenodd"
    xmlns:xlink="http://www.w3.org/1999/xlink">
    <g>
        <path style="opacity:0.139" fill="#505050"
            d="M 308.5,13.5 C 320.205,12.6189 330.872,15.4522 340.5,22C 346.033,27.1983 351.2,32.6983 356,38.5C 361.473,49.1094 366.639,59.776 371.5,70.5C 383.996,63.6123 397.329,59.4456 411.5,58C 438.658,54.8276 456.158,66.3276 464,92.5C 466.222,113.392 462.055,132.892 451.5,151C 462.759,155.756 473.759,161.089 484.5,167C 508.892,184.848 514.392,207.348 501,234.5C 487.514,249.501 471.014,259.834 451.5,265.5C 455.277,274.054 458.777,282.72 462,291.5C 465.105,305.214 465.105,318.88 462,332.5C 452.854,351.75 437.521,361.083 416,360.5C 400.185,359.506 385.352,355.173 371.5,347.5C 367.306,356.89 362.806,366.224 358,375.5C 353.504,381.69 348.67,387.523 343.5,393C 330.628,402.464 316.294,405.464 300.5,402C 296.111,400.971 292.111,399.138 288.5,396.5C 280.981,400.074 276.315,397.741 274.5,389.5C 275.5,388.667 276.5,387.833 277.5,387C 274.639,384.106 272.139,380.939 270,377.5C 264.955,367.41 259.955,357.41 255,347.5C 246.664,351.084 238.164,354.25 229.5,357C 217.21,359.744 204.877,360.078 192.5,358C 172.461,350.456 162.461,335.956 162.5,314.5C 162.45,297.15 166.784,280.984 175.5,266C 162.904,261.138 150.904,255.138 139.5,248C 116.328,229.393 112.162,207.227 127,181.5C 132.239,175.59 138.072,170.423 144.5,166C 154.8,160.682 165.134,155.682 175.5,151C 171.662,143.819 168.495,136.319 166,128.5C 162.285,114.188 161.951,99.8551 165,85.5C 172.988,67.8451 186.654,58.5117 206,57.5C 223.554,57.8468 240.054,62.1802 255.5,70.5C 260.838,58.1587 267.005,46.1587 274,34.5C 282.937,22.9627 294.437,15.9627 308.5,13.5 Z M 309.5,30.5 C 321.276,30.4711 330.776,35.1377 338,44.5C 342.125,49.3014 345.458,54.6347 348,60.5C 350.111,67.5035 352.611,74.3368 355.5,81C 339.582,93.7497 325.582,108.25 313.5,124.5C 308.221,117.381 302.721,110.381 297,103.5C 288.405,95.9003 280.238,88.067 272.5,80C 275.746,63.5033 283.412,49.5033 295.5,38C 299.815,34.6782 304.482,32.1782 309.5,30.5 Z M 202.5,75.5 C 220.523,74.9348 237.023,79.6014 252,89.5C 250.088,109.752 250.588,129.752 253.5,149.5C 235.773,146.448 217.94,145.781 200,147.5C 197.329,147.726 194.996,147.059 193,145.5C 184.286,130.644 180.286,114.644 181,97.5C 183.041,84.9606 190.208,77.6272 202.5,75.5 Z M 411.5,75.5 C 434.159,72.2902 445.826,81.9569 446.5,104.5C 445.671,119.489 441.504,133.489 434,146.5C 425.572,147.421 417.072,147.421 408.5,146.5C 396.768,146.885 385.101,147.885 373.5,149.5C 375.413,129.522 375.913,109.522 375,89.5C 386.136,81.9578 398.302,77.2912 411.5,75.5 Z M 269.5,102.5 C 282.988,113.49 294.155,126.49 303,141.5C 300.591,149.352 298.425,157.352 296.5,165.5C 290.23,162.702 283.896,159.868 277.5,157C 273.466,154.239 271.299,150.406 271,145.5C 268.88,131.178 268.38,116.845 269.5,102.5 Z M 355.5,103.5 C 356.75,103.577 357.583,104.244 358,105.5C 358.417,121.327 357.084,136.994 354,152.5C 353.535,153.931 352.701,155.097 351.5,156C 344.888,158.639 338.554,161.806 332.5,165.5C 330.016,158.241 327.016,151.075 323.5,144C 331.367,128.298 342.034,114.798 355.5,103.5 Z M 211.5,163.5 C 226.232,163.862 240.898,165.028 255.5,167C 258,168.167 259.833,170 261,172.5C 263.912,178.658 267.079,184.658 270.5,190.5C 262.839,192.749 255.339,195.415 248,198.5C 231.969,190.544 218.469,179.378 207.5,165C 209.058,164.79 210.391,164.29 211.5,163.5 Z M 403.5,163.5 C 409.232,163.283 414.899,163.783 420.5,165C 409.061,178.944 395.394,190.111 379.5,198.5C 371.771,195.136 363.771,192.636 355.5,191C 360.085,183.831 364.419,176.498 368.5,169C 372.332,167.375 376.332,166.375 380.5,166C 388.328,165.256 395.995,164.423 403.5,163.5 Z M 316.5,185.5 C 316.5,186.167 316.5,186.833 316.5,187.5C 315.521,188.765 314.521,190.099 313.5,191.5C 311.065,188.46 310.065,184.96 310.5,181C 310.483,175.598 311.483,170.431 313.5,165.5C 315.934,171.908 316.934,178.575 316.5,185.5 Z M 441.5,166.5 C 454.699,169.933 466.699,175.767 477.5,184C 493.244,198.173 494.577,213.506 481.5,230C 470.264,239.535 457.43,246.035 443,249.5C 437.742,246.909 433.742,242.909 431,237.5C 420.633,226.76 409.467,217.093 397.5,208.5C 414.44,196.894 429.107,182.894 441.5,166.5 Z M 182.5,167.5 C 183.873,167.343 185.207,167.51 186.5,168C 198.792,183.796 213.126,197.296 229.5,208.5C 215.566,218.6 203.066,230.266 192,243.5C 189.906,246.103 187.406,248.103 184.5,249.5C 169.831,246.166 156.831,239.666 145.5,230C 131.229,213.467 132.563,198.134 149.5,184C 153.11,182.056 156.443,179.723 159.5,177C 167.226,173.71 174.893,170.543 182.5,167.5 Z M 282.5,176.5 C 283.391,177.11 284.391,177.443 285.5,177.5C 290.401,180.892 294.901,184.892 299,189.5C 300.59,191.65 301.257,193.983 301,196.5C 292.164,192.169 285.997,185.502 282.5,176.5 Z M 344.5,176.5 C 345.405,177.702 345.405,179.036 344.5,180.5C 339.488,186.676 333.655,192.01 327,196.5C 326.5,196 326,195.5 325.5,195C 329.99,188.345 335.324,182.512 341.5,177.5C 342.609,177.443 343.609,177.11 344.5,176.5 Z M 335.5,205.5 C 336.5,205.5 337.5,205.5 338.5,205.5C 363.833,207.5 363.833,209.5 338.5,211.5C 337.5,211.5 336.5,211.5 335.5,211.5C 330.167,209.5 330.167,207.5 335.5,205.5 Z M 291.5,212.5 C 290.5,212.5 289.5,212.5 288.5,212.5C 283.113,212.595 277.78,212.095 272.5,211C 271.328,210.581 270.328,209.915 269.5,209C 277.737,206.245 286.07,205.912 294.5,208C 295.451,208.718 295.617,209.551 295,210.5C 293.698,211.085 292.531,211.751 291.5,212.5 Z M 246.5,219.5 C 254.648,221.236 262.648,223.569 270.5,226.5C 266.546,234.245 262.212,241.745 257.5,249C 255.285,250.044 252.952,250.71 250.5,251C 239.144,252.017 227.811,253.184 216.5,254.5C 213.459,254.018 210.459,253.351 207.5,252.5C 219.053,239.599 232.053,228.599 246.5,219.5 Z M 377.5,219.5 C 379.655,219.372 381.655,219.872 383.5,221C 397.205,229.537 409.205,240.037 419.5,252.5C 416.541,253.351 413.541,254.018 410.5,254.5C 396.764,253.06 383.097,251.227 369.5,249C 365.041,241.916 360.708,234.75 356.5,227.5C 363.89,225.581 370.89,222.914 377.5,219.5 Z M 345.5,238.5 C 345.5,238.833 345.5,239.167 345.5,239.5C 337.027,236.367 330.693,230.7 326.5,222.5C 326.833,222.167 327.167,221.833 327.5,221.5C 334.835,225.837 340.835,231.504 345.5,238.5 Z M 288.5,238.5 C 286.973,238.427 285.973,239.094 285.5,240.5C 282.167,241.833 281.167,240.833 282.5,237.5C 286.269,233.229 290.269,229.062 294.5,225C 296.217,223.441 298.217,222.608 300.5,222.5C 300.392,224.783 299.559,226.783 298,228.5C 294.629,231.703 291.462,235.036 288.5,238.5 Z M 312.5,226.5 C 313.496,226.414 314.329,226.748 315,227.5C 317.179,236.009 316.679,244.343 313.5,252.5C 310.095,243.919 309.762,235.252 312.5,226.5 Z M 294.5,251.5 C 297.378,259.29 300.378,267.123 303.5,275C 294.526,289.978 283.36,303.145 270,314.5C 268.546,298.062 269.546,281.728 273,265.5C 273.465,264.069 274.299,262.903 275.5,262C 282.185,258.994 288.519,255.494 294.5,251.5 Z M 331.5,251.5 C 337.171,254.336 342.838,257.169 348.5,260C 350.609,261.141 352.442,262.641 354,264.5C 357.547,281.016 358.714,297.683 357.5,314.5C 344.341,304.163 333.508,291.83 325,277.5C 324.333,275.5 324.333,273.5 325,271.5C 328.037,265.098 330.204,258.432 331.5,251.5 Z M 250.5,267.5 C 251.5,267.5 252.5,267.5 253.5,267.5C 250.135,287.456 249.635,307.456 252,327.5C 235.067,338.686 216.567,342.853 196.5,340C 184.956,334.611 179.623,325.444 180.5,312.5C 181.54,297.88 185.707,284.213 193,271.5C 194.822,269.955 196.989,269.288 199.5,269.5C 216.733,271.107 233.733,270.44 250.5,267.5 Z M 373.5,267.5 C 380.757,268.54 388.09,269.373 395.5,270C 408.087,270.297 420.587,270.464 433,270.5C 440.915,283.244 445.415,297.078 446.5,312C 445.619,335.199 433.619,344.866 410.5,341C 397.628,339.144 385.794,334.644 375,327.5C 375.944,307.484 375.444,287.484 373.5,267.5 Z M 312.5,293.5 C 314.371,293.859 315.871,294.859 317,296.5C 320.333,301.167 323.667,305.833 327,310.5C 335.928,319.765 345.095,328.598 354.5,337C 350.528,356.633 340.528,372.3 324.5,384C 311.744,388.751 300.911,385.918 292,375.5C 282.476,364.287 275.976,351.453 272.5,337C 279.603,330.57 286.77,324.07 294,317.5C 300.765,309.909 306.931,301.909 312.5,293.5 Z" />
    </g>
    <g>
        <path style="opacity:0.999" fill="#303030"
            d="M 305.5,15.5 C 324.299,13.8143 339.465,20.481 351,35.5C 359.337,46.1772 365.004,58.1772 368,71.5C 368.674,72.5784 369.674,73.2451 371,73.5C 381.788,67.5687 393.288,63.4021 405.5,61C 413.833,60.3333 422.167,60.3333 430.5,61C 434.716,61.7198 438.716,63.0531 442.5,65C 449.848,71.0067 455.681,78.1734 460,86.5C 462.192,100.229 461.859,113.896 459,127.5C 455.772,135.622 452.272,143.622 448.5,151.5C 448.818,152.647 449.484,153.481 450.5,154C 469.902,158.955 486.068,169.121 499,184.5C 512.027,209.029 507.527,229.863 485.5,247C 479.33,250.919 472.997,254.586 466.5,258C 460.562,259.585 454.729,261.418 449,263.5C 448.333,264.5 448.333,265.5 449,266.5C 459.561,284.876 463.561,304.543 461,325.5C 456.2,343.299 444.7,353.799 426.5,357C 408.081,358.529 390.748,354.862 374.5,346C 372.553,345.009 370.553,344.675 368.5,345C 363.606,364.454 353.606,380.788 338.5,394C 314.553,407.263 293.719,403.43 276,382.5C 272.333,376.5 268.667,370.5 265,364.5C 262.741,357.89 260.575,351.223 258.5,344.5C 256.473,344.338 254.473,344.505 252.5,345C 232.977,355.84 212.31,359.174 190.5,355C 180.696,350.194 173.196,343.028 168,333.5C 163.52,318.86 163.52,304.193 168,289.5C 170.932,281.019 174.432,272.852 178.5,265C 172.361,261.273 165.695,258.606 158.5,257C 145.815,251.235 135.315,242.735 127,231.5C 114.881,208.464 119.048,188.631 139.5,172C 151.275,163.736 164.108,157.569 178,153.5C 178.314,148.453 176.648,144.12 173,140.5C 166.659,124.109 164.325,107.109 166,89.5C 176.195,65.1495 194.362,55.6495 220.5,61C 223.753,62.0365 227.086,62.7031 230.5,63C 239.285,66.2264 247.951,69.7264 256.5,73.5C 258.353,72.8113 259.519,71.478 260,69.5C 264.656,50.6809 274.49,35.1809 289.5,23C 294.814,20.173 300.147,17.673 305.5,15.5 Z M 309.5,30.5 C 304.482,32.1782 299.815,34.6782 295.5,38C 283.412,49.5033 275.746,63.5033 272.5,80C 280.238,88.067 288.405,95.9003 297,103.5C 302.721,110.381 308.221,117.381 313.5,124.5C 325.582,108.25 339.582,93.7497 355.5,81C 352.611,74.3368 350.111,67.5035 348,60.5C 345.458,54.6347 342.125,49.3014 338,44.5C 330.776,35.1377 321.276,30.4711 309.5,30.5 Z M 202.5,75.5 C 190.208,77.6272 183.041,84.9606 181,97.5C 180.286,114.644 184.286,130.644 193,145.5C 194.996,147.059 197.329,147.726 200,147.5C 217.94,145.781 235.773,146.448 253.5,149.5C 250.588,129.752 250.088,109.752 252,89.5C 237.023,79.6014 220.523,74.9348 202.5,75.5 Z M 411.5,75.5 C 398.302,77.2912 386.136,81.9578 375,89.5C 375.913,109.522 375.413,129.522 373.5,149.5C 385.101,147.885 396.768,146.885 408.5,146.5C 417.072,147.421 425.572,147.421 434,146.5C 441.504,133.489 445.671,119.489 446.5,104.5C 445.826,81.9569 434.159,72.2902 411.5,75.5 Z M 269.5,102.5 C 268.38,116.845 268.88,131.178 271,145.5C 271.299,150.406 273.466,154.239 277.5,157C 283.896,159.868 290.23,162.702 296.5,165.5C 298.425,157.352 300.591,149.352 303,141.5C 294.155,126.49 282.988,113.49 269.5,102.5 Z M 355.5,103.5 C 342.034,114.798 331.367,128.298 323.5,144C 327.016,151.075 330.016,158.241 332.5,165.5C 338.554,161.806 344.888,158.639 351.5,156C 352.701,155.097 353.535,153.931 354,152.5C 357.084,136.994 358.417,121.327 358,105.5C 357.583,104.244 356.75,103.577 355.5,103.5 Z M 211.5,163.5 C 210.391,164.29 209.058,164.79 207.5,165C 218.469,179.378 231.969,190.544 248,198.5C 255.339,195.415 262.839,192.749 270.5,190.5C 267.079,184.658 263.912,178.658 261,172.5C 259.833,170 258,168.167 255.5,167C 240.898,165.028 226.232,163.862 211.5,163.5 Z M 403.5,163.5 C 395.995,164.423 388.328,165.256 380.5,166C 376.332,166.375 372.332,167.375 368.5,169C 364.419,176.498 360.085,183.831 355.5,191C 363.771,192.636 371.771,195.136 379.5,198.5C 395.394,190.111 409.061,178.944 420.5,165C 414.899,163.783 409.232,163.283 403.5,163.5 Z M 316.5,185.5 C 316.5,186.167 316.5,186.833 316.5,187.5C 315.521,188.765 314.521,190.099 313.5,191.5C 311.065,188.46 310.065,184.96 310.5,181C 310.483,175.598 311.483,170.431 313.5,165.5C 315.934,171.908 316.934,178.575 316.5,185.5 Z M 441.5,166.5 C 429.107,182.894 414.44,196.894 397.5,208.5C 409.467,217.093 420.633,226.76 431,237.5C 433.742,242.909 437.742,246.909 443,249.5C 457.43,246.035 470.264,239.535 481.5,230C 494.577,213.506 493.244,198.173 477.5,184C 466.699,175.767 454.699,169.933 441.5,166.5 Z M 182.5,167.5 C 174.893,170.543 167.226,173.71 159.5,177C 156.443,179.723 153.11,182.056 149.5,184C 132.563,198.134 131.229,213.467 145.5,230C 156.831,239.666 169.831,246.166 184.5,249.5C 187.406,248.103 189.906,246.103 192,243.5C 203.066,230.266 215.566,218.6 229.5,208.5C 213.126,197.296 198.792,183.796 186.5,168C 185.207,167.51 183.873,167.343 182.5,167.5 Z M 282.5,176.5 C 283.391,177.11 284.391,177.443 285.5,177.5C 290.401,180.892 294.901,184.892 299,189.5C 300.59,191.65 301.257,193.983 301,196.5C 292.164,192.169 285.997,185.502 282.5,176.5 Z M 344.5,176.5 C 345.405,177.702 345.405,179.036 344.5,180.5C 339.488,186.676 333.655,192.01 327,196.5C 326.5,196 326,195.5 325.5,195C 329.99,188.345 335.324,182.512 341.5,177.5C 342.609,177.443 343.609,177.11 344.5,176.5 Z M 335.5,205.5 C 336.5,205.5 337.5,205.5 338.5,205.5C 363.833,207.5 363.833,209.5 338.5,211.5C 337.5,211.5 336.5,211.5 335.5,211.5C 330.167,209.5 330.167,207.5 335.5,205.5 Z M 291.5,212.5 C 290.5,212.5 289.5,212.5 288.5,212.5C 283.113,212.595 277.78,212.095 272.5,211C 271.328,210.581 270.328,209.915 269.5,209C 277.737,206.245 286.07,205.912 294.5,208C 295.451,208.718 295.617,209.551 295,210.5C 293.698,211.085 292.531,211.751 291.5,212.5 Z M 246.5,219.5 C 232.053,228.599 219.053,239.599 207.5,252.5C 210.459,253.351 213.459,254.018 216.5,254.5C 227.811,253.184 239.144,252.017 250.5,251C 252.952,250.71 255.285,250.044 257.5,249C 262.212,241.745 266.546,234.245 270.5,226.5C 262.648,223.569 254.648,221.236 246.5,219.5 Z M 377.5,219.5 C 370.89,222.914 363.89,225.581 356.5,227.5C 360.708,234.75 365.041,241.916 369.5,249C 383.097,251.227 396.764,253.06 410.5,254.5C 413.541,254.018 416.541,253.351 419.5,252.5C 409.205,240.037 397.205,229.537 383.5,221C 381.655,219.872 379.655,219.372 377.5,219.5 Z M 345.5,238.5 C 345.5,238.833 345.5,239.167 345.5,239.5C 337.027,236.367 330.693,230.7 326.5,222.5C 326.833,222.167 327.167,221.833 327.5,221.5C 334.835,225.837 340.835,231.504 345.5,238.5 Z M 288.5,238.5 C 286.973,238.427 285.973,239.094 285.5,240.5C 282.167,241.833 281.167,240.833 282.5,237.5C 286.269,233.229 290.269,229.062 294.5,225C 296.217,223.441 298.217,222.608 300.5,222.5C 300.392,224.783 299.559,226.783 298,228.5C 294.629,231.703 291.462,235.036 288.5,238.5 Z M 312.5,226.5 C 309.762,235.252 310.095,243.919 313.5,252.5C 316.679,244.343 317.179,236.009 315,227.5C 314.329,226.748 313.496,226.414 312.5,226.5 Z M 294.5,251.5 C 288.519,255.494 282.185,258.994 275.5,262C 274.299,262.903 273.465,264.069 273,265.5C 269.546,281.728 268.546,298.062 270,314.5C 283.36,303.145 294.526,289.978 303.5,275C 300.378,267.123 297.378,259.29 294.5,251.5 Z M 331.5,251.5 C 330.204,258.432 328.037,265.098 325,271.5C 324.333,273.5 324.333,275.5 325,277.5C 333.508,291.83 344.341,304.163 357.5,314.5C 358.714,297.683 357.547,281.016 354,264.5C 352.442,262.641 350.609,261.141 348.5,260C 342.838,257.169 337.171,254.336 331.5,251.5 Z M 250.5,267.5 C 233.733,270.44 216.733,271.107 199.5,269.5C 196.989,269.288 194.822,269.955 193,271.5C 185.707,284.213 181.54,297.88 180.5,312.5C 179.623,325.444 184.956,334.611 196.5,340C 216.567,342.853 235.067,338.686 252,327.5C 249.635,307.456 250.135,287.456 253.5,267.5C 252.5,267.5 251.5,267.5 250.5,267.5 Z M 373.5,267.5 C 375.444,287.484 375.944,307.484 375,327.5C 385.794,334.644 397.628,339.144 410.5,341C 433.619,344.866 445.619,335.199 446.5,312C 445.415,297.078 440.915,283.244 433,270.5C 420.587,270.464 408.087,270.297 395.5,270C 388.09,269.373 380.757,268.54 373.5,267.5 Z M 312.5,293.5 C 306.931,301.909 300.765,309.909 294,317.5C 286.77,324.07 279.603,330.57 272.5,337C 275.976,351.453 282.476,364.287 292,375.5C 300.911,385.918 311.744,388.751 324.5,384C 340.528,372.3 350.528,356.633 354.5,337C 345.095,328.598 335.928,319.765 327,310.5C 323.667,305.833 320.333,301.167 317,296.5C 315.871,294.859 314.371,293.859 312.5,293.5 Z" />
    </g>
    <g>
        <path style="opacity:0.151" fill="#505050"
            d="M 306.5,28.5 C 318.546,27.1252 328.713,30.7919 337,39.5C 347.744,52.3159 354.078,66.9826 356,83.5C 340.643,97.0236 326.476,111.69 313.5,127.5C 308.174,121.336 303.008,115.003 298,108.5C 290.048,99.874 281.548,92.0407 272.5,85C 271.106,84.044 270.439,82.7106 270.5,81C 274.066,61.8596 283.066,45.8596 297.5,33C 300.592,31.4541 303.592,29.9541 306.5,28.5 Z M 309.5,30.5 C 304.482,32.1782 299.815,34.6782 295.5,38C 283.412,49.5033 275.746,63.5033 272.5,80C 280.238,88.067 288.405,95.9003 297,103.5C 302.721,110.381 308.221,117.381 313.5,124.5C 325.582,108.25 339.582,93.7497 355.5,81C 352.611,74.3368 350.111,67.5035 348,60.5C 345.458,54.6347 342.125,49.3014 338,44.5C 330.776,35.1377 321.276,30.4711 309.5,30.5 Z" />
    </g>
    <g>
        <path style="opacity:0.147" fill="#505050"
            d="M 255.5,144.5 C 256.01,147.388 255.344,149.721 253.5,151.5C 233.259,148.655 212.926,147.822 192.5,149C 181.97,132.715 177.137,114.881 178,95.5C 184.638,76.7592 197.805,69.2592 217.5,73C 230.287,75.894 242.287,80.7273 253.5,87.5C 252.858,106.525 253.525,125.525 255.5,144.5 Z M 202.5,75.5 C 190.208,77.6272 183.041,84.9606 181,97.5C 180.286,114.644 184.286,130.644 193,145.5C 194.996,147.059 197.329,147.726 200,147.5C 217.94,145.781 235.773,146.448 253.5,149.5C 250.588,129.752 250.088,109.752 252,89.5C 237.023,79.6014 220.523,74.9348 202.5,75.5 Z" />
    </g>
    <g>
        <path style="opacity:0.154" fill="#505050"
            d="M 408.5,72.5 C 416.228,72.1885 423.895,72.6885 431.5,74C 443.716,79.9159 449.716,89.7492 449.5,103.5C 448.599,120.035 443.599,135.202 434.5,149C 413.101,149.004 391.768,149.837 370.5,151.5C 371.922,141.918 372.756,132.251 373,122.5C 373.149,110.802 373.316,99.1358 373.5,87.5C 384.418,80.5353 396.085,75.5353 408.5,72.5 Z M 411.5,75.5 C 398.302,77.2912 386.136,81.9578 375,89.5C 375.913,109.522 375.413,129.522 373.5,149.5C 385.101,147.885 396.768,146.885 408.5,146.5C 417.072,147.421 425.572,147.421 434,146.5C 441.504,133.489 445.671,119.489 446.5,104.5C 445.826,81.9569 434.159,72.2902 411.5,75.5 Z" />
    </g>
    <g>
        <path style="opacity:0.151" fill="#505050"
            d="M 266.5,99.5 C 267.873,99.3433 269.207,99.51 270.5,100C 284.579,111.741 296.079,125.574 305,141.5C 302.688,150.318 300.188,159.151 297.5,168C 296.5,168.667 295.5,168.667 294.5,168C 288.737,164.452 282.737,161.452 276.5,159C 274.291,157.127 272.458,154.96 271,152.5C 267.018,135.063 265.518,117.396 266.5,99.5 Z M 269.5,102.5 C 268.38,116.845 268.88,131.178 271,145.5C 271.299,150.406 273.466,154.239 277.5,157C 283.896,159.868 290.23,162.702 296.5,165.5C 298.425,157.352 300.591,149.352 303,141.5C 294.155,126.49 282.988,113.49 269.5,102.5 Z" />
    </g>
    <g>
        <path style="opacity:0.137" fill="#040404"
            d="M 355.5,100.5 C 356.833,100.5 358.167,100.5 359.5,100.5C 361.03,119.084 359.53,137.417 355,155.5C 346.856,159.572 338.856,163.905 331,168.5C 330.055,168.095 329.388,167.428 329,166.5C 327.618,159.638 325.618,152.972 323,146.5C 322.348,143.406 322.682,140.406 324,137.5C 332.144,123.187 342.644,110.853 355.5,100.5 Z M 355.5,103.5 C 342.034,114.798 331.367,128.298 323.5,144C 327.016,151.075 330.016,158.241 332.5,165.5C 338.554,161.806 344.888,158.639 351.5,156C 352.701,155.097 353.535,153.931 354,152.5C 357.084,136.994 358.417,121.327 358,105.5C 357.583,104.244 356.75,103.577 355.5,103.5 Z" />
    </g>
    <g>
        <path style="opacity:0.845" fill="#1c1c1c"
            d="M 255.5,144.5 C 256.473,146.948 256.806,149.615 256.5,152.5C 255.209,152.737 254.209,152.404 253.5,151.5C 255.344,149.721 256.01,147.388 255.5,144.5 Z" />
    </g>
    <g>
        <path style="opacity:0.144" fill="#505050"
            d="M 215.5,161.5 C 223.841,161.81 232.174,162.31 240.5,163C 247.587,163.595 254.42,165.095 261,167.5C 263.95,175.4 267.95,182.733 273,189.5C 273.667,190.5 273.667,191.5 273,192.5C 264.689,194.828 256.356,197.162 248,199.5C 243.692,199.176 239.859,197.676 236.5,195C 225.547,187.436 215.714,178.602 207,168.5C 205.441,166.783 204.608,164.783 204.5,162.5C 208.371,162.815 212.038,162.482 215.5,161.5 Z M 211.5,163.5 C 210.391,164.29 209.058,164.79 207.5,165C 218.469,179.378 231.969,190.544 248,198.5C 255.339,195.415 262.839,192.749 270.5,190.5C 267.079,184.658 263.912,178.658 261,172.5C 259.833,170 258,168.167 255.5,167C 240.898,165.028 226.232,163.862 211.5,163.5 Z" />
    </g>
    <g>
        <path style="opacity:0.145" fill="#060606"
            d="M 402.5,161.5 C 409.178,161.789 415.844,162.289 422.5,163C 422.957,163.414 423.291,163.914 423.5,164.5C 413.518,177.652 401.518,188.486 387.5,197C 384.845,198.441 382.012,199.274 379,199.5C 370.558,197.184 362.058,195.184 353.5,193.5C 353.343,192.127 353.51,190.793 354,189.5C 358.128,183.578 361.461,177.244 364,170.5C 365.5,169 367,167.5 368.5,166C 379.898,163.87 391.231,162.37 402.5,161.5 Z M 403.5,163.5 C 395.995,164.423 388.328,165.256 380.5,166C 376.332,166.375 372.332,167.375 368.5,169C 364.419,176.498 360.085,183.831 355.5,191C 363.771,192.636 371.771,195.136 379.5,198.5C 395.394,190.111 409.061,178.944 420.5,165C 414.899,163.783 409.232,163.283 403.5,163.5 Z" />
    </g>
    <g>
        <path style="opacity:0.142" fill="#505050"
            d="M 438.5,165.5 C 459.64,168.315 476.807,177.982 490,194.5C 496.562,209.419 493.728,222.253 481.5,233C 469.699,241.982 456.533,248.149 442,251.5C 441.167,251.333 440.333,251.167 439.5,251C 432.847,242.348 425.514,234.348 417.5,227C 409.428,221.303 401.762,215.136 394.5,208.5C 407.803,198.569 420.303,187.569 432,175.5C 434.022,171.997 436.189,168.663 438.5,165.5 Z M 441.5,166.5 C 429.107,182.894 414.44,196.894 397.5,208.5C 409.467,217.093 420.633,226.76 431,237.5C 433.742,242.909 437.742,246.909 443,249.5C 457.43,246.035 470.264,239.535 481.5,230C 494.577,213.506 493.244,198.173 477.5,184C 466.699,175.767 454.699,169.933 441.5,166.5 Z" />
    </g>
    <g>
        <path style="opacity:0.146" fill="#505050"
            d="M 180.5,165.5 C 182.857,165.337 185.19,165.503 187.5,166C 200.464,182.453 215.464,196.62 232.5,208.5C 216.062,221.104 201.062,235.271 187.5,251C 181.199,251.206 175.199,249.872 169.5,247C 160.669,242.755 152.336,237.755 144.5,232C 130.289,216.935 129.955,201.602 143.5,186C 154.892,177.378 167.225,170.544 180.5,165.5 Z M 182.5,167.5 C 174.893,170.543 167.226,173.71 159.5,177C 156.443,179.723 153.11,182.056 149.5,184C 132.563,198.134 131.229,213.467 145.5,230C 156.831,239.666 169.831,246.166 184.5,249.5C 187.406,248.103 189.906,246.103 192,243.5C 203.066,230.266 215.566,218.6 229.5,208.5C 213.126,197.296 198.792,183.796 186.5,168C 185.207,167.51 183.873,167.343 182.5,167.5 Z" />
    </g>
    <g>
        <path style="opacity:0.071" fill="#070707"
            d="M 316.5,185.5 C 316.934,178.575 315.934,171.908 313.5,165.5C 311.483,170.431 310.483,175.598 310.5,181C 310.065,184.96 311.065,188.46 313.5,191.5C 314.521,190.099 315.521,188.765 316.5,187.5C 316.822,189.722 316.155,191.556 314.5,193C 313.004,193.507 311.837,193.007 311,191.5C 309.036,183.18 309.036,174.847 311,166.5C 312.153,164.503 313.653,164.17 315.5,165.5C 317.617,172.214 317.95,178.881 316.5,185.5 Z" />
    </g>
    <g>
        <path style="opacity:0.936" fill="#1b1b1b"
            d="M 344.5,176.5 C 347.022,177.665 347.022,178.998 344.5,180.5C 345.405,179.036 345.405,177.702 344.5,176.5 Z" />
    </g>
    <g>
        <path style="opacity:0.16" fill="#505050"
            d="M 341.5,177.5 C 335.324,182.512 329.99,188.345 325.5,195C 326,195.5 326.5,196 327,196.5C 333.655,192.01 339.488,186.676 344.5,180.5C 342.566,185.948 339.233,190.448 334.5,194C 331.702,195.914 328.702,196.914 325.5,197C 324.483,195.951 324.316,194.784 325,193.5C 328.406,185.926 333.906,180.592 341.5,177.5 Z" />
    </g>
    <g>
        <path style="opacity:0.206" fill="#070707"
            d="M 282.5,176.5 C 285.997,185.502 292.164,192.169 301,196.5C 301.257,193.983 300.59,191.65 299,189.5C 294.901,184.892 290.401,180.892 285.5,177.5C 292.3,180.453 297.8,185.12 302,191.5C 302.495,193.473 302.662,195.473 302.5,197.5C 293.106,195.036 286.273,189.37 282,180.5C 281.235,178.934 281.402,177.601 282.5,176.5 Z" />
    </g>
    <g>
        <path style="opacity:0.052" fill="#020202"
            d="M 338.5,205.5 C 345.077,204.364 351.744,204.697 358.5,206.5C 358.5,207.833 358.5,209.167 358.5,210.5C 351.744,212.303 345.077,212.636 338.5,211.5C 363.833,209.5 363.833,207.5 338.5,205.5 Z" />
    </g>
    <g>
        <path style="opacity:0.031" fill="#090909"
            d="M 335.5,205.5 C 330.167,207.5 330.167,209.5 335.5,211.5C 332.722,211.978 330.722,210.978 329.5,208.5C 330.722,206.022 332.722,205.022 335.5,205.5 Z" />
    </g>
    <g>
        <path style="opacity:0.078" fill="#070707"
            d="M 291.5,212.5 C 292.531,211.751 293.698,211.085 295,210.5C 295.617,209.551 295.451,208.718 294.5,208C 286.07,205.912 277.737,206.245 269.5,209C 270.328,209.915 271.328,210.581 272.5,211C 277.78,212.095 283.113,212.595 288.5,212.5C 281.897,213.974 275.397,213.308 269,210.5C 268.316,209.216 268.483,208.049 269.5,207C 278.167,205 286.833,205 295.5,207C 297.007,207.837 297.507,209.004 297,210.5C 295.556,212.155 293.722,212.822 291.5,212.5 Z M 291.5,212.5 C 290.5,212.5 289.5,212.5 288.5,212.5C 283.113,212.595 277.78,212.095 272.5,211C 271.328,210.581 270.328,209.915 269.5,209C 277.737,206.245 286.07,205.912 294.5,208C 295.451,208.718 295.617,209.551 295,210.5C 293.698,211.085 292.531,211.751 291.5,212.5 Z" />
    </g>
    <g>
        <path style="opacity:0.147" fill="#505050"
            d="M 246.5,217.5 C 254.273,218.811 261.939,220.645 269.5,223C 271.286,223.196 272.619,224.029 273.5,225.5C 268.515,233.302 264.182,241.469 260.5,250C 241.923,255.296 223.09,256.796 204,254.5C 215.141,238.87 229.308,226.537 246.5,217.5 Z M 246.5,219.5 C 232.053,228.599 219.053,239.599 207.5,252.5C 210.459,253.351 213.459,254.018 216.5,254.5C 227.811,253.184 239.144,252.017 250.5,251C 252.952,250.71 255.285,250.044 257.5,249C 262.212,241.745 266.546,234.245 270.5,226.5C 262.648,223.569 254.648,221.236 246.5,219.5 Z" />
    </g>
    <g>
        <path style="opacity:0.145" fill="#505050"
            d="M 377.5,217.5 C 384.117,218.975 390.117,221.808 395.5,226C 405.981,233.981 415.315,243.148 423.5,253.5C 422.975,254.192 422.308,254.692 421.5,255C 402.879,256.213 384.546,254.547 366.5,250C 362.956,241.579 358.623,233.579 353.5,226C 353.905,225.055 354.572,224.388 355.5,224C 363.178,222.641 370.512,220.474 377.5,217.5 Z M 377.5,219.5 C 370.89,222.914 363.89,225.581 356.5,227.5C 360.708,234.75 365.041,241.916 369.5,249C 383.097,251.227 396.764,253.06 410.5,254.5C 413.541,254.018 416.541,253.351 419.5,252.5C 409.205,240.037 397.205,229.537 383.5,221C 381.655,219.872 379.655,219.372 377.5,219.5 Z" />
    </g>
    <g>
        <path style="opacity:0.186" fill="#060606"
            d="M 345.5,238.5 C 340.835,231.504 334.835,225.837 327.5,221.5C 327.167,221.833 326.833,222.167 326.5,222.5C 330.693,230.7 337.027,236.367 345.5,239.5C 344.399,240.598 343.066,240.765 341.5,240C 333.427,236.261 327.76,230.261 324.5,222C 324.667,220.5 325.5,219.667 327,219.5C 336.064,223.063 342.23,229.396 345.5,238.5 Z" />
    </g>
    <g>
        <path style="opacity:0.198" fill="#060606"
            d="M 288.5,238.5 C 291.462,235.036 294.629,231.703 298,228.5C 299.559,226.783 300.392,224.783 300.5,222.5C 298.217,222.608 296.217,223.441 294.5,225C 290.269,229.062 286.269,233.229 282.5,237.5C 285.819,229.514 291.486,223.847 299.5,220.5C 302.91,221.582 303.41,223.582 301,226.5C 298.262,232.073 294.095,236.073 288.5,238.5 Z" />
    </g>
    <g>
        <path style="opacity:0.07" fill="#060606"
            d="M 312.5,224.5 C 315.188,225.024 316.688,226.691 317,229.5C 317.761,237.587 317.261,245.587 315.5,253.5C 314.167,253.5 312.833,253.5 311.5,253.5C 309.739,245.587 309.239,237.587 310,229.5C 310.366,227.548 311.199,225.882 312.5,224.5 Z M 312.5,226.5 C 309.762,235.252 310.095,243.919 313.5,252.5C 316.679,244.343 317.179,236.009 315,227.5C 314.329,226.748 313.496,226.414 312.5,226.5 Z" />
    </g>
    <g>
        <path style="opacity:0.584" fill="#505050"
            d="M 288.5,238.5 C 288.027,239.906 287.027,240.573 285.5,240.5C 285.973,239.094 286.973,238.427 288.5,238.5 Z" />
    </g>
    <g>
        <path style="opacity:0.146" fill="#060606"
            d="M 295.5,248.5 C 297.776,248.756 298.943,250.09 299,252.5C 300.353,258.576 302.019,264.576 304,270.5C 304.667,272.833 304.667,275.167 304,277.5C 295.429,294.232 283.262,307.566 267.5,317.5C 266.043,299.35 267.21,281.35 271,263.5C 274.303,259.623 278.469,257.123 283.5,256C 287.407,253.241 291.407,250.741 295.5,248.5 Z M 294.5,251.5 C 288.519,255.494 282.185,258.994 275.5,262C 274.299,262.903 273.465,264.069 273,265.5C 269.546,281.728 268.546,298.062 270,314.5C 283.36,303.145 294.526,289.978 303.5,275C 300.378,267.123 297.378,259.29 294.5,251.5 Z" />
    </g>
    <g>
        <path style="opacity:0.151" fill="#505050"
            d="M 329.5,248.5 C 338.014,252.674 346.514,257.007 355,261.5C 359.779,279.901 361.279,298.567 359.5,317.5C 356.642,317.405 354.309,316.238 352.5,314C 339.559,302.915 329.559,289.748 322.5,274.5C 324.874,265.78 327.207,257.113 329.5,248.5 Z M 331.5,251.5 C 330.204,258.432 328.037,265.098 325,271.5C 324.333,273.5 324.333,275.5 325,277.5C 333.508,291.83 344.341,304.163 357.5,314.5C 358.714,297.683 357.547,281.016 354,264.5C 352.442,262.641 350.609,261.141 348.5,260C 342.838,257.169 337.171,254.336 331.5,251.5 Z" />
    </g>
    <g>
        <path style="opacity:0.159" fill="#060606"
            d="M 245.5,265.5 C 248.833,265.5 252.167,265.5 255.5,265.5C 254.08,276.437 253.413,287.437 253.5,298.5C 253.878,308.844 254.044,319.177 254,329.5C 239.922,338.304 224.588,343.304 208,344.5C 191.228,343.732 181.228,335.065 178,318.5C 177.121,305.894 179.454,293.894 185,282.5C 187.372,277.588 189.872,272.755 192.5,268C 200.851,267.294 209.184,267.461 217.5,268.5C 227.048,268.088 236.382,267.088 245.5,265.5 Z M 250.5,267.5 C 233.733,270.44 216.733,271.107 199.5,269.5C 196.989,269.288 194.822,269.955 193,271.5C 185.707,284.213 181.54,297.88 180.5,312.5C 179.623,325.444 184.956,334.611 196.5,340C 216.567,342.853 235.067,338.686 252,327.5C 249.635,307.456 250.135,287.456 253.5,267.5C 252.5,267.5 251.5,267.5 250.5,267.5 Z" />
    </g>
    <g>
        <path style="opacity:0.159" fill="#040404"
            d="M 447.5,299.5 C 448.331,306.131 448.664,312.798 448.5,319.5C 446.478,331.364 439.811,339.531 428.5,344C 408.429,345.811 390.096,340.977 373.5,329.5C 373.28,315.858 373.113,302.191 373,288.5C 372.551,280.781 371.718,273.114 370.5,265.5C 382.474,266.74 394.474,267.74 406.5,268.5C 415.846,267.481 425.179,267.481 434.5,268.5C 440.238,278.301 444.571,288.634 447.5,299.5 Z M 373.5,267.5 C 375.444,287.484 375.944,307.484 375,327.5C 385.794,334.644 397.628,339.144 410.5,341C 433.619,344.866 445.619,335.199 446.5,312C 445.415,297.078 440.915,283.244 433,270.5C 420.587,270.464 408.087,270.297 395.5,270C 388.09,269.373 380.757,268.54 373.5,267.5 Z" />
    </g>
    <g>
        <path style="opacity:0.139" fill="#505050"
            d="M 312.5,290.5 C 314.017,290.511 315.184,291.177 316,292.5C 325.751,306.919 337.584,319.419 351.5,330C 353.774,331.765 355.441,333.932 356.5,336.5C 352.604,351.957 345.771,365.957 336,378.5C 320.013,392.405 304.68,391.739 290,376.5C 280.713,364.76 274.213,351.593 270.5,337C 270.667,336.167 270.833,335.333 271,334.5C 287.094,321.907 300.928,307.241 312.5,290.5 Z M 312.5,293.5 C 306.931,301.909 300.765,309.909 294,317.5C 286.77,324.07 279.603,330.57 272.5,337C 275.976,351.453 282.476,364.287 292,375.5C 300.911,385.918 311.744,388.751 324.5,384C 340.528,372.3 350.528,356.633 354.5,337C 345.095,328.598 335.928,319.765 327,310.5C 323.667,305.833 320.333,301.167 317,296.5C 315.871,294.859 314.371,293.859 312.5,293.5 Z" />
    </g>
    <g>
        <path style="opacity:0.825" fill="#191918"
            d="M 447.5,299.5 C 449.048,303.034 449.714,306.867 449.5,311C 449.498,314.021 449.164,316.854 448.5,319.5C 448.664,312.798 448.331,306.131 447.5,299.5 Z" />
    </g>
    <g>
        <path style="opacity:0.115" fill="#040404"
            d="M 132.5,452.5 C 174.501,452.333 216.501,452.5 258.5,453C 282.575,455.286 298.741,467.786 307,490.5C 313.622,520.081 303.789,542.248 277.5,557C 271.944,558.806 266.278,560.139 260.5,561C 224.167,561.333 187.833,561.667 151.5,562C 151.539,588.418 151.373,614.918 151,641.5C 148.709,650.933 143.209,653.433 134.5,649C 133.299,648.097 132.465,646.931 132,645.5C 131.333,612.833 131.333,580.167 132,547.5C 132.465,546.069 133.299,544.903 134.5,544C 137.101,543.08 139.768,542.413 142.5,542C 182.167,541.667 221.833,541.333 261.5,541C 282.621,534.538 291.454,520.371 288,498.5C 284.013,487.177 276.513,479.01 265.5,474C 221.866,472.699 178.199,472.032 134.5,472C 132.122,471.489 129.788,470.822 127.5,470C 123.223,465.801 122.723,461.301 126,456.5C 128.013,454.752 130.18,453.418 132.5,452.5 Z" />
    </g>
    <g>
        <path style="opacity:1" fill="#303030"
            d="M 138.5,453.5 C 174.502,453.333 210.502,453.5 246.5,454C 278.194,452.72 298.361,467.22 307,497.5C 309.41,525.419 297.91,545.252 272.5,557C 267.9,558.317 263.234,559.317 258.5,560C 222.168,560.5 185.835,560.667 149.5,560.5C 149.667,587.502 149.5,614.502 149,641.5C 146.836,649 142.336,650.833 135.5,647C 133.926,645.174 133.093,643.007 133,640.5C 132.333,610.833 132.333,581.167 133,551.5C 133.066,548.724 134.232,546.558 136.5,545C 179.8,543.972 223.133,542.972 266.5,542C 285.65,533.255 293.484,518.422 290,497.5C 285.674,485.838 277.841,477.338 266.5,472C 221.854,470.721 177.188,470.054 132.5,470C 127.401,468.305 125.568,464.805 127,459.5C 127.465,458.069 128.299,456.903 129.5,456C 132.579,455.027 135.579,454.194 138.5,453.5 Z" />
    </g>
    <g>
        <path style="opacity:0.102" fill="#040404"
            d="M 365.5,452.5 C 413.501,452.333 461.501,452.5 509.5,453C 517.023,457.115 518.357,462.782 513.5,470C 511.285,471.044 508.952,471.71 506.5,472C 459.5,472.333 412.5,472.667 365.5,473C 358.763,474.736 354.263,478.903 352,485.5C 351.333,529.5 351.333,573.5 352,617.5C 354.874,625.702 360.707,630.202 369.5,631C 416.5,631.333 463.5,631.667 510.5,632C 517.667,637.011 518.334,642.844 512.5,649.5C 510.885,650.154 509.218,650.654 507.5,651C 460.833,651.667 414.167,651.667 367.5,651C 350.024,649.178 338.524,640.012 333,623.5C 332.667,621.167 332.333,618.833 332,616.5C 331.036,570.805 331.369,525.138 333,479.5C 338.577,464.083 349.41,455.083 365.5,452.5 Z" />
    </g>
    <g>
        <path style="opacity:1" fill="#303030"
            d="M 372.5,453.5 C 416.501,453.333 460.501,453.5 504.5,454C 510.345,454.012 514.012,456.845 515.5,462.5C 514.079,465.535 512.079,468.035 509.5,470C 462.167,470.333 414.833,470.667 367.5,471C 356.596,472.273 350.763,478.44 350,489.5C 349.333,531.167 349.333,572.833 350,614.5C 350.696,624.442 355.863,630.276 365.5,632C 412.833,632.333 460.167,632.667 507.5,633C 515.463,636.521 516.796,641.521 511.5,648C 463.546,649.647 415.546,649.981 367.5,649C 349.897,647.064 338.731,637.564 334,620.5C 333.333,574.833 333.333,529.167 334,483.5C 337.15,471.355 344.317,462.522 355.5,457C 361.224,455.432 366.89,454.266 372.5,453.5 Z" />
    </g>
</svg>