<svg xmlns="http://www.w3.org/2000/svg" xmlns:xlink="http://www.w3.org/1999/xlink" width="186.757"
    height="176" viewBox="0 0 186.757 176">
    <defs>
        <clipPath id="clip-path">
            <rect id="Rectangle_258" data-name="Rectangle 258" width="149.909" height="163.176"
                transform="matrix(0.174, -0.985, 0.985, 0.174, 0, 147.626)" fill="#5c55c9" />
        </clipPath>
    </defs>
    <g id="arrow" transform="translate(0 0)" clip-path="url(#clip-path)">
        <path id="Path_158" data-name="Path 158"
            d="M88.108,103.281c-.191-.192-.331.131-.4.153C88.109,103.654,88.156,103.2,88.108,103.281Z"
            transform="translate(-17.722 33.716)" fill="#5c55c9" />
        <path id="Path_159" data-name="Path 159" d="M84.431,104.756l-.137.068.718.077Z"
            transform="translate(-10.084 34.217)" fill="#5c55c9" />
        <path id="Path_160" data-name="Path 160"
            d="M84.515,106.737c-.016-.708-1.328-.633-1.8-1.231l-.028-.171-.52.215A15.343,15.343,0,0,1,84.515,106.737Z"
            transform="translate(-6.757 34.406)" fill="#5c55c9" />
        <path id="Path_161" data-name="Path 161"
            d="M81.525,108.11c-.012-.259.508.09-.421-.3l.057.1A2.682,2.682,0,0,1,81.525,108.11Z"
            transform="translate(-2.497 35.215)" fill="#5c55c9" />
        <path id="Path_162" data-name="Path 162" d="M81.6,107.9c-.389-.2.155.3,0,0Z"
            transform="translate(-2.935 35.227)" fill="#5c55c9" />
        <path id="Path_163" data-name="Path 163"
            d="M80.471,108.558l-.145-.025a1.851,1.851,0,0,0-.282-.05l-.3-.053c-.014.081.14.2.233.283s.269.222.093.182C81.063,109.259,80.882,109.011,80.471,108.558Z"
            transform="translate(0.164 35.417)" fill="#5c55c9" />
        <path id="Path_164" data-name="Path 164"
            d="M79.736,108.548l-.435-.127C79.351,108.514,79.462,108.591,79.736,108.548Z"
            transform="translate(1.817 35.414)" fill="#5c55c9" />
        <path id="Path_165" data-name="Path 165"
            d="M79.625,108.257a3.638,3.638,0,0,1,.4.07l.484.134c-.09-.149-.019-.318-.432-.142.069-.062.014-.081-.052-.084a1.629,1.629,0,0,1-.194-.035A1.06,1.06,0,0,1,79.625,108.257Z"
            transform="translate(0.62 35.342)" fill="#5c55c9" />
        <path id="Path_166" data-name="Path 166"
            d="M81.166,108.212c-.229-.256-.558-.513.075-.426C80.213,107.347,80.152,107.785,81.166,108.212Z"
            transform="translate(-1.196 35.147)" fill="#5c55c9" />
        <path id="Path_167" data-name="Path 167"
            d="M82.471,106.148l-.27-.356-.405-.013C81.989,105.813,82.4,106.343,82.471,106.148Z"
            transform="translate(-4.227 34.551)" fill="#5c55c9" />
        <path id="Path_168" data-name="Path 168"
            d="M76.961,108.55c-.027-.13-.329-.208-.441-.328a1.661,1.661,0,0,1-.17.162l-.281.224C76.516,108.479,76.827,108.41,76.961,108.55Z"
            transform="translate(8.88 35.349)" fill="#5c55c9" />
        <path id="Path_169" data-name="Path 169"
            d="M76.087,108.339l.466-.474C76.038,108.1,76,108.231,76.087,108.339Z"
            transform="translate(9.312 35.233)" fill="#5c55c9" />
        <path id="Path_170" data-name="Path 170" d="M74.491,107.657l-.168.434.34-.7Z"
            transform="translate(13.495 35.077)" fill="#5c55c9" />
        <path id="Path_171" data-name="Path 171"
            d="M72.6,107.057c-.1.348.524.143.367.422a3.112,3.112,0,0,0,.729-1.016A1.812,1.812,0,0,1,72.6,107.057Z"
            transform="translate(16.771 34.775)" fill="#5c55c9" />
        <path id="Path_172" data-name="Path 172"
            d="M72.668,106.086a3.878,3.878,0,0,0-.319.532A1.822,1.822,0,0,0,72.668,106.086Z"
            transform="translate(18.108 34.652)" fill="#5c55c9" />
        <path id="Path_173" data-name="Path 173"
            d="M74.856,107.555a.676.676,0,0,0,.3.1.7.7,0,0,0,.309-.04l-.393-.178Z"
            transform="translate(11.988 35.093)" fill="#5c55c9" />
        <path id="Path_174" data-name="Path 174" d="M74.8,107.492l.478-.256Z"
            transform="translate(12.253 35.027)" fill="#5c55c9" />
        <path id="Path_175" data-name="Path 175"
            d="M75.313,107.558l.055-.031S75.313,107.509,75.313,107.558Z"
            transform="translate(11.476 35.122)" fill="#5c55c9" />
        <path id="Path_176" data-name="Path 176"
            d="M76.979,108.549c.462-.45,1.238-1.076.279-.922C77.017,108.008,77.6,107.9,76.979,108.549Z"
            transform="translate(6.917 35.147)" fill="#5c55c9" />
        <path id="Path_177" data-name="Path 177"
            d="M76.344,107.375l-.631.228c.053.076.225.139.1.309Z" transform="translate(9.97 35.073)"
            fill="#5c55c9" />
        <path id="Path_178" data-name="Path 178" d="M75.764,107.179l-.221.26.224-.094Z"
            transform="translate(10.771 35.009)" fill="#5c55c9" />
        <path id="Path_179" data-name="Path 179"
            d="M73,106.539a2.394,2.394,0,0,1,.7-.706,6.547,6.547,0,0,0-1.022.559C72.714,106.529,72.669,106.787,73,106.539Z"
            transform="translate(16.633 34.569)" fill="#5c55c9" />
        <path id="Path_180" data-name="Path 180"
            d="M74.161,106.9l.01-.057S74.1,106.844,74.161,106.9Z"
            transform="translate(14.232 34.898)" fill="#5c55c9" />
        <path id="Path_181" data-name="Path 181" d="M70.622,104.27l-.081-.015.024.054Z"
            transform="translate(22.552 34.054)" fill="#5c55c9" />
        <path id="Path_182" data-name="Path 182"
            d="M73.916,106.279a.826.826,0,0,0-.461.442c.174-.135.349-.279.549-.426C74,106.22,73.99,106.193,73.916,106.279Z"
            transform="translate(15.303 34.697)" fill="#5c55c9" />
        <path id="Path_183" data-name="Path 183"
            d="M72.328,105.564a3.452,3.452,0,0,0-.529.122C72,105.7,72.335,105.665,72.328,105.564Z"
            transform="translate(19.178 34.481)" fill="#5c55c9" />
        <path id="Path_184" data-name="Path 184" d="M73.986,106.865c.091.049.062.028,0,0Z"
            transform="translate(14.561 34.906)" fill="#5c55c9" />
        <path id="Path_185" data-name="Path 185"
            d="M74,106.958a1.459,1.459,0,0,0,.216-.377,2.376,2.376,0,0,0-.352.345A.369.369,0,0,1,74,106.958Z"
            transform="translate(14.545 34.813)" fill="#5c55c9" />
        <path id="Path_186" data-name="Path 186"
            d="M71.411,102.558c.182.289-.173.982-.915,1.083-.334.572.625,1.173,1.436,1.291-.07-.121-.152-.226.247-.787-.3.005-1.409.581-1.156,0,.565-.655.632-.329,1.056-.47-.516-.092.439-1.167-.094-1.494l-.414.649C71.514,102.774,71.623,102.486,71.411,102.558Z"
            transform="translate(21.145 33.375)" fill="#5c55c9" />
        <path id="Path_187" data-name="Path 187"
            d="M70.76,104.982l-.194.207a2.7,2.7,0,0,1,1.023-.235c.264-.41.265-.559.216-.658l-1.088.787Z"
            transform="translate(21.312 34.067)" fill="#5c55c9" />
        <path id="Path_188" data-name="Path 188"
            d="M72.217,105.746c-.029-.4.423-.888-.127-.976-.639.46-.288.547-.591.942.973-.8-.2.371.688.013a5.208,5.208,0,0,1-.523.463c.216-.094.43-.172.642-.243h0a.419.419,0,0,1-.032-.147c.358-.143.113.02.032.147s0,0-.008.048l.478-.446.457-.467A9.073,9.073,0,0,0,72.217,105.746Z"
            transform="translate(18.67 34.222)" fill="#5c55c9" />
        <path id="Path_189" data-name="Path 189"
            d="M76.981,106.848a.112.112,0,0,1,.042,0,.1.1,0,0,1,.039.016C77.109,106.83,77.124,106.791,76.981,106.848Z"
            transform="translate(7.536 34.891)" fill="#5c55c9" />
        <path id="Path_190" data-name="Path 190"
            d="M76.6,106.81a.527.527,0,0,1-.336.348c-.279.025-.081-.155-.147-.249-.112.162-.457.516.136.4l.064-.08c.5-.118,1.295-.028,1.239.053A2.47,2.47,0,0,0,76.6,106.81Z"
            transform="translate(8.478 34.888)" fill="#5c55c9" />
        <path id="Path_191" data-name="Path 191"
            d="M73.911,106.344l.41-.342c.2-.171.4-.362.4-.362a.745.745,0,0,0-.3.021.687.687,0,0,1-.31.012l.124.146C73.669,106.06,73.905,106.185,73.911,106.344Z"
            transform="translate(14.059 34.504)" fill="#5c55c9" />
        <path id="Path_192" data-name="Path 192" d="M70.168,104.407l.116.377.163-.784Z"
            transform="translate(23.221 33.97)" fill="#5c55c9" />
        <path id="Path_193" data-name="Path 193" d="M69.342,103.631l.175.28.153-.4Z"
            transform="translate(25.094 33.812)" fill="#5c55c9" />
        <path id="Path_194" data-name="Path 194"
            d="M81.573,61.6l-.27.118A1.147,1.147,0,0,0,81.573,61.6Z"
            transform="translate(-2.676 20.123)" fill="#5c55c9" />
        <path id="Path_195" data-name="Path 195"
            d="M79.8,61.612l.028-.161C79.76,61.538,79.723,61.606,79.8,61.612Z"
            transform="translate(1.113 20.073)" fill="#5c55c9" />
        <path id="Path_196" data-name="Path 196"
            d="M59.319,80.571c.268-.484.7-1.064.337-.969l-.348.179A1.524,1.524,0,0,1,59.319,80.571Z"
            transform="translate(48.282 25.998)" fill="#5c55c9" />
        <path id="Path_197" data-name="Path 197"
            d="M67.1,65.037l.021.161a1.946,1.946,0,0,0,.454-.028Q67.362,65.108,67.1,65.037Z"
            transform="translate(30.163 21.244)" fill="#5c55c9" />
        <path id="Path_198" data-name="Path 198"
            d="M68.624,65.806l-.237-.54A2.178,2.178,0,0,0,68.624,65.806Z"
            transform="translate(27.408 21.319)" fill="#5c55c9" />
        <path id="Path_199" data-name="Path 199"
            d="M88.845,64.544l-.082.467C89.193,64.738,88.916,64.706,88.845,64.544Z"
            transform="translate(-19.996 21.083)" fill="#5c55c9" />
        <path id="Path_200" data-name="Path 200"
            d="M62.371,95.308a4.085,4.085,0,0,0,.663-.787C62.666,94.863,62.165,95.057,62.371,95.308Z"
            transform="translate(41.043 30.874)" fill="#5c55c9" />
        <path id="Path_201" data-name="Path 201"
            d="M81.089,58.743c-.2.072-.283.141-.273.226C81.02,58.9,81.133,58.825,81.089,58.743Z"
            transform="translate(-1.555 19.188)" fill="#5c55c9" />
        <path id="Path_202" data-name="Path 202"
            d="M62.442,93.719l-.162.162a2.549,2.549,0,0,1-.342.9,1.126,1.126,0,0,0,.5-1.064Z"
            transform="translate(42.139 30.612)" fill="#5c55c9" />
        <path id="Path_203" data-name="Path 203"
            d="M93.457,91.883l-.017.1S93.49,91.931,93.457,91.883Z"
            transform="translate(-30.672 30.013)" fill="#5c55c9" />
        <path id="Path_204" data-name="Path 204"
            d="M90.176,101.089a4.467,4.467,0,0,1-.393-.367A1.314,1.314,0,0,0,90.176,101.089Z"
            transform="translate(-22.529 32.9)" fill="#5c55c9" />
        <path id="Path_205" data-name="Path 205" d="M66.535,100.672c-.184.241-.011.065,0,0Z"
            transform="translate(32.065 32.883)" fill="#5c55c9" />
        <path id="Path_206" data-name="Path 206"
            d="M68,100.81a.187.187,0,0,0-.04-.2.243.243,0,0,1,.04.2Z"
            transform="translate(28.595 32.864)" fill="#5c55c9" />
        <path id="Path_207" data-name="Path 207" d="M62.7,91.048c-.081.035-.064.03,0,0Z"
            transform="translate(40.937 29.74)" fill="#5c55c9" />
        <path id="Path_208" data-name="Path 208"
            d="M66.516,100.9a2.921,2.921,0,0,0,.329-.215A2.3,2.3,0,0,0,66.516,100.9Z"
            transform="translate(31.669 32.888)" fill="#5c55c9" />
        <path id="Path_209" data-name="Path 209"
            d="M66.839,100.9l-.2.172C66.663,101.144,66.713,101.144,66.839,100.9Z"
            transform="translate(31.508 32.958)" fill="#5c55c9" />
        <path id="Path_210" data-name="Path 210"
            d="M66.6,100.425a2.965,2.965,0,0,1-.344.346c.055-.032.089-.034.081.013Z"
            transform="translate(32.257 32.803)" fill="#5c55c9" />
        <path id="Path_211" data-name="Path 211"
            d="M96.988,75.805l-.052.057C97.051,76.157,97.072,76.036,96.988,75.805Z"
            transform="translate(-38.882 24.761)" fill="#5c55c9" />
        <path id="Path_212" data-name="Path 212"
            d="M62.573,74.586c.55.28.538.535.531.857l.932-.566-.726-.128C62.947,74.685,62.573,74.586,62.573,74.586Z"
            transform="translate(39.708 24.363)" fill="#5c55c9" />
        <path id="Path_213" data-name="Path 213"
            d="M79.053,63.567l.71.125c-.6.724-1.152.726-.461.964-.258-1.132,2.32-.744,2.2-1.8l.463.157c-.113-.02-.13.077-.249.089.9.375.487-.918,1.618-.868.387.068.668.176.424.332l.838-.317c.242.043.188.207-.036.2,0,0,1.3-.136,1.293-.112a4.694,4.694,0,0,1,.841-.523c.329.166-.177.11-.094.249l.37-.117a3.436,3.436,0,0,1,.377-.108c.277.315-.35.519-.842.482.634,1.124.627-.254,2,.536l-.686.07a1.09,1.09,0,0,0,.667.557,3.737,3.737,0,0,1,.891.464c-.118-.228-1.33-1.231-.532-1.372a1.068,1.068,0,0,0,.946.059c-.068.386.354.353.859.459l-.155.5c.569-.016.591-.286.967-.435.6.2.592.652.652,1.02.909.368-.453-.827.691-.567a3.506,3.506,0,0,0,1.067.412c.371.066.82.07,1.313.149.452.412-.227.25-.084.475l.644-.16c.114.062.021.161-.037.209.46.081.267-.476.956-.279.212-.211.43.159.736.545s.613.814,1.143.783c.091.24-.262.211-.323.416a14.959,14.959,0,0,0,2.1.446s.42.779.409.794c-.182-.713.685-.535,1.468-.3a4.25,4.25,0,0,0-.1-.7l.971.628c.039.156-.177.2-.472.224l.25.044c.131.438-.225.475-.641.476l-.06-.508a1.346,1.346,0,0,0-1.023.375.929.929,0,0,1,.357.146.179.179,0,0,0-.208.1c-.01.056.153.027.371.066l-.234.573.2-.122.655,1.286a6.522,6.522,0,0,1,3.448,1.912c-.6-.105-.641.285-1.092.529.2-.646-.842-.978-1.264-1.65.216.378-.077.435-.171.4,0,0,.32.214.618.458l.6.488c-.376.2-.074.418-.037.823.55-.666,1.036.681,1.528,1.1-.244.156-.522.132-.838-.53-.172.974,1.341.511,1.238,1.472-.087-.165-.095-.266-.251-.277.426.274.6,1.325.322,1.194l-.071-.162c.425,1.129,1.253,3.457,1.96,3.458a5.127,5.127,0,0,1-1.008.054s.722.343,1.434.735l1.4.812c-.625-.044-1.84.995-2.412.089A1.975,1.975,0,0,0,108,81.805c.037-.209.747-.7.855-.413a5.7,5.7,0,0,0-.615,1.6c.055-.314,1.062-.169,1.1.319-.153-.027-.868.2-1.031.042l1.1,1.024c-.21-.269-.778.07-1,.363.175-.143.113,1.007.252,1.306l.142-.523c.048,1.328,1.457,1.17,1.485,2.519-.2-.151-1.193-.31-1.261.358a9.655,9.655,0,0,1,1.416.889,3.536,3.536,0,0,1,1.256,1.649l-.273.226.148.482c.083.239.14.481.14.481a34.846,34.846,0,0,1-2.786-3.072c-.194.488-.317.143-.295.869-.253.254-.372-.389-.385-.6l-.179,1.628c.561-.067.536,1.3.966,1.266a9.126,9.126,0,0,0-.242-.939l-.285-.88a1.272,1.272,0,0,1,.97.678,2.611,2.611,0,0,1,.371.771,2.138,2.138,0,0,1,.04.9c-.252.3-.96-.311-1.146-.294a1.749,1.749,0,0,1,.108,1.272l-.246-.541c-.278.631.624,1.18-.02,1.9-.05.282-.836.682-.523.8a4.2,4.2,0,0,1,3.035.3,7.155,7.155,0,0,1-1.261,1.677c-.593.343-.964-.95-1.482-.652.153.027.265.337.293.458-.2.255-.425-.233-.521.406.515.24-.371,1.254.386.408-.015.653-.26.626-.461,1.338.421-.125.947,1,.875,1.69-.119-.079-.341,0-.446.029a8.8,8.8,0,0,1-.363.832l-.4.668a10.588,10.588,0,0,0-.773,1.407c-.151.056-.588.5-.679.17a1.288,1.288,0,0,1-.069.768c-.772.411.328-.772-.452-.553.266.188-.053,1.053-.131,1.636.508.09.67-1.06.742-1.611.621.3.822,1.473.451,2.818-.424.987-.626.155-.646.359-1.115,1.6.125,2.121-1.293,3.174-.746.267-.743-.5-1.064-.57.36-.766.986-.871,1.315-1.369l-.282.232-.29.231a1.819,1.819,0,0,1,.521-1.02,1.636,1.636,0,0,0-.561.54c-.231.274-.508.616-.79.989s-.578.728-.9,1.128a6.939,6.939,0,0,1-.986.871c-.053.3-.255.785.026.7l.262-.4c.56-.109-.179,1.014.309.652a10.3,10.3,0,0,1-.395,1.058,2.566,2.566,0,0,1-.845.922l-.484-.227c.118.088.638-.219.705-.505-.077.434-1.464.512-1.291,1.282l.694-.21c-.147.314-.261.726-.444,1.1a2.318,2.318,0,0,1-.8.929c.613.109.1-.165.939-.133-.444-.078-.024-.427.328-.772s.668-.67.115-.651c.906.052.928-.541,1.923-.715-.15-.093-.424,0,.084-.475a.566.566,0,0,1,.036-.2h0a.729.729,0,0,1-.417.1c-.059-.517.67-1.343.758-1.75.328-.257.038.256.315.2l.108-.612c.331.2,1.173-.473.756.432l.562-.731a2.778,2.778,0,0,0,1.115-1.272c.334-.29.254-1.109.3-.635l.555-1.3.089.016a5.629,5.629,0,0,0,.5-.915l.395-1.009a5.239,5.239,0,0,1,1.267-1.9,4.58,4.58,0,0,1,.593-1.613l.36-.011c.152-.579.913-1.59.691-1.936a1.958,1.958,0,0,0,.968-1.621,14.242,14.242,0,0,1,.456-2.11l-.4-.129a10.153,10.153,0,0,0,.152-2.321h-.375a1.454,1.454,0,0,1,.022-.643,6.51,6.51,0,0,1,.142-.8,7.779,7.779,0,0,0,.37-1.719c.134.09.072.394-.039.6a2.535,2.535,0,0,0,.185-2.224,3.718,3.718,0,0,1-.1-2.125.945.945,0,0,1-.052-.789.154.154,0,0,0-.013.072l.023-.129c.027-.153.12-.3.166-.469a1.311,1.311,0,0,0-.171.4,5.3,5.3,0,0,0-.222-.819l.376-.2.014-.08c.118-.386-.2-.276-.483-.044a1.48,1.48,0,0,0-.284-.465c.588-.361-.342-.89.249-1.408-.355-.2-.516-1.792-1.249-1.88.088-.026.109-.147.153.027a1.673,1.673,0,0,0-.272-1.143l.456-.276-.418-.364-.428-.358c.17-.584.284-.854.789-.417-.891-1.128-.466-.987-1.33-1.894l.332-.041c-.124-.379-.683-.843-.554-1.152a5.6,5.6,0,0,0-.67-2.757c-.236-.6-.552-1.209-.805-1.8a12.4,12.4,0,0,1-.708-1.785c-.571.878-.221-1.151-.9-.831.107-.23.036-.583.406-.368a7.709,7.709,0,0,1-.843-1.211,1.451,1.451,0,0,0-.947-.765c.044-.249.427-.016.441-.188-.1-.019-.4-.171-.387-.351s.258.046.468.083a1.263,1.263,0,0,0-1.993-.161.943.943,0,0,0-1.077-.829c-.005-.3-.124-.711.484-.246-.246-.35-1.8-1.977-2.148-1.549-.025-.187-.468-.365-.59-.378a7.577,7.577,0,0,0-1.642-1.07l.181.2c-.631.37-.737-.255-1.427-.542l.01-.056c-1.359-1.07-.734-.13-2.085-1.248l-.071.4c-.222.359-.512.117-.883-.231a2.233,2.233,0,0,0-1.367-.739l.268.321c-.293.056-.549-.329-.824-.751s-.56-.879-.826-.976c-.1-.1.212-.07.39-.089-1.313-.813-.3.446-1.366.339-.139-.3.4-.644-.321-.82-.159-.136-.728-.021-1.356.092a2.588,2.588,0,0,1-1.778-.107c.2.226.4.443-.1.587a4.928,4.928,0,0,1-1.322-.383,1.354,1.354,0,0,0-1.341.195.181.181,0,0,1-.147-.159,6.507,6.507,0,0,0-2.139.85c-.357-.619-1.24-.327-2,.028s-1.436.734-1.607.148l-.837.309-.579.213a2.543,2.543,0,0,0-.229.167l.023-.129a2.209,2.209,0,0,0-1.582,1.231c-.272.035-.156-.152-.16-.227a3.51,3.51,0,0,0-2.585,1.917l-.345-.26c-.085.2-.664.414-1.357.756a5.078,5.078,0,0,0-1.943,1.582.31.31,0,0,1,.044-.25,4.559,4.559,0,0,1-1.022,1.073l-.631.461L66.6,67.3a3.982,3.982,0,0,0-.891.946,1.036,1.036,0,0,0,0,1.029L65.3,70.448c.987-1.162.4.543.968.171-.289.5-1.189,1.035-.9.373l.119-.062c-.5-.653-1.228,1.443-1.654,1.168a32.32,32.32,0,0,0-3.467,8.183l.651-.2-.228.964c-.189.224-.536.254-.364-.438-.42.307.051,1.22.185,1.261-.427,1.335-.61-.647-.684-.229l-.036.583.087-.117c.116.518.391.567.249,1.372-.16.528-.383.239-.428.447-.04-.007-.063.072-.057.322l-.071.635-.109.62.509-.482c.175.562-.057,1.168.474.615a4.124,4.124,0,0,0-.473,2.68,24.045,24.045,0,0,1,.132,2.455,6.115,6.115,0,0,1,.66,2.39c.044-.249.548-.467.634.319-1.144-.069-.11,1.516-.717,2.363.347-.694.717,2.209,1.185,1.114.134.654-.385.156-.465.748a7.352,7.352,0,0,1,.928,2.471,12.312,12.312,0,0,0,1.055,2.742c.139-.034.2-.429.574-.139l-.223,1.263c.261.312.913-.079.835.786.027-.153.141-.373.313-.169a12.294,12.294,0,0,0,.592,1.358l.341.658c.129.214.268.412.406.619.573.807,1.181,1.6,1.794,2.375A27.056,27.056,0,0,1,70,111.979a15.411,15.411,0,0,1,1.718,2.569c-.179-.588.062-.354.386-.065-.142-.232.251-.245.357-.418l.386.781.427.74c.593-.2,1.354,1.144,1.819.868l-.451-.271c.917-.012.179-1.628.79-2.166-.511.017-.743-.5-.963-1a1.565,1.565,0,0,0-1.287-1.19c-.073-.295.342-.006.374-.233-.451.012-.794-.215-1.132-.8l.113.02a9.3,9.3,0,0,1-1.435-1.863l-.592-.934c-.206-.343-.4-.767-.665-1.229l-.222.359a1.732,1.732,0,0,1-.219-.785c-.807-.142.709,1.071-.095,1.054.143-.481-.314-1.142-.757-1.793s-.751-1.352-.482-1.745c-.343-.6-.28.407-.63-.2l.116-.278-.365-.006a.709.709,0,0,1,.155-.877c.03.113.207.244.281.34-.072-.627-.846-1.427-.848-1.652l.141.664a22.674,22.674,0,0,1-1.357-2.729,12.691,12.691,0,0,0-1.308-2.72l-.124.185c-.706-1.278-.1-1.154-.639-2.6l.064.011a1.879,1.879,0,0,1-.509-1.077c.28.348.287-.779.608-.332-.578-1.438-.429-.681-1.23-1.611l.28-.266a1.57,1.57,0,0,1-.635-1.116c.331.623.41-.533.807.142.547-1.638-.8-2.4.189-3.145-.823-.759-.49,1.407-.657.988-.273.367-.623-.616-.53-1.147.046-.257.285-.481.555-.79a2.08,2.08,0,0,0,.621-1.351c-.023.129.05.142.035.272.24-.464-.209-.983.227-1.52-.461-.405.134-.756-.5-.919L62.8,83.35c-.07-.685-.757-1.461-.147-2.515a1.9,1.9,0,0,1,.263.727c.25-.288,0-.648.266-.94.624.235-.188,1.444.237,2.241.159-.146.088-.5.06-.761s.007-.414.322-.175c-.763-.674.322-1.213-.094-2.2l.365.147a1.631,1.631,0,0,1-.05-.706l.365.571a1.085,1.085,0,0,1,.263-.974,1.517,1.517,0,0,0,.5-1.056c-.447,1.307-.542.145-1.022.649.12-1.813,1.231-.612,1.818-2.426-.044.25-.6.791-.6.35a2.648,2.648,0,0,1,.815-.8c.5-1.157-.458,0-.422-.581.623-.18.114-.644.217-1.231l.342.185c.941-1.137-.517-.747.44-1.739l.164.767.24-.655.311.362c.086-.815.348-.934.863-1.449-.315-.056-.534-.509-.133-1.036.475-.19.134.422.687-.31.052.316.154.683-.392.761.072.112.077.321.15.425.485-.2.8-.846,1.026-1.1a.819.819,0,0,1-.294.205l.22-.683a4.673,4.673,0,0,1,.173-.459l.085-.2c.258-.046.222.155.188.349a7.015,7.015,0,0,1,.416-.756c.155.3.4.519.121,1.009l.631-1.125c.153.027.737-.119.686.071a2.181,2.181,0,0,0,.78-.933,2.248,2.248,0,0,1,1-.928.619.619,0,0,1,.176-.334c.783-.384,1.584-.442,2.293-1.255l.376.133.376.133c.664-.414-1.026-.364.112-1.059.81-.537.51.314.872.337a3.081,3.081,0,0,1,.691-.758,1.345,1.345,0,0,1,1.191-.288C79.522,63.451,79.291,63.443,79.053,63.567Zm9.758-.982c-.206.038-.613.265-.726.013.264-.41.418-.2.725,0Zm13.829,6.167c-.194-.034-.3-.243-.363-.537a1.079,1.079,0,0,1,.361.545Zm2.645,42.884c.407-.326.259-.245,0,0Zm-.739.7c-.02.113.024.145.1.142-.038-.114.054-.306.27-.492-.133,0-.263.078-.371.358ZM59.922,84.078l.116-.187C60.118,84.336,60.024,84.2,59.922,84.078Z"
            transform="translate(-4.859 19.163)" fill="#5c55c9" />
        <path id="Path_214" data-name="Path 214"
            d="M68.241,65.658a.425.425,0,0,1,.088-.217C68.229,65.44,68.179,65.489,68.241,65.658Z"
            transform="translate(27.933 21.376)" fill="#5c55c9" />
        <path id="Path_215" data-name="Path 215"
            d="M62.745,88.093a.922.922,0,0,1,.287-.306C62.946,87.755,62.843,87.82,62.745,88.093Z"
            transform="translate(40.484 28.672)" fill="#5c55c9" />
        <path id="Path_216" data-name="Path 216"
            d="M67.792,102.607l.4-.544a.991.991,0,0,1-.507.325C67.753,102.45,67.935,102.458,67.792,102.607Z"
            transform="translate(28.781 33.338)" fill="#5c55c9" />
        <path id="Path_217" data-name="Path 217"
            d="M72.355,103.781c-.017.1-.145.115-.188.215l.127.131C72.6,103.883,72.729,103.6,72.355,103.781Z"
            transform="translate(18.431 33.88)" fill="#5c55c9" />
        <path id="Path_218" data-name="Path 218"
            d="M69.754,102.08c-.263-.2-.482.139-.775.478l.06-.056C69.252,102.945,69.511,102.518,69.754,102.08Z"
            transform="translate(25.491 33.323)" fill="#5c55c9" />
        <path id="Path_219" data-name="Path 219"
            d="M69.914,102.492a1.977,1.977,0,0,1-.307.277C69.685,102.94,69.754,102.687,69.914,102.492Z"
            transform="translate(24.499 33.478)" fill="#5c55c9" />
        <path id="Path_220" data-name="Path 220"
            d="M65.934,100.052c-.211.112.232.381.049.383C66.152,100.887,66.533,99.013,65.934,100.052Z"
            transform="translate(33.105 32.577)" fill="#5c55c9" />
        <path id="Path_221" data-name="Path 221" d="M69.447,101.706l.4.194-.045-.406Z"
            transform="translate(24.78 33.152)" fill="#5c55c9" />
        <path id="Path_222" data-name="Path 222"
            d="M68.347,99.976l-.265.226-.286.207c.065.012.027.13-.04.226C68.1,100.355,68.452,100.045,68.347,99.976Z"
            transform="translate(28.503 32.656)" fill="#5c55c9" />
        <path id="Path_223" data-name="Path 223"
            d="M68.555,100.474a1.29,1.29,0,0,0-.345.446A2.326,2.326,0,0,0,68.555,100.474Z"
            transform="translate(27.713 32.819)" fill="#5c55c9" />
        <path id="Path_224" data-name="Path 224" d="M68.866,101.2l.207-.088.365-.325Z"
            transform="translate(25.957 32.92)" fill="#5c55c9" />
        <path id="Path_225" data-name="Path 225"
            d="M64.3,95.658l.269-.724a.377.377,0,0,0-.341.28C64.145,95.49,64.119,95.685,64.3,95.658Z"
            transform="translate(37.065 31.009)" fill="#5c55c9" />
        <path id="Path_226" data-name="Path 226"
            d="M65.67,96.567c.171-.119.255-.079.433-.1l-.412-.305Z"
            transform="translate(33.532 31.411)" fill="#5c55c9" />
        <path id="Path_227" data-name="Path 227"
            d="M65.455,95.21c-.061-.127.2-1.127-.246-.3C65.294,95.04,65,95.719,65.455,95.21Z"
            transform="translate(34.794 30.895)" fill="#5c55c9" />
        <path id="Path_228" data-name="Path 228" d="M61.188,87.4l-.034.193.825.137Z"
            transform="translate(43.649 28.55)" fill="#5c55c9" />
        <path id="Path_229" data-name="Path 229"
            d="M62.415,80.124c-.151.853.521.158.334.938.208.186.155-.645.338-.455C62.849,80.118,62.972,79.841,62.415,80.124Z"
            transform="translate(40.897 26.135)" fill="#5c55c9" />
        <path id="Path_230" data-name="Path 230"
            d="M62.283,80.46l.146.258A.655.655,0,0,0,62.283,80.46Z"
            transform="translate(41.701 26.282)" fill="#5c55c9" />
        <path id="Path_231" data-name="Path 231" d="M88.53,102.351l.34.525-.109-.467Z"
            transform="translate(-19.561 33.432)" fill="#5c55c9" />
        <path id="Path_232" data-name="Path 232"
            d="M87.794,102.574l-.238.5.574-.139C87.985,102.857,87.767,102.727,87.794,102.574Z"
            transform="translate(-17.529 33.505)" fill="#5c55c9" />
        <path id="Path_233" data-name="Path 233"
            d="M76.915,62.7l.023-.129c-.048-.15-.167-.187-.4-.244l.168.179A1.912,1.912,0,0,1,76.915,62.7Z"
            transform="translate(8.278 20.36)" fill="#5c55c9" />
        <path id="Path_234" data-name="Path 234" d="M81.823,62.153l.124.005-.277-.456Z"
            transform="translate(-3.536 20.155)" fill="#5c55c9" />
        <path id="Path_235" data-name="Path 235"
            d="M85.435,63.632c.22-.069.432-.28.651-.341C85.662,63.523,85.146,63.1,85.435,63.632Z"
            transform="translate(-12.559 20.674)" fill="#5c55c9" />
        <path id="Path_236" data-name="Path 236"
            d="M66.225,15.8c-1,.445-.485.578-.61.722C67.217,15.647,66.145,15.732,66.225,15.8Z"
            transform="translate(33.24 5.148)" fill="#5c55c9" />
        <path id="Path_237" data-name="Path 237"
            d="M50.586,13.234l-.345.113s.706-.041,1.42-.031,1.426.028,1.426.028l-1.252-.072a4.1,4.1,0,0,0-.827-.03C50.8,13.247,50.586,13.234,50.586,13.234Z"
            transform="translate(67.015 4.324)" fill="#5c55c9" />
        <path id="Path_238" data-name="Path 238"
            d="M50.277,17.161c-1.46-1.154-6.306-1.985-9.366-2.89l-.489-.244-1.522.138A65.721,65.721,0,0,1,50.277,17.161Z"
            transform="translate(84.874 4.583)" fill="#5c55c9" />
        <path id="Path_239" data-name="Path 239"
            d="M34.318,20.23c-.209-.228.266-.044.311-.02l-.385-.176c-.323-.148-.889-.431-1.881-.8.179.115.232.149.337.209s.386.168.651.273S33.921,20.027,34.318,20.23Z"
            transform="translate(109.193 6.285)" fill="#5c55c9" />
        <path id="Path_240" data-name="Path 240" d="M34.21,19.447c-1.713-.709,1.042.649,0,0Z"
            transform="translate(107.683 6.284)" fill="#5c55c9" />
        <path id="Path_241" data-name="Path 241"
            d="M29.639,22.67l-2.185-1.1c.366.38,2.224,1.538,1.453,1.194a6.487,6.487,0,0,0,1.586.77C30.539,23.468,30.191,23.124,29.639,22.67Z"
            transform="translate(119.837 7.047)" fill="#5c55c9" />
        <path id="Path_242" data-name="Path 242"
            d="M27.55,23.286l-1.078-.68A2.551,2.551,0,0,0,27.55,23.286Z"
            transform="translate(124.088 7.385)" fill="#5c55c9" />
        <path id="Path_243" data-name="Path 243"
            d="M27.284,21.649s.6.322,1.194.634c.306.154.6.314.831.429s.371.207.371.207c-.241-.283-.179-.447-1.092-.6C28.877,22.288,28.327,22.149,27.284,21.649Z"
            transform="translate(120.879 7.073)" fill="#5c55c9" />
        <path id="Path_244" data-name="Path 244"
            d="M33.4,21.48c-1.143-.783-2.722-1.642-.41-.695C28.778,18.681,29.207,19.362,33.4,21.48Z"
            transform="translate(113.51 6.373)" fill="#5c55c9" />
        <path id="Path_245" data-name="Path 245"
            d="M41.412,16.48l-1.741-.789-1.607-.325C38.833,15.485,41.429,16.665,41.412,16.48Z"
            transform="translate(94.847 5.02)" fill="#5c55c9" />
        <path id="Path_246" data-name="Path 246"
            d="M21.26,30.585c.194.034-.253-.874-.257-1.091l-.2-.2-.469-.406c-.338-.3-.686-.594-.686-.594.294.359.748.854,1.083,1.311A2.368,2.368,0,0,1,21.26,30.585Z"
            transform="translate(139.378 9.243)" fill="#5c55c9" />
        <path id="Path_247" data-name="Path 247"
            d="M18.477,29.213,20.339,31.2C18.84,29.277,18.48,29.006,18.477,29.213Z"
            transform="translate(141.904 9.524)" fill="#5c55c9" />
        <path id="Path_248" data-name="Path 248"
            d="M29.392,23.433l-.611-.357c-.373-.2-.84-.522-1.355-.762-1.021-.487-2.04-.982-2.04-.982s1.207.611,2.407,1.213L30.1,23.94Z"
            transform="translate(122.976 6.969)" fill="#5c55c9" />
        <path id="Path_249" data-name="Path 249" d="M15.855,36.655l-.988-1.187,1.7,2.167Z"
            transform="translate(150.469 11.586)" fill="#5c55c9" />
        <path id="Path_250" data-name="Path 250"
            d="M12.385,41.046c-.608-.937.159,1.6-.385.529.655,1.709,1.449,3.1,1.97,4.439C13.5,44.562,12.908,43.08,12.385,41.046Z"
            transform="translate(156.865 13.339)" fill="#5c55c9" />
        <path id="Path_251" data-name="Path 251"
            d="M12.227,46.967c-.272-.72-.577-1.446-.921-2.229C11.581,45.492,11.874,46.233,12.227,46.967Z"
            transform="translate(159.529 14.614)" fill="#5c55c9" />
        <path id="Path_252" data-name="Path 252"
            d="M15.894,33.51a3.94,3.94,0,0,0,.174.57,5.616,5.616,0,0,0,.252.551c.1.242.223.529.382.9,0,0-.2-1.114-.222-1.1Z"
            transform="translate(148.969 10.947)" fill="#5c55c9" />
        <path id="Path_253" data-name="Path 253"
            d="M15.229,34.15c.571,1.005.935,1.725,1.108,2.021C16.2,35.956,15.888,35.321,15.229,34.15Z"
            transform="translate(150.215 11.156)" fill="#5c55c9" />
        <path id="Path_254" data-name="Path 254"
            d="M16.521,33.344l.145.216a.278.278,0,0,0-.145-.216Z"
            transform="translate(148.172 10.892)" fill="#5c55c9" />
        <path id="Path_255" data-name="Path 255"
            d="M20.007,26.519c1.246,1,3.766,3.27,1.693.73C20.719,26.587,21.9,28.031,20.007,26.519Z"
            transform="translate(137.723 8.663)" fill="#5c55c9" />
        <path id="Path_256" data-name="Path 256"
            d="M18.932,32.919,18.158,31.7c-.2-.308-.439-.575-.6-.795l-.27-.355c-.018.1.181.579-.4.03L17.965,31.7Z"
            transform="translate(145.416 9.978)" fill="#5c55c9" />
        <path id="Path_257" data-name="Path 257" d="M17.107,33.452l-.876-1.117.572.906Z"
            transform="translate(148.117 10.563)" fill="#5c55c9" />
        <path id="Path_258" data-name="Path 258"
            d="M11.426,43.064a9.494,9.494,0,0,1,.415.9c.133.33.222.628.331.955l.646,2.089a35.451,35.451,0,0,0-1.4-4.786C11.232,42.043,10.81,41.412,11.426,43.064Z"
            transform="translate(159.209 13.705)" fill="#5c55c9" />
        <path id="Path_259" data-name="Path 259"
            d="M13.713,38.485c.036.081.094.174.131.247C13.8,38.567,13.772,38.437,13.713,38.485Z"
            transform="translate(154.719 12.568)" fill="#5c55c9" />
        <path id="Path_260" data-name="Path 260" d="M9.329,57.145l.045-.257a.2.2,0,0,1-.065-.011Z"
            transform="translate(165.031 18.578)" fill="#5c55c9" />
        <path id="Path_261" data-name="Path 261"
            d="M13.18,42.528a9.968,9.968,0,0,0-1.076-2.48c.408.844.724,1.787,1.109,2.768C13.289,42.9,13.33,42.9,13.18,42.528Z"
            transform="translate(157.418 13.082)" fill="#5c55c9" />
        <path id="Path_262" data-name="Path 262"
            d="M10.758,50.021c-.07-.643-.157-1.372-.263-2.137A8.884,8.884,0,0,0,10.758,50.021Z"
            transform="translate(162.075 15.641)" fill="#5c55c9" />
        <path id="Path_263" data-name="Path 263"
            d="M13.732,39.027l-.087-.165C13.741,39.261,13.75,39.2,13.732,39.027Z"
            transform="translate(154.915 12.695)" fill="#5c55c9" />
        <path id="Path_264" data-name="Path 264"
            d="M13.075,39.09c.309.561.592.984.875,1.407-.339-.674-.662-1.3-.958-1.829A2.831,2.831,0,0,1,13.075,39.09Z"
            transform="translate(155.572 12.632)" fill="#5c55c9" />
        <path id="Path_265" data-name="Path 265"
            d="M9.914,62.543a6.811,6.811,0,0,1-.433-2.259c-.115-1.232-.063-2.8-.079-4.262-.48-2.84-1.373-.848-1.8,1.591.143.083.282.05.525,2.964.09-.507.158-2.121.229-3.278s.1-1.932.343-.719a15.6,15.6,0,0,1,.169,2.154c0,.507-.013.828-.039,1.113-.1.539-.142.8-.239,1.775.182-.8.381.432.523,1.752s.26,2.768.574,2.358l-.078-3.424C9.7,62.248,9.8,63.493,9.914,62.543Z"
            transform="translate(166.75 17.844)" fill="#5c55c9" />
        <path id="Path_266" data-name="Path 266"
            d="M9.557,53.067,9.347,51.9c.065.667.1,1.246.126,1.881s-.059,1.325-.108,2.213a7.157,7.157,0,0,0,.579,2.467l-.064-.908-.147-1.992c-.055-.723-.085-1.451-.155-1.994l-.124-.9Z"
            transform="translate(164.412 16.954)" fill="#5c55c9" />
        <path id="Path_267" data-name="Path 267"
            d="M10.321,48.695c.538.817,1.279,3.595,1.286,1.812a13.878,13.878,0,0,0-.754-2.705c-.186-.406-.3-.651-.679-1.622a13.011,13.011,0,0,1,.393,1.5l.116.618c.019.178-.064-.061-.164-.344-.209-.56-.493-1.307-.172.692l-.389-1.521-.421-1.385c.113.493.244.973.328,1.444l.211,1.4.023-.129c-.007-.242,0-.324.01-.056l.03.113a.639.639,0,0,1,.187.216c.259,1.6-.047.265-.187-.216,0,0-.048-.058-.064-.061l.686,2.71c.154.683.257,1.373.357,1.889l.156.857c-.062-.592-.153-1.255-.272-2.089S10.6,49.989,10.321,48.695Z"
            transform="translate(162.495 14.94)" fill="#5c55c9" />
        <path id="Path_268" data-name="Path 268"
            d="M18.386,28.341c.1.158.07.17.056.2C18.713,28.8,18.821,28.891,18.386,28.341Z"
            transform="translate(143.685 9.258)" fill="#5c55c9" />
        <path id="Path_269" data-name="Path 269"
            d="M19.319,30.505a8.9,8.9,0,0,1-1.458-1.544c-.665-.947.136-.109.181-.225L17.5,28.21a6.281,6.281,0,0,0-.535-.41c-.273-.148-.2-.036.568.98l.291.284c.665.947,1.4,2.031,1.906,2.826a3.1,3.1,0,0,1,.6,1.317,7.916,7.916,0,0,0-.248-1.139A11.882,11.882,0,0,0,19.319,30.505Z"
            transform="translate(144.085 9.064)" fill="#5c55c9" />
        <path id="Path_270" data-name="Path 270"
            d="M11.457,38.629l.332.664c.188.4.479.914.707,1.461l.888,2.181-.539-2.369-.132.184C11.717,38.244,11.712,38.882,11.457,38.629Z"
            transform="translate(158.172 12.619)" fill="#5c55c9" />
        <path id="Path_271" data-name="Path 271" d="M9.707,57.629l-.385-.6.584,2.675Z"
            transform="translate(164.484 18.629)" fill="#5c55c9" />
        <path id="Path_272" data-name="Path 272" d="M9.766,62.11l-.316-.238.132,1.608Z"
            transform="translate(164.452 20.21)" fill="#5c55c9" />
        <path id="Path_273" data-name="Path 273"
            d="M77.309,57.236l1.5.1C78.1,57.293,77.631,57.293,77.309,57.236Z"
            transform="translate(5.382 18.696)" fill="#5c55c9" />
        <path id="Path_274" data-name="Path 274"
            d="M86.627,58.259l-.2.239C86.877,58.253,87.058,58.128,86.627,58.259Z"
            transform="translate(-14.772 19.013)" fill="#5c55c9" />
        <path id="Path_275" data-name="Path 275"
            d="M96.324,111.182c-1,.007-2.067-.166-2.84-.219s-1.261-.065-1.135.115l.626.317C94.358,111.242,95.423,111.247,96.324,111.182Z"
            transform="translate(-32.055 36.234)" fill="#5c55c9" />
        <path id="Path_276" data-name="Path 276"
            d="M82.454,108.435c-.25.046-.5.1-.76.155a5.348,5.348,0,0,1-.721.645C81.459,108.98,81.95,108.7,82.454,108.435Z"
            transform="translate(-3.12 35.419)" fill="#5c55c9" />
        <path id="Path_277" data-name="Path 277"
            d="M83.949,108l-.382-.333c-.242-.184-.475-.375-.475-.375A8.491,8.491,0,0,0,83.949,108Z"
            transform="translate(-7.425 35.045)" fill="#5c55c9" />
        <path id="Path_278" data-name="Path 278"
            d="M59.253,91.217l-.184,1.793C59.9,90.369,59.357,91.476,59.253,91.217Z"
            transform="translate(48.869 29.789)" fill="#5c55c9" />
        <path id="Path_279" data-name="Path 279"
            d="M32.453,102.779c-.737.45-1.39.849-2.007,1.189l-1.674,1c.913-.462,1.817-.866,2.447-1.228A3.155,3.155,0,0,0,32.453,102.779Z"
            transform="translate(116.134 33.572)" fill="#5c55c9" />
        <path id="Path_280" data-name="Path 280"
            d="M80.683,60.165c.79-.184,1.139-.181,1.114-.276a3.282,3.282,0,0,0-.932.142C80.663,60.087,80.573,60.129,80.683,60.165Z"
            transform="translate(-2.015 19.563)" fill="#5c55c9" />
        <path id="Path_281" data-name="Path 281"
            d="M31.518,106.817c.287-.115.557-.233.845-.357.539-.32,1.078-.639,1.652-.97s1.158-.716,1.855-1.084c-.7.317-1.426.678-2.156,1.089A15.922,15.922,0,0,0,31.518,106.817Z"
            transform="translate(109.073 34.103)" fill="#5c55c9" />
        <path id="Path_282" data-name="Path 282"
            d="M18.655,33.4l-.207-.385C18.384,33.006,18.5,33.167,18.655,33.4Z"
            transform="translate(143.65 10.786)" fill="#5c55c9" />
        <path id="Path_283" data-name="Path 283"
            d="M53.877,12.38c.607,0,1.587.015,2.479.1A15.013,15.013,0,0,0,53.877,12.38Z"
            transform="translate(58.925 4.04)" fill="#5c55c9" />
        <path id="Path_284" data-name="Path 284" d="M12.793,80.211c.359-1.231.035-.2,0,0Z"
            transform="translate(156.822 26.006)" fill="#5c55c9" />
        <path id="Path_285" data-name="Path 285"
            d="M10.564,75.813c-.048.274-.03.5.043.555A1.126,1.126,0,0,1,10.564,75.813Z"
            transform="translate(162.169 24.764)" fill="#5c55c9" />
        <path id="Path_286" data-name="Path 286"
            d="M43.267,111.345a1.114,1.114,0,0,0-.113.029C43.553,111.329,43.485,111.333,43.267,111.345Z"
            transform="translate(86.065 36.367)" fill="#5c55c9" />
        <path id="Path_287" data-name="Path 287"
            d="M12.96,78.723c-.187.448-.387.969-.591,1.555C12.474,80.015,12.656,79.549,12.96,78.723Z"
            transform="translate(157.386 25.714)" fill="#5c55c9" />
        <path id="Path_288" data-name="Path 288"
            d="M12.273,79.158l.372-1.071C12.635,77.911,12.562,78.039,12.273,79.158Z"
            transform="translate(157.829 25.485)" fill="#5c55c9" />
        <path id="Path_289" data-name="Path 289"
            d="M12.813,81.838c.248-.695.517-1.327.728-1.954-.1.231-.15.33-.145.256C13.272,80.508,13.108,81.01,12.813,81.838Z"
            transform="translate(156.218 26.093)" fill="#5c55c9" />
        <path id="Path_290" data-name="Path 290"
            d="M31.53,104.244l.261-.111C32.826,103.311,32.346,103.675,31.53,104.244Z"
            transform="translate(112.545 33.857)" fill="#5c55c9" />
        <path id="Path_291" data-name="Path 291"
            d="M117.84,109.282a.835.835,0,0,1,.153.027l-.172-.1Z"
            transform="translate(-87.54 35.67)" fill="#5c55c9" />
        <path id="Path_292" data-name="Path 292"
            d="M117.954,107.512a17.949,17.949,0,0,1,2.441,1.161c.682.337,1.275.7,1.95,1.116l-.921-1.664-.533-.094-1.178-.208C118.831,107.683,117.954,107.512,117.954,107.512Z"
            transform="translate(-92.07 35.117)" fill="#5c55c9" />
        <path id="Path_293" data-name="Path 293"
            d="M65.572,57.406c.157-.023.342-.046.555-.066,0,0-.209.023-.555.066l-.526.067c-.332.041-.707.091-1.114.135a10.053,10.053,0,0,0-1.255.276,22.858,22.858,0,0,0-2.318.595c-.614.224-1.03.366-1.03.366l.01-.056a34.75,34.75,0,0,0-3.713,2.182c-1.616.669.721-.5.267-.426l-.513.316c-.308.186-.71.439-1.094.728-.793.532-1.526,1.149-1.526,1.149-1.437.692.938-1.494,3.4-2.619a6.432,6.432,0,0,0-3.624,1.675l-.87.734c-.316.284-.674.611-1.112.974l-1.461,1.3c-.533.52-1.182,1.086-1.867,1.811,0,0,.554-.732,1.2-1.448l.023-.026a9.681,9.681,0,0,1,.851-.915l.413-.408c-2.213,1.178-4.127,3.536-6.5,7.151l1.071-1.354A19.588,19.588,0,0,1,45.9,67.775a3.493,3.493,0,0,1,1.137-.878c.16-.013.013.3-.551,1.189A13.628,13.628,0,0,0,44.013,72.4c-.378-.166-1.281,1.881-2.052,4.508l-.45-.328a10.626,10.626,0,0,0-.411,2.707c.011.55.034.936.021,1.813l-.415,1.976a12.576,12.576,0,0,1-.309,1.273,8.843,8.843,0,0,1-.6,1.4,5.076,5.076,0,0,0,.036,1.774c.065.011.134-.425.239-.788s.223-.79.295-.628a11.261,11.261,0,0,1,.154,2.284,26.342,26.342,0,0,0,.62,5.918,34.843,34.843,0,0,0,2.01,6.288c.877,2.9-.5-.387-.262.684l.69,1.184c.164.295.346.584.491.8l.228.356c.255.591.066.471-.062.39l-.007,0c1.169,1.957.547-.036,2.334,2.993a19.573,19.573,0,0,1,2.377,3.83c.6.936,1.33,1.894,2.083,2.857a10.028,10.028,0,0,0,1.233,1.313c.437.4.878.777,1.311,1.1.678.876-.589-.1-.5.236a38.134,38.134,0,0,0,8.311,5.616,1.55,1.55,0,0,1,.139.107,3.346,3.346,0,0,1,.308.237l.729.585c.217.187.434.367.592.511a1.324,1.324,0,0,0,.257.2c-.234-.232-.3-.385-.172-.438a2.18,2.18,0,0,1,.928.165c.489.153,1.168.406,1.975.739.419.174.852.358,1.293.544l.17.072.1.016-.259.2-.408.236c.1-.012.2-.025.284-.037l.857-.4c-.051-.224-.584-.468-.718-.642l.886.447.122.061,1.846-.792.116-.045.121.021.242.092.474.192.988.39,1.186.491,1.087.491c.724.328,1.41.731,2.123,1.031-.209-.088-.455-.155-.692-.272s-.478-.218-.7-.314a4.092,4.092,0,0,0-1.041-.325l1.8.74c.612.208,1.215.423,1.811.628,1.2.4,2.349.88,3.48,1.213q1.57.492,3.182.826c.508.09.956.194,1.452.257s.906.1,1.316.133l-.172-.4c3.753.415,6.672.487,9.706.561h.062l.166-.419a54.075,54.075,0,0,0,8.905-.626c3.262-.427,6.231-1.032,7.654-.938a24.561,24.561,0,0,1,3.642-1.116c.831-.186,1.7-.472,2.507-.72a18.143,18.143,0,0,0,2.128-.694l.713.06a35.047,35.047,0,0,0,6.591-3.118,34.977,34.977,0,0,0,8.313-4.9,72.543,72.543,0,0,0,6.626-6.1l.1.019.618-.721c.38-.406.823-.983,1.29-1.556l.09-.111c.436-.535.863-1.057,1.149-1.488l.537-.735c-.71,1.385.592-1,1.625-2.418.5-.784,1.168-1.81,1.793-2.895s1.372-2.164,1.916-3.122l.828-1.671.863-1.731c-1.427,3.98.532-.089.971-.177l.342-1.184.231-.789.067-.378c.516-.9-.272,1.587.422-.083.192-.8.705-2.3,1.191-3.872a26.736,26.736,0,0,0,.832-3.861,7.335,7.335,0,0,0-.7,1.4l-.011.064-.069.154.036-.2a5.273,5.273,0,0,0,.061-.678,7.188,7.188,0,0,0,.56-1.992c-.025-.1-.181.176-.27.209a32.076,32.076,0,0,0,1.439-4.052,17.043,17.043,0,0,1,1.08-3.287c-.28.582-.367.475-.284,0L161,74.648l.223-1.5c.154-1.06.346-2.146.379-2.854s-.03-1.009-.265-.478c.823-2.493.2-1.773.844-3.319-.274,1.786-.324,3.577-.427,5.293s-.137,3.369-.335,4.82l.46-1.379a6.925,6.925,0,0,0,.277-.955l.078-.443c.383,1.976-1.414,6.314-1.711,8a15.256,15.256,0,0,1,.541-2.261,5.934,5.934,0,0,1,.489-1.449l-.639.651c-.25.993-.521,1.916-.748,2.822s-.394,1.806-.584,2.6c-.414,1.636-.687,3.181-1.046,4.6,1.092-2.554-.865,3.249.155,1.479l.349-1.034.236-.722.06-.338c.237-.448.251-.147.136.406s-.333,1.368-.481,1.973L157.9,93.2l-1.348,2.923a58.982,58.982,0,0,1-3.013,5.94,35.634,35.634,0,0,1-5.445,7.266q-.115.119-.232.236l.232-.236a15.567,15.567,0,0,0,1.506-1.83,17.374,17.374,0,0,0,1.38-2.163l-1.053,1.25-1.087,1.21c.4-.495.81-.961,1.212-1.445l1.213-1.5a20.663,20.663,0,0,0,1.266-1.751l.667-1.044c.209-.365.409-.762.62-1.181l.021-.041c-.587.4.376-2.224-1.414.091-.493.768-.969,1.389-1.329,1.964s-.686,1.057-.962,1.49c-.563.88-.9,1.591-1.346,2.343a20.83,20.83,0,0,1-1.6,2.538,25.9,25.9,0,0,1-3.368,3.762c-.5.625,1.009-1.614-2.353,1.684-4.285,4.147-7.764,6.934-7.381,7.542,1.025-.765,2.563-1.979,3.912-2.977s2.48-1.936,2.96-1.966c-1.827,1.817-5.442,4.382-5.508,4.76-1.257.475-.277-.223.641-.849s1.722-1.223.146-.447c-1.491,1-2.05,1.572-2.729,2.074.9-.82-1.593.491-2.138.61a54.718,54.718,0,0,1-6.851,3.13,73.985,73.985,0,0,1-7.455,2.4h-.026c-.35.007-1.015.019-.886-.161-2.841.967-6.968,2.57-5.789,2.72a26.812,26.812,0,0,1-3.6.484c-.887.076-1.691.149-3.216.353,4.935.041-.959.013-1.449.573-3.143.226-1.111-.212-2.565-.269a6.629,6.629,0,0,0-1.853.411c-1.917-.406,3.712-1.137,1.441-1.613-.387-.068-1.08-.149-1.929-.241s-1.828-.248-2.765-.363l-3.841-.678c-1.485.3-1.337,2.3.884,3.144-.16.154-.878-.023-1.754-.244s-1.885-.54-2.563-.659a28.994,28.994,0,0,0-4.908-.95c-.728-.07-1.43-.2-2.156-.322a14.536,14.536,0,0,1-2.245-.671l1.267.224.871.154.4.07c-.264-.1-1.574-.511-2.912-.9s-2.744-.716-3.131-.785c-.062-.168,2.719-.084,1.347-.75-1.394-.495-2.741-1.064-4.041-1.477a5.37,5.37,0,0,0-.79-.239l-.347-.061c-.06-.036-.109.005-.165.037l-.157.089-.558.333-.714.413c-1.829,1.121-3.006,1.851-2.734,2.056l1.352-.541,1.35-.625.755-.363.2-.09.092-.05.04.008.149-.09a1.437,1.437,0,0,1,.356-.178l.371.065.161.029a3.3,3.3,0,0,0,.361.122,6.065,6.065,0,0,0,.659.224c.818.268,1.367.456,1.367.456.034.139-.339.082-.918-.078-.286-.076-.626-.178-1-.292a4.34,4.34,0,0,0-.559-.182l-.428-.076c-.071-.021-.144.107-.2.1l-.147.123-.06.056c0,.008-.161.064-.168.1-.519.3-.817.528-.675.62,0,0-.5.194-1.258.483s-1.808.577-2.83.9l-1.513.463-1.346.318-1.3.309c.525-.147,1.584-.442,2.34-.715s1.2-.552.539-.46a19.569,19.569,0,0,1-4.3.808c1.026-.391,2.167-.87,3.389-1.475s2.472-1.323,3.679-1.99c.6-.359,1.156-.75,1.7-1.109l.776-.486.932-.566.225-.142c.08-.028.078-.111.231-.084l.46.081.928.163,1.235.219s-.388-.161-.679-.253-1.09-.374-1.733-.6c-.327-.224-.651.058-.955.179l-.825.386-.62.305-1.074.142c-2.475,1.157-4.821,2.426-6.776,3.459l-1.376.769-1.183.621-1.627.874a4.58,4.58,0,0,1-1.673.053c-.355-.062-.507-.188-.541-.328-.059-.276.368-.624.733-.759a27.7,27.7,0,0,0-3.685.612c-.971.176-1.743.4-2.529.606a12.657,12.657,0,0,1-2.588.523c-.494.062-1.049.1-1.686.125a13.9,13.9,0,0,1-2.153-.056l.379.066.807.143c.606.057,1.221.107,1.221.107a14.382,14.382,0,0,1-1.757.005c-.731-.054-1.551-.125-2.307-.175a14.187,14.187,0,0,0-2.468-.162c-1.158-.373-2.148-1.065-1.19-1.159l-.606.02c-.543.012-1.274.049-1.987,0l-2.8-.113c-.034,0-.072,0-.113,0l.113,0c.706-.011.381-.812.748-.873a8.217,8.217,0,0,0-2.664-.18c-.512.093-.647.306-.131.539l.158.064c-.058-.021-.11-.042-.158-.064l-2.172-.878c-.551-.231-.909-.418-1.247-.569a27.785,27.785,0,0,1-2.82-1.56c-.614-.241-.675-.036-.459.292a2.837,2.837,0,0,0,1.145.958,14.9,14.9,0,0,1-1.95-.685c-.582-.236-1.085-.45-1.547-.663a15.48,15.48,0,0,1-2.23-1.223,12.634,12.634,0,0,0,1.458.556,3.113,3.113,0,0,0,.878.114c.428-.024.544-.211.589-.46.086-.491-.32-1.21.228-1.3l-.452-.08a11.262,11.262,0,0,1-1.23-.292c-.955-.285-2.3-.572-3.55-1.051s-2.611-.95-3.542-1.38-1.536-.72-1.536-.72a3.2,3.2,0,0,0,1.494-.076,7.658,7.658,0,0,1-2.206-1.219c-.139-.1-.281-.191-.439-.293l-.057-.052-.142-.142a2.5,2.5,0,0,1-.241-.324,1.537,1.537,0,0,1-.18-.911,1.636,1.636,0,0,1,1.018-1.381,1.388,1.388,0,0,1,.5-.135,1.987,1.987,0,0,1,.686.121l.056.009.073.013.081.015.263.162c.7.448,1.457.938,2.239,1.45a64.576,64.576,0,0,0,8.956,4.71h.005l.775.326c-.261-.107-.52-.216-.78-.328-.544-.1.279.365,1.508.913a23.235,23.235,0,0,0,2.365.812l-.012-.005a.071.071,0,0,1,.015.007q.782.223,1.58.39a4.1,4.1,0,0,1-1.58-.39h0a7.593,7.593,0,0,0,2.348.768,18.824,18.824,0,0,0,1.986.2,17.373,17.373,0,0,1,1.994.111,13.287,13.287,0,0,1,2.4.572c-3.486-.707-4.22-.6-4.109-.295,1.437.155,3.8.588,5.679.821s3.224.121,2.552-.321c.93.155,1.813.237,2.438.33s1,.151.909.367c0,0,.478-.023,1.152-.07s1.575-.061,2.458-.163,1.776-.208,2.436-.275,1.1-.146,1.1-.146c-.518.13-.958.422,1.065.268l.054,0-.054,0c-.479.038-.959.119-1.429.149-.488.031-.977.068-1.452.117-.961.072-1.912.227-2.75.261A12.4,12.4,0,0,1,41.4,127.8c-.138.5,1.375.881-.6,1.163a43.5,43.5,0,0,0,5.309-.1,40.507,40.507,0,0,0,4.276-.655c1.3-.317,2.516-.535,3.682-.918s2.295-.7,3.446-1.093l3.265-.585,2.03-.421a1.987,1.987,0,0,0-.156-.2s.334.042.721.061.828.023.828.023c.314-.268.373-.415.577-.438s.241.05.221.163a5.149,5.149,0,0,0,.5-.259c.073-.037-.032-.056-.088-.066s-.074.045-.169-.029a.544.544,0,0,0-.272-.106,5.1,5.1,0,0,1,1.444.255c.217.046.207.1.2.143l-.03.168a1.748,1.748,0,0,1-.3.387l-2.119.455c-.548.428-1.243.88-.337.795l.2-.08c.737-.31,1.487-.551,2.21-.88.357-.162.715-.328,1.072-.495-.087.012-.181.025-.284.037l.408-.236.259-.2-.1-.016-.17-.072c-.442-.186-.875-.37-1.293-.544-.806-.333-1.486-.586-1.975-.739a2.18,2.18,0,0,0-.928-.165c-.126.053-.061.206.172.438a1.324,1.324,0,0,1-.257-.2c-.158-.143-.376-.324-.592-.511l-.729-.585a3.346,3.346,0,0,0-.308-.237,1.55,1.55,0,0,0-.139-.107,38.134,38.134,0,0,1-8.311-5.616c-.09-.34,1.177.639.5-.236-.433-.325-.875-.7-1.311-1.1a10.028,10.028,0,0,1-1.233-1.313c-.754-.963-1.483-1.921-2.083-2.857a19.573,19.573,0,0,0-2.377-3.83c-1.787-3.029-1.165-1.036-2.334-2.993l.007,0c.127.081.317.2.062-.39l-.228-.356c-.145-.216-.327-.506-.491-.8l-.69-1.184c-.235-1.07,1.139,2.217.262-.684a34.843,34.843,0,0,1-2.01-6.288,26.342,26.342,0,0,1-.62-5.918,11.261,11.261,0,0,0-.154-2.284c-.072-.162-.188.265-.295.628s-.174.8-.239.788a5.076,5.076,0,0,1-.036-1.774,8.843,8.843,0,0,0,.6-1.4,12.576,12.576,0,0,0,.309-1.273l.415-1.976c.013-.877-.011-1.263-.021-1.813a10.626,10.626,0,0,1,.411-2.707l.45.328c.772-2.627,1.674-4.675,2.052-4.508a13.628,13.628,0,0,1,2.476-4.317c.564-.888.711-1.2.551-1.189a3.493,3.493,0,0,0-1.137.878,19.588,19.588,0,0,0-1.622,1.838L43.21,70.967c2.369-3.614,4.283-5.973,6.5-7.151l-.413.408a9.681,9.681,0,0,0-.851.915l-.023.026c-.642.716-1.2,1.448-1.2,1.448.686-.725,1.335-1.291,1.867-1.811l1.461-1.3c.438-.362.8-.689,1.112-.974l.87-.734a6.432,6.432,0,0,1,3.624-1.675c-2.462,1.125-4.836,3.311-3.4,2.619,0,0,.733-.617,1.526-1.149.384-.289.786-.542,1.094-.728l.513-.316c.455-.077-1.882,1.095-.267.426a34.75,34.75,0,0,1,3.713-2.182l-.01.056s.416-.142,1.03-.366a22.858,22.858,0,0,1,2.318-.595,10.053,10.053,0,0,1,1.255-.276c.407-.044.782-.094,1.114-.135Z"
            transform="translate(12.314 18.73)" fill="#5c55c9" />
        <path id="Path_294" data-name="Path 294"
            d="M82.629,107.925c.011-.064.146-.073.273-.084C82.535,107.751,82.4,107.727,82.629,107.925Z"
            transform="translate(-5.613 35.203)" fill="#5c55c9" />
        <path id="Path_295" data-name="Path 295"
            d="M59.279,90.967l-.028.161a.482.482,0,0,0,.02.169Z"
            transform="translate(48.875 29.713)" fill="#5c55c9" />
        <path id="Path_296" data-name="Path 296"
            d="M58.349,114.619a13.117,13.117,0,0,1-1.822-.19C56.485,114.53,56.9,114.6,58.349,114.619Z"
            transform="translate(53.419 37.377)" fill="#5c55c9" />
        <path id="Path_297" data-name="Path 297"
            d="M10.89,70.327l-.444,2.751a16.4,16.4,0,0,1,.622-2.438C10.969,70.681,10.731,71.178,10.89,70.327Z"
            transform="translate(161.831 22.972)" fill="#5c55c9" />
        <path id="Path_298" data-name="Path 298"
            d="M8.684,52.314c-.1-.408-.132-.853-.24-1.279l-.166.137C8.55,52.929,8.876,54.148,8.684,52.314Z"
            transform="translate(167.032 16.671)" fill="#5c55c9" />
        <path id="Path_299" data-name="Path 299"
            d="M8.833,69.516c.356-.178.553-1.952.635-3.929l-.06.338C9,65.306,9.037,67.42,8.833,69.516Z"
            transform="translate(165.569 21.424)" fill="#5c55c9" />
        <path id="Path_300" data-name="Path 300"
            d="M8.685,65.7c.042-.615.094-1.236.165-1.829C8.677,63.625,8.737,64.607,8.685,65.7Z"
            transform="translate(166.383 20.851)" fill="#5c55c9" />
        <path id="Path_301" data-name="Path 301"
            d="M14.419,83.464c.4-.842-.193-.7.11-1.142-.026-.561-.415.939-.663,1.966S13.57,85.869,14.419,83.464Z"
            transform="translate(154.007 26.85)" fill="#5c55c9" />
        <path id="Path_302" data-name="Path 302" d="M8.831,67.455l-.515.656.17,1.158Z"
            transform="translate(166.892 22.034)" fill="#5c55c9" />
        <path id="Path_303" data-name="Path 303"
            d="M10.269,79.988l.524-1.509c.142-.382.263-.783.344-1.051l.142-.473c-.073-.013-.017-.376.078-.866C10.894,78,10.113,80.019,10.269,79.988Z"
            transform="translate(161.803 24.854)" fill="#5c55c9" />
        <path id="Path_304" data-name="Path 304"
            d="M9.821,76.706a25.469,25.469,0,0,0,.567-2.505C10.259,74.742,9.973,75.895,9.821,76.706Z"
            transform="translate(163.339 24.237)" fill="#5c55c9" />
        <path id="Path_305" data-name="Path 305" d="M9.467,70.732l-.278.913-.482,2.213Z"
            transform="translate(165.738 23.104)" fill="#5c55c9" />
        <path id="Path_306" data-name="Path 306"
            d="M26.856,100.772l-1.281,1.175c-.311.3-.65.574-.9.788l-.419.349c-.206.32.629-.171,1.576-1.057C26.411,101.406,27.35,100.519,26.856,100.772Z"
            transform="translate(127.62 32.901)" fill="#5c55c9" />
        <path id="Path_307" data-name="Path 307"
            d="M19.467,95.5a6.018,6.018,0,0,1-1.206,1.032l.328.406Z"
            transform="translate(143.063 31.195)" fill="#5c55c9" />
        <path id="Path_308" data-name="Path 308"
            d="M24.418,101.477c-.167.336-3.663,3.684-.25.711C24.381,101.876,26.871,99.321,24.418,101.477Z"
            transform="translate(131.179 32.866)" fill="#5c55c9" />
        <path id="Path_309" data-name="Path 309" d="M59.978,113.674l.894.025-.093-.838Z"
            transform="translate(46.315 36.865)" fill="#5c55c9" />
        <path id="Path_310" data-name="Path 310"
            d="M91.165,114.71c2.15-.019,2.394-.174,2.554-.329s.325-.283,2.264-.43c.962-.31-3.162.188-2.153-.106C91.319,114.307,89.945,114.222,91.165,114.71Z"
            transform="translate(-29.717 37.186)" fill="#5c55c9" />
        <path id="Path_311" data-name="Path 311"
            d="M91.46,113.945c.406-.086.862-.171,1.282-.288C92.01,113.8,91.671,113.883,91.46,113.945Z"
            transform="translate(-27.32 37.125)" fill="#5c55c9" />
        <path id="Path_312" data-name="Path 312"
            d="M66.322,12.969l-.441.1a8.528,8.528,0,0,0-.969.26l-1.434.444,1.9-.411s.235-.108.468-.2S66.322,12.969,66.322,12.969Z"
            transform="translate(36.224 4.237)" fill="#5c55c9" />
        <path id="Path_313" data-name="Path 313"
            d="M66.764,15.46a.464.464,0,0,1,.091-.183.6.6,0,0,1,.111-.113c.068-.054,0,0-.121-.021a.591.591,0,0,1-.194-.034l-.04-.007-.007.04c0-.008.073.013.1.019a.694.694,0,0,1,.089.016c-.089-.016-.275,0-.194-.034s.007-.04,0,0a.2.2,0,0,0,.057.01.616.616,0,0,0,.347-.03.677.677,0,0,0-.219.252C66.744,15.573,66.754,15.517,66.764,15.46Z"
            transform="translate(31.417 4.934)" fill="#5c55c9" />
        <path id="Path_314" data-name="Path 314"
            d="M99.116,70.81l.046.257a4.435,4.435,0,0,0,.433-.8l.67-1.441L99.7,69.8c-.152.247-.3.5-.4.685Z"
            transform="translate(-45 22.48)" fill="#5c55c9" />
        <path id="Path_315" data-name="Path 315" d="M75.985,57.305l-.664-.15,1.135.732Z"
            transform="translate(10.376 18.67)" fill="#5c55c9" />
        <path id="Path_316" data-name="Path 316"
            d="M59.747,74.831a40.594,40.594,0,0,0-1.269-4.124,17.023,17.023,0,0,1,.852,3.328C59.429,74.75,59.5,75.069,59.747,74.831Z"
            transform="translate(49.429 23.096)" fill="#5c55c9" />
        <path id="Path_317" data-name="Path 317"
            d="M120.915,96.255l-.089.125.287-.115c.142-.05.277-.109.277-.109Z"
            transform="translate(-94.925 31.408)" fill="#5c55c9" />
        <path id="Path_318" data-name="Path 318"
            d="M120.236,96.2a.472.472,0,0,0,.233-.008s-.04-.007.049-.041l-.057.089c-.007.04-.027.153-.017.1l.023-.129a1.128,1.128,0,0,0-.049.282l.1.019-.106.172a.426.426,0,0,0,.1.017l-.121-.021a.71.71,0,0,1,.045-.257.511.511,0,0,1,.082-.177c.012-.072.074-.095.012-.072A.58.58,0,0,1,120.236,96.2Z"
            transform="translate(-93.313 31.406)" fill="#5c55c9" />
        <path id="Path_319" data-name="Path 319" d="M121.18,96.234l-.76,1.525Z"
            transform="translate(-94.177 31.434)" fill="#5c55c9" />
        <path id="Path_320" data-name="Path 320"
            d="M121.116,97.4l-.064-.011h0C121.223,97.46,121.2,97.455,121.116,97.4Z"
            transform="translate(-95.01 31.811)" fill="#5c55c9" />
        <path id="Path_321" data-name="Path 321"
            d="M121.073,97.469,121,97.456S121.03,97.429,121.073,97.469Z"
            transform="translate(-94.84 31.83)" fill="#5c55c9" />
        <path id="Path_322" data-name="Path 322"
            d="M121.051,97.382a.312.312,0,0,1,.122.063.322.322,0,0,0-.073-.013A.318.318,0,0,1,121.051,97.382Z"
            transform="translate(-95.007 31.809)" fill="#5c55c9" />
        <path id="Path_323" data-name="Path 323"
            d="M120.434,97.768h0a.52.52,0,0,0,.172-.036l.76-1.525-.76,1.525A.466.466,0,0,1,120.434,97.768Z"
            transform="translate(-94.382 31.425)" fill="#5c55c9" />
        <path id="Path_324" data-name="Path 324"
            d="M119.947,96.358a.81.81,0,0,0,.2-.131.747.747,0,0,0-.206-.1C120.056,96.17,119.785,96.338,119.947,96.358Z"
            transform="translate(-92.444 31.398)" fill="#5c55c9" />
        <path id="Path_325" data-name="Path 325"
            d="M121.2,96.156a3.717,3.717,0,0,0,.068.51l.292-.1C121.436,96.463,121.183,96.344,121.2,96.156Z"
            transform="translate(-95.583 31.408)" fill="#5c55c9" />
        <path id="Path_326" data-name="Path 326"
            d="M121.86,96.558l-.442.146C121.783,96.76,121.864,96.675,121.86,96.558Z"
            transform="translate(-96.18 31.54)" fill="#5c55c9" />
        <path id="Path_327" data-name="Path 327"
            d="M121.2,97.512c.008-.04-.256-.153-.21-.128a.544.544,0,0,1,.121.021.484.484,0,0,1,.1.075Z"
            transform="translate(-94.941 31.808)" fill="#5c55c9" />
        <path id="Path_328" data-name="Path 328" d="M122.625,96.03l.277-.25-.48.363Z"
            transform="translate(-98.555 31.286)" fill="#5c55c9" />
        <path id="Path_329" data-name="Path 329"
            d="M124.131,96.022c.2-.213-.172-.437.031-.551a1.588,1.588,0,0,0-.8.316.82.82,0,0,1,.765.235Z"
            transform="translate(-101.098 31.185)" fill="#5c55c9" />
        <path id="Path_330" data-name="Path 330"
            d="M123.99,95.921a3.082,3.082,0,0,0,.4-.211A1.07,1.07,0,0,0,123.99,95.921Z"
            transform="translate(-102.126 31.263)" fill="#5c55c9" />
        <path id="Path_331" data-name="Path 331"
            d="M122.522,96.628a.541.541,0,0,0-.082-.233.52.52,0,0,0-.18-.17l.11.368C122.418,96.6,122.465,96.618,122.522,96.628Z"
            transform="translate(-97.958 31.431)" fill="#5c55c9" />
        <path id="Path_332" data-name="Path 332"
            d="M122.732,96.529l-.346-.061A1.788,1.788,0,0,1,122.732,96.529Z"
            transform="translate(-98.323 31.509)" fill="#5c55c9" />
        <path id="Path_333" data-name="Path 333"
            d="M122.269,96.536l-.04-.007S122.246,96.573,122.269,96.536Z"
            transform="translate(-97.665 31.53)" fill="#5c55c9" />
        <path id="Path_334" data-name="Path 334"
            d="M121.527,97.039c-.268.152-.8.282-.371.648C121.365,97.484,121.122,97.258,121.527,97.039Z"
            transform="translate(-95.286 31.697)" fill="#5c55c9" />
        <path id="Path_335" data-name="Path 335"
            d="M121.777,96.919l.415.148c.016-.089-.05-.233.057-.322Z"
            transform="translate(-97.046 31.601)" fill="#5c55c9" />
        <path id="Path_336" data-name="Path 336" d="M122.133,96.973l.223-.085-.149-.051Z"
            transform="translate(-97.625 31.631)" fill="#5c55c9" />
        <path id="Path_337" data-name="Path 337"
            d="M124.293,96.192a.977.977,0,0,1-.641.094,2.677,2.677,0,0,0,.727.22C124.422,96.406,124.563,96.223,124.293,96.192Z"
            transform="translate(-101.74 31.42)" fill="#5c55c9" />
        <path id="Path_338" data-name="Path 338" d="M125.919,96.007l.029.063.019-.055Z"
            transform="translate(-106.258 31.36)" fill="#5c55c9" />
        <path id="Path_339" data-name="Path 339"
            d="M123.424,96.5a.34.34,0,0,0,.22.039.346.346,0,0,0,.2-.106,1.913,1.913,0,0,1-.448,0C123.362,96.473,123.356,96.505,123.424,96.5Z"
            transform="translate(-100.755 31.497)" fill="#5c55c9" />
        <path id="Path_340" data-name="Path 340"
            d="M124.56,95.918a2.28,2.28,0,0,0,.3.244C124.783,96.024,124.608,95.835,124.56,95.918Z"
            transform="translate(-103.347 31.324)" fill="#5c55c9" />
        <path id="Path_341" data-name="Path 341" d="M123.179,96.32c-.02-.078-.012-.077,0,0Z"
            transform="translate(-99.82 31.443)" fill="#5c55c9" />
        <path id="Path_342" data-name="Path 342"
            d="M123.4,96.306a1.153,1.153,0,0,0-.271.168.911.911,0,0,0,.32-.068Z"
            transform="translate(-100.041 31.457)" fill="#5c55c9" />
        <path id="Path_343" data-name="Path 343"
            d="M126.18,98.114a.55.55,0,0,1,.727-.317.543.543,0,0,1,.23.179c.431-.181.308-1.273.023-1.921-.025.145-.048.274-.493.394.123.2.884.554.492.792-.58.08-.44-.186-.7-.4.18.438-.775.477-.723,1.084l.505-.135C126.247,97.885,126.05,98.008,126.18,98.114Z"
            transform="translate(-107.47 31.375)" fill="#5c55c9" />
        <path id="Path_344" data-name="Path 344"
            d="M125.992,96.3l.168.03a1.63,1.63,0,0,1-.547-.528c-.312.111-.389.222-.415.325l.854.151Z"
            transform="translate(-105.497 31.292)" fill="#5c55c9" />
        <path id="Path_345" data-name="Path 345"
            d="M121.754,98.061a.186.186,0,0,1,.015-.08C121.68,98.014,121.65,98.042,121.754,98.061Z"
            transform="translate(-96.448 32.004)" fill="#5c55c9" />
        <path id="Path_346" data-name="Path 346"
            d="M121.8,98.066c.065-.038.137-.167.325-.1s-.028.161-.048.274c.137-.067.456-.185.114-.411l-.065.038c-.313-.163-.665-.665-.6-.7A2.768,2.768,0,0,0,121.8,98.066Z"
            transform="translate(-96.794 31.737)" fill="#5c55c9" />
        <path id="Path_347" data-name="Path 347"
            d="M124,97.116l-.711.065.305.344.032-.177C124.015,97.485,123.923,97.245,124,97.116Z"
            transform="translate(-100.793 31.722)" fill="#5c55c9" />
        <path id="Path_348" data-name="Path 348" d="M126.222,95.948l.137-.349-.463.458Z"
            transform="translate(-106.62 31.226)" fill="#5c55c9" />
        <path id="Path_349" data-name="Path 349" d="M126.809,95.877l.073-.319-.26.153Z"
            transform="translate(-108.106 31.213)" fill="#5c55c9" />
        <path id="Path_350" data-name="Path 350"
            d="M126.224,112.45l-.231.084A.5.5,0,0,0,126.224,112.45Z"
            transform="translate(-106.614 36.73)" fill="#5c55c9" />
        <path id="Path_351" data-name="Path 351"
            d="M125.262,111.015l.008-.049C125.22,111.015,125.2,111.044,125.262,111.015Z"
            transform="translate(-104.639 36.246)" fill="#5c55c9" />
        <path id="Path_352" data-name="Path 352"
            d="M126.748,97.688c-.248-.342-.507-.853-.529-.492l.036.363a.623.623,0,0,1,.26.012A.631.631,0,0,1,126.748,97.688Z"
            transform="translate(-107.438 31.708)" fill="#5c55c9" />
        <path id="Path_353" data-name="Path 353"
            d="M129.536,102.858l.024-.137a3.372,3.372,0,0,1-.4,0C129.294,102.774,129.453,102.818,129.536,102.858Z"
            transform="translate(-114.153 33.553)" fill="#5c55c9" />
        <path id="Path_354" data-name="Path 354"
            d="M128.129,102.394l0,.458A1.556,1.556,0,0,0,128.129,102.394Z"
            transform="translate(-111.371 33.446)" fill="#5c55c9" />
        <path id="Path_355" data-name="Path 355"
            d="M132.289,109.564l-.434.005C132.066,109.881,132.124,109.642,132.289,109.564Z"
            transform="translate(-120.455 35.788)" fill="#5c55c9" />
        <path id="Path_356" data-name="Path 356"
            d="M120.484,99.8a1.6,1.6,0,0,0,.585.311C120.806,99.856,120.609,99.514,120.484,99.8Z"
            transform="translate(-94.15 32.563)" fill="#5c55c9" />
        <path id="Path_357" data-name="Path 357"
            d="M126.761,109.923a.2.2,0,0,0-.035.081.2.2,0,0,0,0,.088.131.131,0,0,0,.048-.078A.134.134,0,0,0,126.761,109.923Z"
            transform="translate(-108.139 35.905)" fill="#5c55c9" />
        <path id="Path_358" data-name="Path 358"
            d="M120.593,99.242l-.021.121-.029.161-.009.056-.125.708-.065-.012a1.286,1.286,0,0,1-.314-.055.82.82,0,0,0,.33.2l.157-.886.028-.161Z"
            transform="translate(-93.071 32.416)" fill="#5c55c9" />
        <path id="Path_359" data-name="Path 359"
            d="M130.912,93.372l.064.011C131,93.387,130.954,93.363,130.912,93.372Z"
            transform="translate(-117.897 30.498)" fill="#5c55c9" />
        <path id="Path_360" data-name="Path 360"
            d="M125.16,96.371a2.356,2.356,0,0,1-.345.014A.58.58,0,0,0,125.16,96.371Z"
            transform="translate(-103.987 31.479)" fill="#5c55c9" />
        <path id="Path_361" data-name="Path 361" d="M125.176,99.326c-.186-.033-.008.04,0,0Z"
            transform="translate(-104.371 32.441)" fill="#5c55c9" />
        <path id="Path_362" data-name="Path 362"
            d="M125.534,98.214a.216.216,0,0,0,.068-.067.2.2,0,0,0,.035-.089A.272.272,0,0,1,125.534,98.214Z"
            transform="translate(-105.417 32.03)" fill="#5c55c9" />
        <path id="Path_363" data-name="Path 363" d="M119.383,99.762c.082.006.066,0,0,0Z"
            transform="translate(-91.059 32.586)" fill="#5c55c9" />
        <path id="Path_364" data-name="Path 364"
            d="M125.122,99.172a.9.9,0,0,0,.216.146A.666.666,0,0,0,125.122,99.172Z"
            transform="translate(-104.573 32.393)" fill="#5c55c9" />
        <path id="Path_365" data-name="Path 365"
            d="M125.466,99.312l-.17-.03C125.248,99.273,125.285,99.346,125.466,99.312Z"
            transform="translate(-104.906 32.429)" fill="#5c55c9" />
        <path id="Path_366" data-name="Path 366"
            d="M125.176,99.358a1.286,1.286,0,0,1-.306-.054c.04.007.049.05.04.057A2.384,2.384,0,0,0,125.176,99.358Z"
            transform="translate(-104.076 32.436)" fill="#5c55c9" />
        <path id="Path_367" data-name="Path 367"
            d="M136.857,100.658l.011-.056C136.638,100.527,136.7,100.581,136.857,100.658Z"
            transform="translate(-131.485 32.849)" fill="#5c55c9" />
        <path id="Path_368" data-name="Path 368"
            d="M130.135,100.567c-.483-.516-.289-.44-.077-.32,0,0-.338-.3-.666-.607l-.723-.617s.308.378.7.77S130.135,100.567,130.135,100.567Z"
            transform="translate(-114.075 32.345)" fill="#5c55c9" />
        <path id="Path_369" data-name="Path 369"
            d="M131.485,118.816a4.124,4.124,0,0,0,.618-.529l.13-.126s.092-.093.084-.052l.058.093.05.092-.1-.068-.048-.009-.068.056-.077.061-.667.711-.3.337-.121-.021a.375.375,0,0,1-.184-.082c-.194-.084-.235-.041-.081.459a.347.347,0,0,1,.146-.123c.06-.057.073.012.224-.184s.535-.627.856-.986l.123-.129s.1-.122.1-.09l.065.061.141.142c.107.1.22.212.352.318a2.364,2.364,0,0,0,.823.386c.241.042.4-.061.419-.257l.382.192c-.1-.019-.123.044-.228.025.389.243.5.089.6-.208l.126-.435c.078-.11.013-.354.268-.192s.685.269.456.428a2.527,2.527,0,0,0,.391-.188c.194-.106.358-.285.363-.268.271-.076.313.106.033.188a2.822,2.822,0,0,0,.659-.34l.113-.08.049-.041s-.052-.084-.077-.13l-.655-.995a.3.3,0,0,1,.134-.1l.056.011.106.06c.135.082.287.167.436.26a4.522,4.522,0,0,0,.44.243l.045-.257a2.246,2.246,0,0,0,.138-.921c.22-.734.1.382.227.222a1.911,1.911,0,0,0,.032-.276,1.774,1.774,0,0,0-.151-.557,1.626,1.626,0,0,0-.381-.624c-.02-.31.17-.3.44,0a1.532,1.532,0,0,1,.332.714,1.909,1.909,0,0,1-.086,1.006,1.37,1.37,0,0,0,.365-.43,1.376,1.376,0,0,0,.089-1.1,1.4,1.4,0,0,0-.289-.484l-.164-.2-.1-.1-.049-.009a.493.493,0,0,1-.162-.119.419.419,0,0,1-.115-.2.257.257,0,0,1,0-.1.237.237,0,0,1,.036-.089.523.523,0,0,1,.24.1.839.839,0,0,1,.2-.3c.058-.048.084-.093.117-.1a2.808,2.808,0,0,1-.032-.76c-.06.1-.158.47-.312.775a.415.415,0,0,1-.263.31.475.475,0,0,1-.145.065.292.292,0,0,1-.178-.073c.029-.168-.057-.383-.393-.559.356-.178.137-.4-.056-.723l.478-.207c-.313-.3-.54-.145-.854-.251-.158-.426.165-.692.415-.938-.245-.683-.36.765-.834.019-.09-.622-.464-.913-1.085-1.4-.046-.447.313-.077.374-.283l-.541-.137c-.036-.081.086-.117.155-.13-.3-.2-.479.214-.807-.142-.568.157.23-1.3-.6-1.518.035-.2.314-.086.463-.226a4.092,4.092,0,0,0-1.457-.8l-.005-.674c-.1.572-.807.322-1.377.114a3.443,3.443,0,0,0-.184.531l-.635-.5c.021-.121.216-.145.468-.158-.058-.013-.118-.024-.178-.032.058-.329.357-.367.7-.357l-.073.32a1.709,1.709,0,0,0,1-.214.568.568,0,0,1-.249-.143.288.288,0,0,0,.219-.061c.009-.056-.113-.02-.291-.1l.413-.45-.229.117a1.731,1.731,0,0,1,.058-.612,5.359,5.359,0,0,1-3-1.559,7.427,7.427,0,0,0,1.746.474c-.314-.056-.147.131.093.281s.511.306.529.443c-.024-.154.292-.1.4-.07s-.2-.1-.426-.232-.488-.295-.488-.295c.581.1.358,0,.529-.031-1.113-.247-1.056-.618-1.634-1.019.458.188.954.442,1.007.617.4.07-.027-.137-.516-.423s-1.037-.631-.677-.55c.061.077-.013.072.276.223-.548-.379-.483-.608.042-.241l.048.066a1.206,1.206,0,0,0-.184-.323l.007-.04.048.008.089.016a.4.4,0,0,0,.141-.042c.141-.091.145-.3-.305-.718l1.364,1.179a8.625,8.625,0,0,1-1.142-1.355,3.752,3.752,0,0,1-.43-.906c-.077-.229-.109-.376-.109-.376.226.322.825.884,1.341,1.448a4.582,4.582,0,0,1,.929,1.243c.206.111.391.235.4.012-.115-.1-1.012-1.008-.918-1.067l.724.609a5.213,5.213,0,0,1,.6.52c-.2-.159-.674-1.18-.363-1.1.041.148.487,1.015.478,1.113a1.692,1.692,0,0,1,.008-.463,1.9,1.9,0,0,1,.129-.45c-.11.155.228.829.354,1.108-.074-.2.33.058.417-.009a2.651,2.651,0,0,0-.174-.238c.24.1.352-.2.678-.494s.547-.6.988-.506c-.138.167-.455,1.115-.021,1.3.284-.432,1.285-2.1,2.117-2.332l.106.293.645-.21a15.256,15.256,0,0,1-2.436,2.433c.312.261.052.324.557.379.143.275-.333.332-.483.33l1.162.346c.031-.551.987-.407.986-.872l-1.37.363a1.64,1.64,0,0,1,1.788-1.169c.179.255-.3.943-.309,1.132.139-.175.873-.228.906-.089l-.4.236c.442.277.864-.6,1.356.007.194.035.484.791.557.472a6.076,6.076,0,0,1,.228-3.038,6.678,6.678,0,0,1,1.11,1.059c.255.542-.617,1.094-.4,1.588a.663.663,0,0,1,.312-.352c.18.157-.146.447.3.444.146-.539.9.158.268-.434a.561.561,0,0,1,.235-.009.541.541,0,0,1,.218.089.851.851,0,0,1,.2.1.594.594,0,0,0,.129.023l.186.033.081.015a.9.9,0,0,1,.036-.423.912.912,0,0,1,.227-.361,1.788,1.788,0,0,0,.3-.777.651.651,0,0,0,.374.19,1.488,1.488,0,0,0,.364-1.164,1.117,1.117,0,0,0-.927-.927c-.072-.154-.425-.374-.22-.587-.138.075-.277.25-.531.222-.41-.554.572.018.3-.611-.056.314-.726.337-1.124.474.034.512.792.223,1.207.089a2.111,2.111,0,0,1-1.758,1.474c-.708.057-.222-.487-.352-.411-1.258-.322-1.287,1.018-2.267.355-.345-.5.151-.861.085-1.188.58-.08.8.407,1.177.449l-.4-.312a.761.761,0,0,1,.767-.014c-.288-.441-2.145-.379-3.063-.931-.2.122-.531.222-.415.416l.318-.01c.229.4-.659.39-.293.62-.463.175-.992.488-1.549.2l-.025-.511c-.027.145.337.35.525.226-.281.183-.8-.813-1.17-.207l.36.412c-.463.175-1.069.641-1.557.389l.491-3.531-.505,3.52c.151.508.125-.044.406.578-.208-.758,1.323.234.934-.582.264.719.608.381,1.012,1.008.028-.161-.123-.337.3-.188a.647.647,0,0,1,.122-.128.581.581,0,0,1-.183-.281c.276-.341.97-.219,1.239-.378.245.118-.138.175-.064.362l.4-.236c-.064.362.6.711-.053.82l.549.1a1.171,1.171,0,0,0,1.028.3c.245.118.719-.3.451-.053l.9-.09-.017.1a6.631,6.631,0,0,0,1.354.007,2.472,2.472,0,0,1,.694.081,1.465,1.465,0,0,1,.338.151l.089.016.049.009.1-.547a.623.623,0,0,1,.036-.209.84.84,0,0,1,.127-.243.355.355,0,0,1-.153.056l-.04-.007h0a.3.3,0,0,1,.078.072s.082-.085.073-.128l-.158-.144.284-1.319-.081-.014-.34-.06a4.931,4.931,0,0,1-1.3-.106l-.072.41a4.05,4.05,0,0,0-1.446.035l-.016.371c-.512.217-1.177-.449-1.928-.531.073-.128.252-.063.371.066-.771-.966-1.975.3-2.688-.425a.4.4,0,0,1-.492-.087.111.111,0,0,0,.048.009.163.163,0,0,0-.089-.016,3.284,3.284,0,0,0-.248-.243.947.947,0,0,0,.208.236,2.052,2.052,0,0,0-.657.042l-.044-.406-.049-.009c-.208-.186-.218.152-.141.465a3.712,3.712,0,0,0-.422.174c-.106-.342-.349-.327-.593-.312a.69.69,0,0,1-.726-.369c-.1.156-.533.146-.917.2s-.682.187-.562.548c-.057-.1-.172-.155.024-.137-.377-.125-.787-.255-.942-.083l-.541-.56a2.349,2.349,0,0,0-.174.65c-.764-.384-1.175-.6-1.059-.975a1.332,1.332,0,0,1-.6.35.368.368,0,0,0-.317.376l-.418-.364c-.346-.061-.175.426-.848.091a6.222,6.222,0,0,0-1.447-.38l-.233-.041c-.065-.011-.17-.03-.1.025l.166.286c.13.205.265.429.418.654a10,10,0,0,1,1.421,2.74c.588.021.56.174.533.376s-.036.483.486.592c-.241.049-.243.289-.7-.049a4.853,4.853,0,0,1,.8,1.238,2.172,2.172,0,0,0,1,.915c-.155.172-.466-.141-.54,0,.1.077.4.279.332.432s-.281-.1-.488-.252c.738,1.15,1.4.9,2.01.637-.042.523.07.634.59.659-.115.23-.194.531-.5.168.117.236.564,1.519,1.011,1.3-.074.137.147.341.233.373a6.286,6.286,0,0,0,.556,1.094l.031-.178c.667-.1.354.353.645.736l-.057-.009c.111,1.157.413.305.454,1.482l.324-.233c.8-.3-.015,1.076.572,1.479l.1-.3c.411.171-.6,1.362-.543,1.7-.019.1-.161-.029-.253-.119-.045,1.012.513-.126.918.41-.191.232-.7.175-.545.593-.015.081.046.158.171.255a2.653,2.653,0,0,1,.513.439,2.861,2.861,0,0,0,.354.3c.086.074.161.129.231.2l.088.115.683-.478.049.009a.565.565,0,0,1,.161-.064c-.057-.009-.114.031,0,0a.4.4,0,0,1-.1-.019c-.174-.146-.365-.288-.556-.438l-.072-.013-.178-.031c-.226-.04-.333,0-.306.277a.4.4,0,0,1-.118-.137.236.236,0,0,1-.127.077.229.229,0,0,1-.149-.019l-.041-.007-.015.081a1.142,1.142,0,0,1-.031.176l-.021.353c-.138-.488-.271-.114-.639.086s-.639-.005-.354-.536l-.046-.065c.012-.065-.121-.023-.194-.034a.493.493,0,0,1-.257-.146l.1-.072a.636.636,0,0,0-.361-.313,1.426,1.426,0,0,0-.581-.1c-.017-.186.142-.15.206-.18-.371-1-.471-1.053-1.47-1.429l.279-.3c-.324-.057-.308-1.605-1.279-2.184a.279.279,0,0,1,.1-.028.261.261,0,0,1,.106.015c-1.036-.681-.594-2.9-2.067-2.43l-.756-.425c.439.907-.616.232-.594.724-.292-.275-.184-1.077.129-.731l-.017.1c.732-.285-.454-1.158-.005-1.435-1.1-1.572-1.8-3.372-2.773-4.888l-.381.506-.328-.548c.037-.209.269-.442.5-.053.145-.389-.657-.473-.76-.408-.285-.88.776-.1.634-.336l-.243-.275,0,.024c-.365-.106-.593.012-.877-.454-.089-.347.211-.345.158-.47s0,0,.012-.064l-.46.292-.066.046c-.179.076-.154.023-.011.064l1.844.724-1.422-2.126-.393,1.424a.323.323,0,0,0-.089-.016.333.333,0,0,1,.089.016l-.069-1.074c-.157-.144-.224-.239-.357.186l.042-.241c.012-.064-.017-.186-.044-.124s-.126.094-.069.1a.45.45,0,0,1,.2.036h0l-.5-.968.78-.692h0a.314.314,0,0,1-.089-.016s-.008.04.048.009l.726-1.374a.162.162,0,0,1,.064.011c-.08-.014-.669.064-.513-.248a5,5,0,0,0,.515.2.5.5,0,0,1,.113.02.1.1,0,0,1-.011.056.172.172,0,0,1-.048-.008l.065.011.191.142.073.013-.194.107.048.008.1.019a.427.427,0,0,0,.26-.012c.345-.022.67-.072.409-.475.426.133-.015.412.292.707,1.061-.31,2.226.534,3.508.536.025-.145-.157-.384.141-.564,0,0,.141.2.3.385l.308.378c.259-.054.31-.816.734-.294-.052-.125-.137-.306.06-.338,2.49.838,5.218-.282,7.667,1.113-.332-.291-.1-.309.162-.3-.169-.08.023-.361-.009-.558l1.035.589c.22-.534,1.138.01,1.279-.5l-.346.08c.48-.6-.588-1.382-.45-2.162-.536.677-1.287-1.057-2.15-.122-.179-.164.168-.244.076-.427-.224.326-.476.389-.937.216l.015-.088a12.191,12.191,0,0,1-3.291-.631l.08.4a1.051,1.051,0,0,1-.5-.3c-.391.562.876.08.508.7-.366-.8-2.2-.131-2.405-1.039-.478-.026.1.458-.374.423l-.106-.243-.146.306a.6.6,0,0,1-.438-.583,1.468,1.468,0,0,0,.31-.061c-.379-.3-1.155.037-1.291-.087l.448.2c-1.443-.031-3.015-.549-4.343-.194l.082.2a1.145,1.145,0,0,1-.455.041,1.133,1.133,0,0,1-.434-.14l-.17-.03-.162-.029a.6.6,0,0,0-.233-.041,2.531,2.531,0,0,0-.732.236,2.329,2.329,0,0,0-.641.468l.017-.1a6.661,6.661,0,0,0-.548,1.546c-.034-.272-.226-.04-.34.181s-.228.54-.34.089a2.765,2.765,0,0,0,.317,1.077l1.207-2.127c-.5.235-.568.348-.657.515l-.188.265a3.063,3.063,0,0,0-.187.639,2.542,2.542,0,0,0-.427.107,2.6,2.6,0,0,0,.125.619,4.711,4.711,0,0,0,.187.821c-.2-.308-.283-.191-.389-.011s-.2.388-.454-.121a1.912,1.912,0,0,0,.423,1.469l.427-2.414a2.28,2.28,0,0,0-1.033,1.7c-.1.579-.073,1.024-.21,1.705.36.229.468.132.471-.025s-.069-.46-.1-.764c-.065-.625.21-1.191.158-.893.22-.168.257.046.322.389a4.387,4.387,0,0,0,.316.944c.13.255.031.437-.04.74l-.154-.915a1.437,1.437,0,0,0-.509.856,1.9,1.9,0,0,0,.034.7,1.991,1.991,0,0,0,.135.364l.1.184s-.008.04.046.066-.056-.06-.074-.055a.546.546,0,0,1-.134-.181c.078.263.092.282.154.351a1.535,1.535,0,0,0,.2.177.533.533,0,0,1,.2.222.539.539,0,0,1,.049.3c.557-.093.276.463.856.15l-.592-.61c.406.3,1.283.227,1.408,1.078a1.388,1.388,0,0,1-.582-.145c-.052.291.349.287.32.6-.57.306-.7-.761-1.372-.906-.064.362.922.528.2.716.942-.2.407.8,1.308.927l-.341.188a.755.755,0,0,1,.46.264l-.6.019c.635.17.223,1,.685,1.266-.564-.813.261-.443.259-.95,1.12.728-.444,1.15.446,2.186-.153-.126-.2-.715.1-.57a1.7,1.7,0,0,1,.076.842c.573.715.251-.337.667-.147-.226.524.4.261.742.512l-.329.216c.37,1.011.87-.22,1.1.718l-.678-.021.464.382-.428.165c.57.259.6.446.779.967a.533.533,0,0,1,.2-.17.54.54,0,0,1,.511.02.545.545,0,0,1,.188.184c-.02.4-.411.069,0,.572-.287.016-.634.054-.49-.385-.126.053-.288.024-.411.069-.036.432.427.739.56.929a.569.569,0,0,1-.069-.269l.988.482c-.037.208-.207.179-.366.142.141.142.365.147.551.363-.318.06-.585.3-.9.056l.735.545c-.08.127-.062.594-.224.566.125.52,1.2.667,1.365,1.361a.424.424,0,0,1,.273.106c.291.566.271,1.243,1.047,1.612l-.236.673c.427.407.275-.89,1-.2s-.159.62-.05,1.037a5.478,5.478,0,0,1,.659.041c.168.08.341.184.535.269a1.876,1.876,0,0,0,.285.125l.17.08c.056.011.176-.151.263-.219a3.07,3.07,0,0,0,.277-.249l.147-.123c.048-.041.11-.106.109-.056l.162.261a.963.963,0,0,1-.129-.114l-.057-.06-.1.082C132.006,118.31,131.749,118.589,131.485,118.816Zm6.1-5.012a1.1,1.1,0,0,0,.129.072l.1.017c.033.005.081.015-.02.113s-.283.1-.284.057S137.593,113.962,137.587,113.8Zm-5.978-9.03c.162.029.153.127.094.316a.3.3,0,0,1-.1-.143A.294.294,0,0,1,131.61,104.774Zm7.347-3.49c.289.2.2.126,0,0Zm-.609-.274a.121.121,0,0,0-.028.161c.065-.088.2-.072.361-.019a.256.256,0,0,0-.337-.118Zm-16.152-.927.28-.174-.021.121-.072-.063-.186.108Z"
            transform="translate(-116.046 30.473)" fill="#5c55c9" />
        <path id="Path_370" data-name="Path 370"
            d="M128.426,102.442a.523.523,0,0,1-.162.162C128.352,102.62,128.417,102.581,128.426,102.442Z"
            transform="translate(-111.828 33.461)" fill="#5c55c9" />
        <path id="Path_371" data-name="Path 371" d="M131.863,109.564a.368.368,0,0,0-.065-.011Z"
            transform="translate(-119.954 35.784)" fill="#5c55c9" />
        <path id="Path_372" data-name="Path 372"
            d="M121.648,101.134a.563.563,0,0,1-.232-.24C121.4,100.983,121.442,101.073,121.648,101.134Z"
            transform="translate(-95.962 32.956)" fill="#5c55c9" />
        <path id="Path_373" data-name="Path 373"
            d="M126.256,99.279l.422-.033a.482.482,0,0,1-.191-.056.467.467,0,0,1-.15-.129C126.329,99.151,126.378,99.292,126.256,99.279Z"
            transform="translate(-107.417 32.357)" fill="#5c55c9" />
        <path id="Path_374" data-name="Path 374"
            d="M125.379,97.64c.065-.038.122.021.188-.025l.031-.177C125.321,97.406,125.124,97.529,125.379,97.64Z"
            transform="translate(-105.017 31.825)" fill="#5c55c9" />
        <path id="Path_375" data-name="Path 375"
            d="M127.242,98.274c.019-.337-.253-.261-.547-.246l.048.008C126.565,98.478,126.917,98.374,127.242,98.274Z"
            transform="translate(-108.564 32.014)" fill="#5c55c9" />
        <path id="Path_376" data-name="Path 376"
            d="M127.2,98.546a.746.746,0,0,1-.178-.031l.263-1.912a.253.253,0,0,1,.081.014c.019-.1.019-.1-.068-.087l-.285,2.041A.908.908,0,0,1,127.2,98.546Z"
            transform="translate(-109.129 31.528)" fill="#5c55c9" />
        <path id="Path_377" data-name="Path 377"
            d="M124.636,99.2c-.123-.1-.154.4-.2.255C124.2,99.855,125.412,99.1,124.636,99.2Z"
            transform="translate(-103.178 32.399)" fill="#5c55c9" />
        <path id="Path_378" data-name="Path 378" d="M126.551,97.371l.034.421.211-.3Z"
            transform="translate(-107.927 31.805)" fill="#5c55c9" />
        <path id="Path_379" data-name="Path 379"
            d="M125.663,97.908l-.434-.184c-.011.064-.066.1-.145.115C125.366,97.9,125.659,98.023,125.663,97.908Z"
            transform="translate(-104.849 31.92)" fill="#5c55c9" />
        <path id="Path_380" data-name="Path 380"
            d="M125.9,97.817a.569.569,0,0,0-.377.008A1.137,1.137,0,0,0,125.9,97.817Z"
            transform="translate(-105.661 31.942)" fill="#5c55c9" />
        <path id="Path_381" data-name="Path 381" d="M125.929,97.349l.123.1.309.088Z"
            transform="translate(-106.666 31.798)" fill="#5c55c9" />
        <path id="Path_382" data-name="Path 382"
            d="M121.026,98.559l.513-.034c.072-.128-.049-.241-.247-.209S120.968,98.416,121.026,98.559Z"
            transform="translate(-95.343 32.112)" fill="#5c55c9" />
        <path id="Path_383" data-name="Path 383" d="M122.219,97.522c.121.113.114.2.163.344l.089-.5Z"
            transform="translate(-97.854 31.804)" fill="#5c55c9" />
        <path id="Path_384" data-name="Path 384"
            d="M121.17,97.659c.073-.136.781-.285.154-.354C121.251,97.433,120.736,97.475,121.17,97.659Z"
            transform="translate(-95.345 31.784)" fill="#5c55c9" />
        <path id="Path_385" data-name="Path 385" d="M121.706,100.146l.123.005.088-.823Z"
            transform="translate(-96.62 32.444)" fill="#5c55c9" />
        <path id="Path_386" data-name="Path 386"
            d="M126.522,100.787c.556.289.22-.492.71-.157.165-.178-.4-.269-.235-.415C126.614,100.364,126.448,100.218,126.522,100.787Z"
            transform="translate(-108.332 32.734)" fill="#5c55c9" />
        <path id="Path_387" data-name="Path 387"
            d="M126.554,100.239a1.855,1.855,0,0,0,.2-.1A.512.512,0,0,0,126.554,100.239Z"
            transform="translate(-107.888 32.71)" fill="#5c55c9" />
        <path id="Path_388" data-name="Path 388" d="M123.5,96.771l.374.191-.232-.29Z"
            transform="translate(-100.961 31.577)" fill="#5c55c9" />
        <path id="Path_389" data-name="Path 389"
            d="M122.968,96.3l.064.534.259-.469C123.2,96.387,123.029,96.431,122.968,96.3Z"
            transform="translate(-99.667 31.457)" fill="#5c55c9" />
        <path id="Path_390" data-name="Path 390"
            d="M124.358,107.672l-.123.036c-.1.117-.036.2-.007.373Z"
            transform="translate(-102.347 35.17)" fill="#5c55c9" />
        <path id="Path_391" data-name="Path 391"
            d="M126.388,112.96a.281.281,0,0,1,.081.015,2.2,2.2,0,0,1-.137-.265l-.1-.233Z"
            transform="translate(-107.177 36.739)" fill="#5c55c9" />
        <path id="Path_392" data-name="Path 392"
            d="M130.27,111.985a1.913,1.913,0,0,0,.345.4c.052.084.186.082.272.114a2.238,2.238,0,0,1,.273.1.977.977,0,0,1-.46-.223,1.855,1.855,0,0,1-.129-.354C130.522,111.83,130.49,111.774,130.27,111.985Z"
            transform="translate(-117.224 36.534)" fill="#5c55c9" />
    </g>
</svg>
  