<svg xmlns="http://www.w3.org/2000/svg" width="40" height="40" viewBox="0 0 40 40">
  <path id="icons8-mail" d="M13.524,4A9.538,9.538,0,0,0,4,13.524V34.476A9.538,9.538,0,0,0,13.524,44H34.476A9.538,9.538,0,0,0,44,34.476V13.524A9.538,9.538,0,0,0,34.476,4Zm0,1.9H34.476A7.6,7.6,0,0,1,42.1,13.524V34.476A7.6,7.6,0,0,1,34.476,42.1H13.524A7.6,7.6,0,0,1,5.9,34.476V13.524A7.6,7.6,0,0,1,13.524,5.9Zm-.952,8.571a2.872,2.872,0,0,0-2.857,2.857V30.667a2.872,2.872,0,0,0,2.857,2.857H35.429a2.872,2.872,0,0,0,2.857-2.857V17.333a2.872,2.872,0,0,0-2.857-2.857Zm.394,1.9H35.032L26.55,24.85a3.605,3.605,0,0,1-5.117,0Zm23.415,1.345V30.274L30.1,24Zm-24.762,0L17.891,24l-6.272,6.272Zm17.132,7.617,6.283,6.274H12.966l6.272-6.272.848.848a5.538,5.538,0,0,0,7.809,0Z" transform="translate(-4 -4)" fill="#5c55c9"/>
</svg>
