<svg xmlns="http://www.w3.org/2000/svg" width="40" height="40" viewBox="0 0 40 40">
  <path id="icons8-facebook" d="M23,3a20.022,20.022,0,0,0-2.988,39.817l1.044.158V27.19H16.331v-3.2h4.725V19.729c0-2.621.628-4.347,1.667-5.429a6.2,6.2,0,0,1,4.712-1.629,19.756,19.756,0,0,1,3.006.181v2.623H28.217a3.262,3.262,0,0,0-2.836,1.645,6.415,6.415,0,0,0-.7,3.2v3.658h5.566l-.5,3.2H24.676V43l1.032-.141A20.023,20.023,0,0,0,23,3Zm0,1.821a18.167,18.167,0,0,1,3.494,36V29.009h4.812l1.056-6.847H26.494V20.325a4.942,4.942,0,0,1,.463-2.3,1.222,1.222,0,0,1,1.259-.729H32.26V11.2l-.788-.107a27.677,27.677,0,0,0-4.036-.247,8.056,8.056,0,0,0-6.023,2.187c-1.456,1.517-2.175,3.776-2.175,6.692v2.435H14.513v6.847h4.725v11.75A18.165,18.165,0,0,1,23,4.821Z" transform="translate(-3 -3)" fill="#5c55c9"/>
</svg>
