<svg xmlns="http://www.w3.org/2000/svg" width="42" height="42" viewBox="0 0 42 42">
  <g id="icons8-instagram" transform="translate(-3 -3)">
    <path id="Path_40" data-name="Path 40" d="M15.429,44H32.571A11.429,11.429,0,0,0,44,32.571V15.429A11.429,11.429,0,0,0,32.571,4H15.429A11.429,11.429,0,0,0,4,15.429V32.571A11.429,11.429,0,0,0,15.429,44Z" fill="none" stroke="#5c55c9" stroke-miterlimit="10" stroke-width="2"/>
    <path id="Path_41" data-name="Path 41" d="M24.524,15a9.524,9.524,0,1,0,9.524,9.524A9.524,9.524,0,0,0,24.524,15Z" transform="translate(-0.524 -0.524)" fill="none" stroke="#5c55c9" stroke-miterlimit="10" stroke-width="2"/>
    <path id="Path_42" data-name="Path 42" d="M36.9,11a1.9,1.9,0,1,0,1.9,1.9A1.9,1.9,0,0,0,36.9,11Z" transform="translate(-1.476 -0.333)" fill="#5c55c9"/>
  </g>
</svg>
