<svg xmlns="http://www.w3.org/2000/svg" width="42" height="42" viewBox="0 0 42 42">
  <g id="Group_343" data-name="Group 343" transform="translate(-1790 -690)">
    <g id="Group_342" data-name="Group 342">
      <g id="Group_341" data-name="Group 341">
        <g id="Group_340" data-name="Group 340">
          <g id="Group_339" data-name="Group 339">
            <g id="Group_338" data-name="Group 338">
              <g id="Group_337" data-name="Group 337" transform="translate(15 2)">
                <g id="location-svgrepo-com" transform="translate(1776 689)">
                  <path id="location_1_" d="M18.84,39.04a.448.448,0,0,1-.3-.118c-.568-.515-13.9-12.764-13.9-24.083a14.2,14.2,0,0,1,28.4,0c0,10.071-13.315,23.5-13.882,24.069A.451.451,0,0,1,18.84,39.04Zm0-37.5a13.315,13.315,0,0,0-13.3,13.3c0,9.975,11.24,21.166,13.286,23.119,2.015-2.1,13.314-14.24,13.314-23.119A13.315,13.315,0,0,0,18.84,1.54Z" transform="translate(1.16 -0.04)" fill="#5c55c9"/>
                  <rect id="_Transparent_Rectangle" width="40" height="40" fill="none"/>
                </g>
                <g id="location-svgrepo-com-2" data-name="location-svgrepo-com" transform="translate(1775 688)">
                  <path id="location_1_2" data-name="location_1_" d="M19.55,40.96a.47.47,0,0,1-.318-.123C18.636,40.3,4.64,27.435,4.64,15.55a14.91,14.91,0,0,1,29.82,0c0,10.575-13.981,24.676-14.577,25.272A.473.473,0,0,1,19.55,40.96Zm0-39.375c-3.057,0-8.433,2.841-8.433,2.841S5.585,10.907,5.585,15.55c0,10.474,11.8,22.225,13.951,24.275,2.116-2.2,13.979-14.952,13.979-24.275A13.981,13.981,0,0,0,19.55,1.585Z" transform="translate(1.45 0.2)" fill="#5c55c9"/>
                  <rect id="_Transparent_Rectangle-2" data-name="_Transparent_Rectangle" width="42" height="42" fill="none"/>
                </g>
              </g>
            </g>
          </g>
        </g>
      </g>
    </g>
    <g id="Path_43" data-name="Path 43" transform="translate(1806 700)" fill="none">
      <path d="M5.5,0A5.5,5.5,0,1,1,0,5.5,5.5,5.5,0,0,1,5.5,0Z" stroke="none"/>
      <path d="M 5.5 1.5 C 3.294390201568604 1.5 1.5 3.294390201568604 1.5 5.5 C 1.5 7.705610275268555 3.294390201568604 9.5 5.5 9.5 C 7.705610275268555 9.5 9.5 7.705610275268555 9.5 5.5 C 9.5 3.294390201568604 7.705610275268555 1.5 5.5 1.5 M 5.5 0 C 8.537569999694824 0 11 2.462430000305176 11 5.5 C 11 8.537569999694824 8.537569999694824 11 5.5 11 C 2.462430000305176 11 0 8.537569999694824 0 5.5 C 0 2.462430000305176 2.462430000305176 0 5.5 0 Z" stroke="none" fill="#5c55c9"/>
    </g>
  </g>
</svg>
