<svg xmlns="http://www.w3.org/2000/svg" width="40" height="40" viewBox="0 0 40 40">
  <path id="icons8-phone" d="M13.524,3.99A9.538,9.538,0,0,0,4,13.514V34.466a9.538,9.538,0,0,0,9.524,9.524H34.476A9.538,9.538,0,0,0,44,34.466V13.514A9.538,9.538,0,0,0,34.476,3.99Zm0,1.9H34.476A7.6,7.6,0,0,1,42.1,13.514V34.466a7.6,7.6,0,0,1-7.619,7.619H13.524A7.6,7.6,0,0,1,5.9,34.466V13.514A7.6,7.6,0,0,1,13.524,5.895Zm3.856,4.8a5.841,5.841,0,0,0-4.356,1.546,5.216,5.216,0,0,0-1.03,1.365,2.653,2.653,0,0,0-.376,1.287c0-.042-.01.18-.017.439s-.005.607.019,1.029a15.629,15.629,0,0,0,.569,3.333,22.948,22.948,0,0,0,6.164,9.948A22.948,22.948,0,0,0,28.3,35.811a15.628,15.628,0,0,0,3.333.569c.421.024.768.025,1.027.019s.483-.017.441-.017a2.653,2.653,0,0,0,1.287-.376,5.216,5.216,0,0,0,1.365-1.03A5.841,5.841,0,0,0,37.3,30.62a2.82,2.82,0,0,0-1.317-2.24l-2.693-1.724a4.519,4.519,0,0,0-4.594-.156l.082-.041-1.122.482L27.573,27a.942.942,0,0,1-.917.1A10.731,10.731,0,0,1,20.9,21.343a.942.942,0,0,1,.1-.917l.058-.082.482-1.122L21.5,19.3a4.517,4.517,0,0,0-.156-4.594C20.582,13.518,20,12.6,19.619,12.017A2.82,2.82,0,0,0,17.38,10.7ZM17.3,12.6a.922.922,0,0,1,.718.441c.377.589.963,1.5,1.724,2.693a2.631,2.631,0,0,1,.089,2.653l-.022.041-.46,1.073.095-.173a2.866,2.866,0,0,0-.3,2.747,12.645,12.645,0,0,0,6.776,6.776,2.866,2.866,0,0,0,2.747-.3l-.173.095,1.073-.46.041-.022a2.633,2.633,0,0,1,2.653.091v0l2.693,1.724a.922.922,0,0,1,.441.718,3.8,3.8,0,0,1-1.019,2.958,3.379,3.379,0,0,1-.863.657c-.259.134-.507.162-.413.162-.175,0-.267.011-.485.017s-.512.006-.874-.015a13.718,13.718,0,0,1-2.928-.5A20.96,20.96,0,0,1,19.7,28.3a20.96,20.96,0,0,1-5.677-9.115,13.723,13.723,0,0,1-.5-2.928c-.02-.362-.02-.655-.015-.874s.017-.311.017-.485c0,.094.028-.154.162-.413a3.381,3.381,0,0,1,.657-.863A3.8,3.8,0,0,1,17.3,12.6Z" transform="translate(-4 -3.99)" fill="#5c55c9"/>
</svg>
