<svg xmlns="http://www.w3.org/2000/svg" width="42" height="42" viewBox="0 0 42 42">
  <g id="Group_336" data-name="Group 336" transform="translate(-1695 -729)">
    <g id="icons8-telegram" transform="translate(1696 730)">
      <circle id="Ellipse_75" data-name="Ellipse 75" cx="20" cy="20" r="20" fill="none" stroke="#5c55c9" stroke-miterlimit="10" stroke-width="2"/>
      <path id="Path_39" data-name="Path 39" d="M31.807,15.853a1.509,1.509,0,0,1,.663.133,1.235,1.235,0,0,1,.583,1.363c-.22,2.294-2,13.935-2.385,15.1-.325,1-.668,1.856-1.321,1.856a3.573,3.573,0,0,1-2.068-.73c-.7-.5-5.369-3.632-6.017-4.04a1.306,1.306,0,0,1-.323-2.115c.7-.711,5.986-5.845,6.438-6.3.336-.337.178-.744-.152-.744a.629.629,0,0,0-.389.164c-.553.452-8.259,5.608-8.926,6.023a3.641,3.641,0,0,1-1.835.473,3.427,3.427,0,0,1-.9-.117c-1.025-.283-2.761-.809-3.45-1.055-.663-.236-.9-.464-.9-.869,0-.576.813-.974,1.67-1.338.905-.385,16.574-7.038,17.8-7.479a4.672,4.672,0,0,1,1.521-.33m0-1.818a6.37,6.37,0,0,0-2.138.438c-1.269.457-16.2,6.8-17.894,7.516C10.8,22.4,9,23.17,9,25a2.691,2.691,0,0,0,2.11,2.582c.753.268,2.541.809,3.578,1.095a5.241,5.241,0,0,0,1.388.183,5.521,5.521,0,0,0,2.629-.648,2.915,2.915,0,0,0,.017.462,3.363,3.363,0,0,0,1.573,2.4c.571.36,5.234,3.485,5.93,3.981a5.394,5.394,0,0,0,3.125,1.068c2.036,0,2.721-2.1,3.05-3.112.477-1.466,2.264-13.39,2.465-15.493a3.016,3.016,0,0,0-1.607-3.175,3.311,3.311,0,0,0-1.448-.311Z" transform="translate(-3.545 -4.003)" fill="#5c55c9"/>
    </g>
  </g>
</svg>
