<svg xmlns="http://www.w3.org/2000/svg" width="40" height="40" viewBox="0 0 40 40">
  <path id="icons8-twitter-circled" d="M22,2A20,20,0,1,0,42,22,20.013,20.013,0,0,0,22,2Zm0,1.739A18.261,18.261,0,1,1,3.739,22,18.248,18.248,0,0,1,22,3.739Zm4.951,8.747a5.7,5.7,0,0,0-5.688,5.686c0,.022.007.043.007.065A12.786,12.786,0,0,1,13,13.687a.87.87,0,0,0-1.425.112,5.529,5.529,0,0,0-.119,5.416.87.87,0,0,0-.69.849v.061a5.6,5.6,0,0,0,1.953,4.181.87.87,0,0,0-.226.892,5.67,5.67,0,0,0,3.035,3.359,8.632,8.632,0,0,1-3.689.91,8.755,8.755,0,0,1-1.045-.061.87.87,0,0,0-.572,1.6,14.5,14.5,0,0,0,7.852,2.3,14.133,14.133,0,0,0,10.829-4.761,15.06,15.06,0,0,0,3.748-9.813c0-.1,0-.2-.007-.3A10.646,10.646,0,0,0,34.9,16.1a.87.87,0,0,0-.978-1.315,5.505,5.505,0,0,0,.435-.808.87.87,0,0,0-1.27-1.014,8.82,8.82,0,0,1-2.5.955A5.588,5.588,0,0,0,26.951,12.486Zm0,1.739a3.926,3.926,0,0,1,2.88,1.245.87.87,0,0,0,.8.26c.132-.026.238-.11.369-.141-.016.01-.026.028-.043.037a.87.87,0,0,0,.46,1.615c-.06.046-.1.117-.156.161a.87.87,0,0,0-.36.742c.008.2.014.391.014.586A13.408,13.408,0,0,1,27.6,27.394a12.29,12.29,0,0,1-9.525,4.171A12.628,12.628,0,0,1,14,30.842a10.5,10.5,0,0,0,4.361-1.882.87.87,0,0,0-.52-1.552,3.771,3.771,0,0,1-2.887-1.617,5.656,5.656,0,0,0,.778-.1A.87.87,0,0,0,15.674,24a3.917,3.917,0,0,1-2.967-2.76,5.322,5.322,0,0,0,1.087.3.87.87,0,0,0,.511-1.591,3.937,3.937,0,0,1-1.756-3.286,3.647,3.647,0,0,1,.209-.776,14.457,14.457,0,0,0,9.458,4.254.87.87,0,0,0,.89-1.068,3.884,3.884,0,0,1-.1-.9A3.935,3.935,0,0,1,26.951,14.225Z" transform="translate(-2 -2)" fill="#5c55c9"/>
</svg>
